;TYPE=PLATED
;Layer: PTH_Through_Via
;EasyEDA Pro v3.2.148, 2026-09-02 20:01:09
;Gerber Generator version 0.3
M48
METRIC,LZ,0000.00000
;Hole size 1 = 0.30500 METRIC
T01C0.30500
%
G05
G90
T01
X24.003Y12.7
X-20.447Y13.081
X-27.432Y15.494
X1.27Y32.131
X2.794Y32.131
X-1.778Y32.131
X57.15Y13.589
X50.038Y16.129
X-3.302Y18.09598
X-1.524Y18.09598
X0.254Y18.09598
X2.032Y18.09598
X-1.01409Y30.06922
X-2.81416Y30.12145
X-1.6085Y26.85614
X-52.959Y8.82802
X1.87708Y21.51122
X1.3213Y20.95544
X15.78858Y10.32758
X15.23279Y9.77179
X17.018Y14.28902
X3.4099Y23.55706
X3.96569Y23.00127
X-22.86752Y12.85569
X-23.986Y10.69969
X0.03569Y24.257
M30