;TYPE=PLATED
;Layer: PTH_Through
;EasyEDA Pro v3.2.148, 2026-09-02 20:01:09
;Gerber Generator version 0.3
M48
METRIC,LZ,0000.00000
;Hole size 1 = 0.30500 METRIC
T01C0.30500
;Hole size 2 = 0.60000 METRIC
T02C0.60000
;Hole size 3 = 0.70002 METRIC
T03C0.70002
%
G05
G90
T01
X24.003Y12.7
X-20.447Y13.081
X-27.432Y15.494
X1.27Y32.131
X2.794Y32.131
X-1.778Y32.131
X57.15Y13.589
X50.038Y16.129
X-3.302Y18.09598
X-1.524Y18.09598
X0.254Y18.09598
X2.032Y18.09598
X-1.01409Y30.06922
X-2.81416Y30.12145
X-1.6085Y26.85614
X-52.959Y8.82802
X1.87708Y21.51122
X1.3213Y20.95544
X15.78858Y10.32758
X15.23279Y9.77179
X17.018Y14.28902
X3.4099Y23.55706
X3.96569Y23.00127
X-22.86752Y12.85569
X-23.986Y10.69969
X0.03569Y24.257
T02
X4.32493Y37.09496G85X4.32493Y37.99496
X-4.32509Y37.09497G85X-4.32509Y37.995
X4.32499Y41.44503G85X4.32499Y42.04503
X-4.32498Y41.44503G85X-4.32498Y42.04503
X-60.71293Y6.21204G85X-60.71293Y5.31204
X-52.06291Y6.21203G85X-52.06291Y5.312
X-60.71298Y1.86197G85X-60.71298Y1.26197
X-52.06301Y1.86197G85X-52.06301Y1.26197
T03
X60.044Y2.35095G85X60.044Y1.05098
X47.144Y2.35095G85X47.144Y1.05098
X-17.553Y2.35095G85X-17.553Y1.05098
X-30.453Y2.35095G85X-30.453Y1.05098
X26.897Y2.35095G85X26.897Y1.05098
X13.997Y2.35095G85X13.997Y1.05098
M30