G04 Layer: TopSilkscreenLayer*
G04 EasyEDA Pro v3.2.148, 2026-09-02 20:01:09*
G04 Gerber Generator version 0.3*
G04 Scale: 100 percent, Rotated: No, Reflected: No*
G04 Dimensions in millimeters*
G04 Leading zeros omitted, absolute positions, 4 integers and 5 decimals*
G04 Generated by one-click*
G04 Object Configs: Pad,Via,Track,Text,Image,Dimension,BoardOutline,BoardCutout,CopperFilled,SolidRegion,FPCStiffener,Line,PlaneZone,ComponentProperty,ComponentSilkscreen,TearDrop*
G04 Layer Configs: 1,2,3,4,5,6,7,8,9,10,11,13,14,56*
G04 Copper Areas: 0*
%FSLAX45Y45*%
%MOMM*%
%ADD10C,0.1524*%
%ADD11C,0.254*%
%ADD12C,0.0543*%
G75*


G04 Text Start*
G54D10*
G01X1526649Y1261311D02*
G01X1520299Y1258263D01*
G01X1514203Y1251913D01*
G01X1511155Y1245817D01*
G01X1511155Y1233371D01*
G01X1514203Y1227275D01*
G01X1520299Y1220925D01*
G01X1526649Y1217877D01*
G01X1535793Y1214829D01*
G01X1551287Y1214829D01*
G01X1560685Y1217877D01*
G01X1566781Y1220925D01*
G01X1573131Y1227275D01*
G01X1576179Y1233371D01*
G01X1576179Y1245817D01*
G01X1573131Y1251913D01*
G01X1566781Y1258263D01*
G01X1560685Y1261311D01*
G01X1523601Y1291537D02*
G01X1520299Y1297633D01*
G01X1511155Y1306777D01*
G01X1576179Y1306777D01*
G01X-2924853Y1229713D02*
G01X-2931203Y1226665D01*
G01X-2937299Y1220315D01*
G01X-2940347Y1214219D01*
G01X-2940347Y1201773D01*
G01X-2937299Y1195677D01*
G01X-2931203Y1189327D01*
G01X-2924853Y1186279D01*
G01X-2915709Y1183231D01*
G01X-2900215Y1183231D01*
G01X-2890817Y1186279D01*
G01X-2884721Y1189327D01*
G01X-2878371Y1195677D01*
G01X-2875323Y1201773D01*
G01X-2875323Y1214219D01*
G01X-2878371Y1220315D01*
G01X-2884721Y1226665D01*
G01X-2890817Y1229713D01*
G01X-2924853Y1262987D02*
G01X-2927901Y1262987D01*
G01X-2934251Y1266035D01*
G01X-2937299Y1269083D01*
G01X-2940347Y1275179D01*
G01X-2940347Y1287625D01*
G01X-2937299Y1293975D01*
G01X-2934251Y1297023D01*
G01X-2927901Y1300071D01*
G01X-2921805Y1300071D01*
G01X-2915709Y1297023D01*
G01X-2906311Y1290673D01*
G01X-2875323Y1259939D01*
G01X-2875323Y1303119D01*
G01X-5292598Y1031240D02*
G01X-5295646Y1037590D01*
G01X-5301996Y1043686D01*
G01X-5308092Y1046734D01*
G01X-5320538Y1046734D01*
G01X-5326634Y1043686D01*
G01X-5332984Y1037590D01*
G01X-5336032Y1031240D01*
G01X-5339080Y1022096D01*
G01X-5339080Y1006602D01*
G01X-5336032Y997204D01*
G01X-5332984Y991108D01*
G01X-5326634Y984758D01*
G01X-5320538Y981710D01*
G01X-5308092Y981710D01*
G01X-5301996Y984758D01*
G01X-5295646Y991108D01*
G01X-5292598Y997204D01*
G01X-5256276Y1046734D02*
G01X-5222240Y1046734D01*
G01X-5240782Y1022096D01*
G01X-5231638Y1022096D01*
G01X-5225288Y1019048D01*
G01X-5222240Y1015746D01*
G01X-5219192Y1006602D01*
G01X-5219192Y1000252D01*
G01X-5222240Y991108D01*
G01X-5228336Y984758D01*
G01X-5237734Y981710D01*
G01X-5247132Y981710D01*
G01X-5256276Y984758D01*
G01X-5259324Y988060D01*
G01X-5262372Y994156D01*
G01X299974Y3680765D02*
G01X303022Y3674415D01*
G01X309372Y3668319D01*
G01X315468Y3665271D01*
G01X327914Y3665271D01*
G01X334010Y3668319D01*
G01X340360Y3674415D01*
G01X343408Y3680765D01*
G01X346456Y3689909D01*
G01X346456Y3705403D01*
G01X343408Y3714801D01*
G01X340360Y3720897D01*
G01X334010Y3727247D01*
G01X327914Y3730295D01*
G01X315468Y3730295D01*
G01X309372Y3727247D01*
G01X303022Y3720897D01*
G01X299974Y3714801D01*
G01X239014Y3665271D02*
G01X269748Y3708451D01*
G01X223520Y3708451D01*
G01X239014Y3665271D02*
G01X239014Y3730295D01*
G01X4828649Y1248611D02*
G01X4822299Y1245563D01*
G01X4816203Y1239213D01*
G01X4813155Y1233117D01*
G01X4813155Y1220671D01*
G01X4816203Y1214575D01*
G01X4822299Y1208225D01*
G01X4828649Y1205177D01*
G01X4837793Y1202129D01*
G01X4853287Y1202129D01*
G01X4862685Y1205177D01*
G01X4868781Y1208225D01*
G01X4875131Y1214575D01*
G01X4878179Y1220671D01*
G01X4878179Y1233117D01*
G01X4875131Y1239213D01*
G01X4868781Y1245563D01*
G01X4862685Y1248611D01*
G01X4813155Y1315921D02*
G01X4813155Y1284933D01*
G01X4840841Y1281885D01*
G01X4837793Y1284933D01*
G01X4834745Y1294077D01*
G01X4834745Y1303475D01*
G01X4837793Y1312873D01*
G01X4844143Y1318969D01*
G01X4853287Y1322017D01*
G01X4859637Y1322017D01*
G01X4868781Y1318969D01*
G01X4875131Y1312873D01*
G01X4878179Y1303475D01*
G01X4878179Y1294077D01*
G01X4875131Y1284933D01*
G01X4871829Y1281885D01*
G01X4865733Y1278837D01*
G01X66802Y2923540D02*
G01X63754Y2929890D01*
G01X57404Y2935986D01*
G01X51308Y2939034D01*
G01X38862Y2939034D01*
G01X32766Y2935986D01*
G01X26416Y2929890D01*
G01X23368Y2923540D01*
G01X20320Y2914396D01*
G01X20320Y2898902D01*
G01X23368Y2889504D01*
G01X26416Y2883408D01*
G01X32766Y2877058D01*
G01X38862Y2874010D01*
G01X51308Y2874010D01*
G01X57404Y2877058D01*
G01X63754Y2883408D01*
G01X66802Y2889504D01*
G01X134112Y2929890D02*
G01X131064Y2935986D01*
G01X121666Y2939034D01*
G01X115570Y2939034D01*
G01X106172Y2935986D01*
G01X100076Y2926588D01*
G01X97028Y2911348D01*
G01X97028Y2895854D01*
G01X100076Y2883408D01*
G01X106172Y2877058D01*
G01X115570Y2874010D01*
G01X118618Y2874010D01*
G01X127762Y2877058D01*
G01X134112Y2883408D01*
G01X137160Y2892552D01*
G01X137160Y2895854D01*
G01X134112Y2904998D01*
G01X127762Y2911348D01*
G01X118618Y2914396D01*
G01X115570Y2914396D01*
G01X106172Y2911348D01*
G01X100076Y2904998D01*
G01X97028Y2895854D01*
G01X-466598Y2936240D02*
G01X-469646Y2942590D01*
G01X-475996Y2948686D01*
G01X-482092Y2951734D01*
G01X-494538Y2951734D01*
G01X-500634Y2948686D01*
G01X-506984Y2942590D01*
G01X-510032Y2936240D01*
G01X-513080Y2927096D01*
G01X-513080Y2911602D01*
G01X-510032Y2902204D01*
G01X-506984Y2896108D01*
G01X-500634Y2889758D01*
G01X-494538Y2886710D01*
G01X-482092Y2886710D01*
G01X-475996Y2889758D01*
G01X-469646Y2896108D01*
G01X-466598Y2902204D01*
G01X-393192Y2951734D02*
G01X-424180Y2886710D01*
G01X-436372Y2951734D02*
G01X-393192Y2951734D01*
G01X-339598Y1666240D02*
G01X-342646Y1672590D01*
G01X-348996Y1678686D01*
G01X-355092Y1681734D01*
G01X-367538Y1681734D01*
G01X-373634Y1678686D01*
G01X-379984Y1672590D01*
G01X-383032Y1666240D01*
G01X-386080Y1657096D01*
G01X-386080Y1641602D01*
G01X-383032Y1632204D01*
G01X-379984Y1626108D01*
G01X-373634Y1619758D01*
G01X-367538Y1616710D01*
G01X-355092Y1616710D01*
G01X-348996Y1619758D01*
G01X-342646Y1626108D01*
G01X-339598Y1632204D01*
G01X-294132Y1681734D02*
G01X-303276Y1678686D01*
G01X-306324Y1672590D01*
G01X-306324Y1666240D01*
G01X-303276Y1660144D01*
G01X-297180Y1657096D01*
G01X-284734Y1654048D01*
G01X-275336Y1650746D01*
G01X-269240Y1644650D01*
G01X-266192Y1638554D01*
G01X-266192Y1629156D01*
G01X-269240Y1623060D01*
G01X-272288Y1619758D01*
G01X-281686Y1616710D01*
G01X-294132Y1616710D01*
G01X-303276Y1619758D01*
G01X-306324Y1623060D01*
G01X-309372Y1629156D01*
G01X-309372Y1638554D01*
G01X-306324Y1644650D01*
G01X-300228Y1650746D01*
G01X-290830Y1654048D01*
G01X-278638Y1657096D01*
G01X-272288Y1660144D01*
G01X-269240Y1666240D01*
G01X-269240Y1672590D01*
G01X-272288Y1678686D01*
G01X-281686Y1681734D01*
G01X-294132Y1681734D01*
G01X-174498Y1666240D02*
G01X-177546Y1672590D01*
G01X-183896Y1678686D01*
G01X-189992Y1681734D01*
G01X-202438Y1681734D01*
G01X-208534Y1678686D01*
G01X-214884Y1672590D01*
G01X-217932Y1666240D01*
G01X-220980Y1657096D01*
G01X-220980Y1641602D01*
G01X-217932Y1632204D01*
G01X-214884Y1626108D01*
G01X-208534Y1619758D01*
G01X-202438Y1616710D01*
G01X-189992Y1616710D01*
G01X-183896Y1619758D01*
G01X-177546Y1626108D01*
G01X-174498Y1632204D01*
G01X-104140Y1660144D02*
G01X-107188Y1650746D01*
G01X-113538Y1644650D01*
G01X-122682Y1641602D01*
G01X-125730Y1641602D01*
G01X-135128Y1644650D01*
G01X-141224Y1650746D01*
G01X-144272Y1660144D01*
G01X-144272Y1663192D01*
G01X-141224Y1672590D01*
G01X-135128Y1678686D01*
G01X-125730Y1681734D01*
G01X-122682Y1681734D01*
G01X-113538Y1678686D01*
G01X-107188Y1672590D01*
G01X-104140Y1660144D01*
G01X-104140Y1644650D01*
G01X-107188Y1629156D01*
G01X-113538Y1619758D01*
G01X-122682Y1616710D01*
G01X-129032Y1616710D01*
G01X-138176Y1619758D01*
G01X-141224Y1626108D01*
G01X3302Y1666240D02*
G01X254Y1672590D01*
G01X-6096Y1678686D01*
G01X-12192Y1681734D01*
G01X-24638Y1681734D01*
G01X-30734Y1678686D01*
G01X-37084Y1672590D01*
G01X-40132Y1666240D01*
G01X-43180Y1657096D01*
G01X-43180Y1641602D01*
G01X-40132Y1632204D01*
G01X-37084Y1626108D01*
G01X-30734Y1619758D01*
G01X-24638Y1616710D01*
G01X-12192Y1616710D01*
G01X-6096Y1619758D01*
G01X254Y1626108D01*
G01X3302Y1632204D01*
G01X33528Y1669288D02*
G01X39624Y1672590D01*
G01X48768Y1681734D01*
G01X48768Y1616710D01*
G01X97536Y1681734D02*
G01X88138Y1678686D01*
G01X82042Y1669288D01*
G01X78994Y1654048D01*
G01X78994Y1644650D01*
G01X82042Y1629156D01*
G01X88138Y1619758D01*
G01X97536Y1616710D01*
G01X103632Y1616710D01*
G01X113030Y1619758D01*
G01X119126Y1629156D01*
G01X122174Y1644650D01*
G01X122174Y1654048D01*
G01X119126Y1669288D01*
G01X113030Y1678686D01*
G01X103632Y1681734D01*
G01X97536Y1681734D01*
G01X193802Y1666240D02*
G01X190754Y1672590D01*
G01X184404Y1678686D01*
G01X178308Y1681734D01*
G01X165862Y1681734D01*
G01X159766Y1678686D01*
G01X153416Y1672590D01*
G01X150368Y1666240D01*
G01X147320Y1657096D01*
G01X147320Y1641602D01*
G01X150368Y1632204D01*
G01X153416Y1626108D01*
G01X159766Y1619758D01*
G01X165862Y1616710D01*
G01X178308Y1616710D01*
G01X184404Y1619758D01*
G01X190754Y1626108D01*
G01X193802Y1632204D01*
G01X224028Y1669288D02*
G01X230124Y1672590D01*
G01X239268Y1681734D01*
G01X239268Y1616710D01*
G01X269494Y1669288D02*
G01X275590Y1672590D01*
G01X284734Y1681734D01*
G01X284734Y1616710D01*
G01X71120Y3269234D02*
G01X71120Y3204210D01*
G01X71120Y3269234D02*
G01X99060Y3269234D01*
G01X108204Y3266186D01*
G01X111252Y3263138D01*
G01X114554Y3256788D01*
G01X114554Y3250692D01*
G01X111252Y3244596D01*
G01X108204Y3241548D01*
G01X99060Y3238246D01*
G01X71120Y3238246D01*
G01X92710Y3238246D02*
G01X114554Y3204210D01*
G01X144780Y3256788D02*
G01X150876Y3260090D01*
G01X160020Y3269234D01*
G01X160020Y3204210D01*
G01X-233680Y3256534D02*
G01X-233680Y3191510D01*
G01X-233680Y3256534D02*
G01X-205740Y3256534D01*
G01X-196596Y3253486D01*
G01X-193548Y3250438D01*
G01X-190246Y3244088D01*
G01X-190246Y3237992D01*
G01X-193548Y3231896D01*
G01X-196596Y3228848D01*
G01X-205740Y3225546D01*
G01X-233680Y3225546D01*
G01X-212090Y3225546D02*
G01X-190246Y3191510D01*
G01X-156972Y3241040D02*
G01X-156972Y3244088D01*
G01X-153924Y3250438D01*
G01X-150876Y3253486D01*
G01X-144780Y3256534D01*
G01X-132334Y3256534D01*
G01X-125984Y3253486D01*
G01X-122936Y3250438D01*
G01X-119888Y3244088D01*
G01X-119888Y3237992D01*
G01X-122936Y3231896D01*
G01X-129286Y3222498D01*
G01X-160020Y3191510D01*
G01X-116840Y3191510D01*
G01X-5821680Y1110234D02*
G01X-5821680Y1045210D01*
G01X-5821680Y1110234D02*
G01X-5793740Y1110234D01*
G01X-5784596Y1107186D01*
G01X-5781548Y1104138D01*
G01X-5778246Y1097788D01*
G01X-5778246Y1091692D01*
G01X-5781548Y1085596D01*
G01X-5784596Y1082548D01*
G01X-5793740Y1079246D01*
G01X-5821680Y1079246D01*
G01X-5800090Y1079246D02*
G01X-5778246Y1045210D01*
G01X-5741924Y1110234D02*
G01X-5707888Y1110234D01*
G01X-5726430Y1085596D01*
G01X-5717286Y1085596D01*
G01X-5710936Y1082548D01*
G01X-5707888Y1079246D01*
G01X-5704840Y1070102D01*
G01X-5704840Y1063752D01*
G01X-5707888Y1054608D01*
G01X-5713984Y1048258D01*
G01X-5723382Y1045210D01*
G01X-5732780Y1045210D01*
G01X-5741924Y1048258D01*
G01X-5744972Y1051560D01*
G01X-5748020Y1057656D01*
G01X-5529580Y1097534D02*
G01X-5529580Y1032510D01*
G01X-5529580Y1097534D02*
G01X-5501640Y1097534D01*
G01X-5492496Y1094486D01*
G01X-5489448Y1091438D01*
G01X-5486146Y1085088D01*
G01X-5486146Y1078992D01*
G01X-5489448Y1072896D01*
G01X-5492496Y1069848D01*
G01X-5501640Y1066546D01*
G01X-5529580Y1066546D01*
G01X-5507990Y1066546D02*
G01X-5486146Y1032510D01*
G01X-5425186Y1097534D02*
G01X-5455920Y1054354D01*
G01X-5409692Y1054354D01*
G01X-5425186Y1097534D02*
G01X-5425186Y1032510D01*
G01X337820Y2456434D02*
G01X337820Y2409952D01*
G01X340868Y2400808D01*
G01X347218Y2394458D01*
G01X356362Y2391410D01*
G01X362712Y2391410D01*
G01X371856Y2394458D01*
G01X377952Y2400808D01*
G01X381254Y2409952D01*
G01X381254Y2456434D01*
G01X411480Y2443988D02*
G01X417576Y2447290D01*
G01X426720Y2456434D01*
G01X426720Y2391410D01*
G01X502920Y4018534D02*
G01X502920Y3972052D01*
G01X505968Y3962908D01*
G01X512318Y3956558D01*
G01X521462Y3953510D01*
G01X527812Y3953510D01*
G01X536956Y3956558D01*
G01X543052Y3962908D01*
G01X546354Y3972052D01*
G01X546354Y4018534D01*
G01X619760Y4009390D02*
G01X613664Y4015486D01*
G01X604266Y4018534D01*
G01X591820Y4018534D01*
G01X582676Y4015486D01*
G01X576580Y4009390D01*
G01X576580Y4003040D01*
G01X579628Y3996944D01*
G01X582676Y3993896D01*
G01X588772Y3990848D01*
G01X607314Y3984498D01*
G01X613664Y3981450D01*
G01X616712Y3978402D01*
G01X619760Y3972052D01*
G01X619760Y3962908D01*
G01X613664Y3956558D01*
G01X604266Y3953510D01*
G01X591820Y3953510D01*
G01X582676Y3956558D01*
G01X576580Y3962908D01*
G01X649986Y4018534D02*
G01X649986Y3953510D01*
G01X649986Y4018534D02*
G01X677672Y4018534D01*
G01X687070Y4015486D01*
G01X690118Y4012438D01*
G01X693166Y4006088D01*
G01X693166Y3999992D01*
G01X690118Y3993896D01*
G01X687070Y3990848D01*
G01X677672Y3987546D01*
G01X649986Y3987546D02*
G01X677672Y3987546D01*
G01X687070Y3984498D01*
G01X690118Y3981450D01*
G01X693166Y3975354D01*
G01X693166Y3965956D01*
G01X690118Y3959860D01*
G01X687070Y3956558D01*
G01X677672Y3953510D01*
G01X649986Y3953510D01*
G01X723392Y4006088D02*
G01X729488Y4009390D01*
G01X738632Y4018534D01*
G01X738632Y3953510D01*
G01X-6123932Y793392D02*
G01X-6123932Y746910D01*
G01X-6120884Y737766D01*
G01X-6114534Y731416D01*
G01X-6105390Y728368D01*
G01X-6099040Y728368D01*
G01X-6089896Y731416D01*
G01X-6083800Y737766D01*
G01X-6080498Y746910D01*
G01X-6080498Y793392D01*
G01X-6007092Y784248D02*
G01X-6013188Y790344D01*
G01X-6022586Y793392D01*
G01X-6035032Y793392D01*
G01X-6044176Y790344D01*
G01X-6050272Y784248D01*
G01X-6050272Y777898D01*
G01X-6047224Y771802D01*
G01X-6044176Y768754D01*
G01X-6038080Y765706D01*
G01X-6019538Y759356D01*
G01X-6013188Y756308D01*
G01X-6010140Y753260D01*
G01X-6007092Y746910D01*
G01X-6007092Y737766D01*
G01X-6013188Y731416D01*
G01X-6022586Y728368D01*
G01X-6035032Y728368D01*
G01X-6044176Y731416D01*
G01X-6050272Y737766D01*
G01X-5976866Y793392D02*
G01X-5976866Y728368D01*
G01X-5976866Y793392D02*
G01X-5949180Y793392D01*
G01X-5939782Y790344D01*
G01X-5936734Y787296D01*
G01X-5933686Y780946D01*
G01X-5933686Y774850D01*
G01X-5936734Y768754D01*
G01X-5939782Y765706D01*
G01X-5949180Y762404D01*
G01X-5976866Y762404D02*
G01X-5949180Y762404D01*
G01X-5939782Y759356D01*
G01X-5936734Y756308D01*
G01X-5933686Y750212D01*
G01X-5933686Y740814D01*
G01X-5936734Y734718D01*
G01X-5939782Y731416D01*
G01X-5949180Y728368D01*
G01X-5976866Y728368D01*
G01X-5900412Y777898D02*
G01X-5900412Y780946D01*
G01X-5897364Y787296D01*
G01X-5894316Y790344D01*
G01X-5888220Y793392D01*
G01X-5875774Y793392D01*
G01X-5869424Y790344D01*
G01X-5866376Y787296D01*
G01X-5863328Y780946D01*
G01X-5863328Y774850D01*
G01X-5866376Y768754D01*
G01X-5872726Y759356D01*
G01X-5903460Y728368D01*
G01X-5860280Y728368D01*
G01X4662013Y1300284D02*
G01X4662013Y1253802D01*
G01X4665061Y1244658D01*
G01X4671411Y1238308D01*
G01X4680555Y1235260D01*
G01X4686905Y1235260D01*
G01X4696049Y1238308D01*
G01X4702145Y1244658D01*
G01X4705447Y1253802D01*
G01X4705447Y1300284D01*
G01X4778853Y1291140D02*
G01X4772757Y1297236D01*
G01X4763359Y1300284D01*
G01X4750913Y1300284D01*
G01X4741769Y1297236D01*
G01X4735673Y1291140D01*
G01X4735673Y1284790D01*
G01X4738721Y1278694D01*
G01X4741769Y1275646D01*
G01X4747865Y1272598D01*
G01X4766407Y1266248D01*
G01X4772757Y1263200D01*
G01X4775805Y1260152D01*
G01X4778853Y1253802D01*
G01X4778853Y1244658D01*
G01X4772757Y1238308D01*
G01X4763359Y1235260D01*
G01X4750913Y1235260D01*
G01X4741769Y1238308D01*
G01X4735673Y1244658D01*
G01X4809079Y1300284D02*
G01X4809079Y1235260D01*
G01X4809079Y1300284D02*
G01X4836765Y1300284D01*
G01X4846163Y1297236D01*
G01X4849211Y1294188D01*
G01X4852259Y1287838D01*
G01X4852259Y1281742D01*
G01X4849211Y1275646D01*
G01X4846163Y1272598D01*
G01X4836765Y1269296D01*
G01X4809079Y1269296D02*
G01X4836765Y1269296D01*
G01X4846163Y1266248D01*
G01X4849211Y1263200D01*
G01X4852259Y1257104D01*
G01X4852259Y1247706D01*
G01X4849211Y1241610D01*
G01X4846163Y1238308D01*
G01X4836765Y1235260D01*
G01X4809079Y1235260D01*
G01X4888581Y1300284D02*
G01X4922617Y1300284D01*
G01X4904075Y1275646D01*
G01X4913219Y1275646D01*
G01X4919569Y1272598D01*
G01X4922617Y1269296D01*
G01X4925665Y1260152D01*
G01X4925665Y1253802D01*
G01X4922617Y1244658D01*
G01X4916521Y1238308D01*
G01X4907123Y1235260D01*
G01X4897725Y1235260D01*
G01X4888581Y1238308D01*
G01X4885533Y1241610D01*
G01X4882485Y1247706D01*
G01X-3097687Y1300284D02*
G01X-3097687Y1253802D01*
G01X-3094639Y1244658D01*
G01X-3088289Y1238308D01*
G01X-3079145Y1235260D01*
G01X-3072795Y1235260D01*
G01X-3063651Y1238308D01*
G01X-3057555Y1244658D01*
G01X-3054253Y1253802D01*
G01X-3054253Y1300284D01*
G01X-2980847Y1291140D02*
G01X-2986943Y1297236D01*
G01X-2996341Y1300284D01*
G01X-3008787Y1300284D01*
G01X-3017931Y1297236D01*
G01X-3024027Y1291140D01*
G01X-3024027Y1284790D01*
G01X-3020979Y1278694D01*
G01X-3017931Y1275646D01*
G01X-3011835Y1272598D01*
G01X-2993293Y1266248D01*
G01X-2986943Y1263200D01*
G01X-2983895Y1260152D01*
G01X-2980847Y1253802D01*
G01X-2980847Y1244658D01*
G01X-2986943Y1238308D01*
G01X-2996341Y1235260D01*
G01X-3008787Y1235260D01*
G01X-3017931Y1238308D01*
G01X-3024027Y1244658D01*
G01X-2950621Y1300284D02*
G01X-2950621Y1235260D01*
G01X-2950621Y1300284D02*
G01X-2922935Y1300284D01*
G01X-2913537Y1297236D01*
G01X-2910489Y1294188D01*
G01X-2907441Y1287838D01*
G01X-2907441Y1281742D01*
G01X-2910489Y1275646D01*
G01X-2913537Y1272598D01*
G01X-2922935Y1269296D01*
G01X-2950621Y1269296D02*
G01X-2922935Y1269296D01*
G01X-2913537Y1266248D01*
G01X-2910489Y1263200D01*
G01X-2907441Y1257104D01*
G01X-2907441Y1247706D01*
G01X-2910489Y1241610D01*
G01X-2913537Y1238308D01*
G01X-2922935Y1235260D01*
G01X-2950621Y1235260D01*
G01X-2846481Y1300284D02*
G01X-2877215Y1257104D01*
G01X-2830987Y1257104D01*
G01X-2846481Y1300284D02*
G01X-2846481Y1235260D01*
G01X1347313Y1300284D02*
G01X1347313Y1253802D01*
G01X1350361Y1244658D01*
G01X1356711Y1238308D01*
G01X1365855Y1235260D01*
G01X1372205Y1235260D01*
G01X1381349Y1238308D01*
G01X1387445Y1244658D01*
G01X1390747Y1253802D01*
G01X1390747Y1300284D01*
G01X1464153Y1291140D02*
G01X1458057Y1297236D01*
G01X1448659Y1300284D01*
G01X1436213Y1300284D01*
G01X1427069Y1297236D01*
G01X1420973Y1291140D01*
G01X1420973Y1284790D01*
G01X1424021Y1278694D01*
G01X1427069Y1275646D01*
G01X1433165Y1272598D01*
G01X1451707Y1266248D01*
G01X1458057Y1263200D01*
G01X1461105Y1260152D01*
G01X1464153Y1253802D01*
G01X1464153Y1244658D01*
G01X1458057Y1238308D01*
G01X1448659Y1235260D01*
G01X1436213Y1235260D01*
G01X1427069Y1238308D01*
G01X1420973Y1244658D01*
G01X1494379Y1300284D02*
G01X1494379Y1235260D01*
G01X1494379Y1300284D02*
G01X1522065Y1300284D01*
G01X1531463Y1297236D01*
G01X1534511Y1294188D01*
G01X1537559Y1287838D01*
G01X1537559Y1281742D01*
G01X1534511Y1275646D01*
G01X1531463Y1272598D01*
G01X1522065Y1269296D01*
G01X1494379Y1269296D02*
G01X1522065Y1269296D01*
G01X1531463Y1266248D01*
G01X1534511Y1263200D01*
G01X1537559Y1257104D01*
G01X1537559Y1247706D01*
G01X1534511Y1241610D01*
G01X1531463Y1238308D01*
G01X1522065Y1235260D01*
G01X1494379Y1235260D01*
G01X1604869Y1300284D02*
G01X1573881Y1300284D01*
G01X1570833Y1272598D01*
G01X1573881Y1275646D01*
G01X1583025Y1278694D01*
G01X1592423Y1278694D01*
G01X1601821Y1275646D01*
G01X1607917Y1269296D01*
G01X1610965Y1260152D01*
G01X1610965Y1253802D01*
G01X1607917Y1244658D01*
G01X1601821Y1238308D01*
G01X1592423Y1235260D01*
G01X1583025Y1235260D01*
G01X1573881Y1238308D01*
G01X1570833Y1241610D01*
G01X1567785Y1247706D01*
G04 Text End*

G04 PolygonModel Start*
G54D11*
G01X1772757Y1330881D02*
G01X1772757Y1250884D01*
G01X1772803Y1386926D02*
G01X1772803Y1466924D01*
G01X1630789Y1330881D02*
G01X1630789Y1250884D01*
G01X1630837Y1386926D02*
G01X1630837Y1466924D01*
G01X1741775Y1219909D02*
G01X1661770Y1219909D01*
G01X1661823Y1497902D02*
G01X1741825Y1497902D01*
G01X1630837Y1466919D02*
G02X1661823Y1497902I30983J0D01*
G01X1741820Y1497902D02*
G02X1772803Y1466919I0J-30983D01*
G01X1772757Y1250889D02*
G02X1741775Y1219909I-30983J3D01*
G01X1661777Y1219909D02*
G02X1630789Y1250889I-5J30983D01*
G01X-2678745Y1299284D02*
G01X-2678745Y1219286D01*
G01X-2678699Y1355329D02*
G01X-2678699Y1435326D01*
G01X-2820713Y1299284D02*
G01X-2820713Y1219286D01*
G01X-2820665Y1355329D02*
G01X-2820665Y1435326D01*
G01X-2709728Y1188311D02*
G01X-2789733Y1188311D01*
G01X-2789679Y1466304D02*
G01X-2709677Y1466304D01*
G01X-2820665Y1435321D02*
G02X-2789679Y1466304I30983J0D01*
G01X-2709682Y1466304D02*
G02X-2678699Y1435321I0J-30983D01*
G01X-2678745Y1219291D02*
G02X-2709728Y1188311I-30983J3D01*
G01X-2789725Y1188311D02*
G02X-2820713Y1219291I-5J30983D01*
G01X-5224943Y784781D02*
G01X-5224943Y704784D01*
G01X-5224897Y840826D02*
G01X-5224897Y920824D01*
G01X-5366911Y784781D02*
G01X-5366911Y704784D01*
G01X-5366863Y840826D02*
G01X-5366863Y920824D01*
G01X-5255925Y673809D02*
G01X-5335930Y673809D01*
G01X-5335877Y951802D02*
G01X-5255875Y951802D01*
G01X-5366863Y920819D02*
G02X-5335877Y951802I30983J0D01*
G01X-5255880Y951802D02*
G02X-5224897Y920819I0J-30983D01*
G01X-5224943Y704789D02*
G02X-5255925Y673809I-30983J3D01*
G01X-5335923Y673809D02*
G02X-5366911Y704789I-5J30983D01*
G01X221143Y3495424D02*
G01X221143Y3575421D01*
G01X221097Y3439378D02*
G01X221097Y3359381D01*
G01X363111Y3495424D02*
G01X363111Y3575421D01*
G01X363063Y3439378D02*
G01X363063Y3359381D01*
G01X252125Y3606396D02*
G01X332130Y3606396D01*
G01X332077Y3328403D02*
G01X252075Y3328403D01*
G01X363063Y3359386D02*
G02X332077Y3328403I-30983J0D01*
G01X252080Y3328403D02*
G02X221097Y3359386I0J30983D01*
G01X221143Y3575416D02*
G02X252125Y3606396I30983J-3D01*
G01X332123Y3606396D02*
G02X363111Y3575416I5J-30983D01*
G01X5074757Y1318181D02*
G01X5074757Y1238184D01*
G01X5074803Y1374226D02*
G01X5074803Y1454224D01*
G01X4932789Y1318181D02*
G01X4932789Y1238184D01*
G01X4932837Y1374226D02*
G01X4932837Y1454224D01*
G01X5043775Y1207209D02*
G01X4963770Y1207209D01*
G01X4963823Y1485202D02*
G01X5043825Y1485202D01*
G01X4932837Y1454219D02*
G02X4963823Y1485202I30983J0D01*
G01X5043820Y1485202D02*
G02X5074803Y1454219I0J-30983D01*
G01X5074757Y1238189D02*
G02X5043775Y1207209I-30983J3D01*
G01X4963777Y1207209D02*
G02X4932789Y1238189I-5J30983D01*
G01X-30451Y2908901D02*
G01X-30451Y2828903D01*
G01X-30406Y2964946D02*
G01X-30406Y3044943D01*
G01X-172420Y2908901D02*
G01X-172420Y2828903D01*
G01X-172371Y2964946D02*
G01X-172371Y3044943D01*
G01X-61434Y2797928D02*
G01X-141439Y2797928D01*
G01X-141386Y3075921D02*
G01X-61383Y3075921D01*
G01X-172371Y3044938D02*
G02X-141386Y3075921I30983J0D01*
G01X-61388Y3075921D02*
G02X-30406Y3044938I0J-30983D01*
G01X-30451Y2828908D02*
G02X-61434Y2797928I-30983J3D01*
G01X-141432Y2797928D02*
G02X-172420Y2828908I-5J30983D01*
G01X-210459Y2914124D02*
G01X-210459Y2834127D01*
G01X-210413Y2970169D02*
G01X-210413Y3050166D01*
G01X-352427Y2914124D02*
G01X-352427Y2834127D01*
G01X-352379Y2970169D02*
G01X-352379Y3050166D01*
G01X-241441Y2803151D02*
G01X-321446Y2803151D01*
G01X-321393Y3081144D02*
G01X-241391Y3081144D01*
G01X-352379Y3050161D02*
G02X-321393Y3081144I30983J0D01*
G01X-241396Y3081144D02*
G02X-210413Y3050161I0J-30983D01*
G01X-210459Y2834132D02*
G02X-241441Y2803151I-30983J3D01*
G01X-321439Y2803151D02*
G02X-352427Y2834132I-5J30983D01*
G01X-401157Y1907619D02*
G01X-401157Y1987616D01*
G01X-401203Y1851574D02*
G01X-401203Y1771576D01*
G01X-259189Y1907619D02*
G01X-259189Y1987616D01*
G01X-259237Y1851574D02*
G01X-259237Y1771576D01*
G01X-370175Y2018591D02*
G01X-290170Y2018591D01*
G01X-290223Y1740599D02*
G01X-370225Y1740599D01*
G01X-259237Y1771581D02*
G02X-290223Y1740599I-30983J0D01*
G01X-370220Y1740599D02*
G02X-401203Y1771581I0J30983D01*
G01X-401157Y1987611D02*
G02X-370175Y2018591I30983J-3D01*
G01X-290177Y2018591D02*
G02X-259189Y1987611I5J-30983D01*
G01X-223357Y1907619D02*
G01X-223357Y1987616D01*
G01X-223403Y1851574D02*
G01X-223403Y1771576D01*
G01X-81389Y1907619D02*
G01X-81389Y1987616D01*
G01X-81437Y1851574D02*
G01X-81437Y1771576D01*
G01X-192375Y2018591D02*
G01X-112370Y2018591D01*
G01X-112423Y1740599D02*
G01X-192425Y1740599D01*
G01X-81437Y1771581D02*
G02X-112423Y1740599I-30983J0D01*
G01X-192420Y1740599D02*
G02X-223403Y1771581I0J30983D01*
G01X-223357Y1987611D02*
G02X-192375Y2018591I30983J-3D01*
G01X-112377Y2018591D02*
G02X-81389Y1987611I5J-30983D01*
G01X-45557Y1907619D02*
G01X-45557Y1987616D01*
G01X-45603Y1851574D02*
G01X-45603Y1771576D01*
G01X96411Y1907619D02*
G01X96411Y1987616D01*
G01X96363Y1851574D02*
G01X96363Y1771576D01*
G01X-14575Y2018591D02*
G01X65430Y2018591D01*
G01X65377Y1740599D02*
G01X-14625Y1740599D01*
G01X96363Y1771581D02*
G02X65377Y1740599I-30983J0D01*
G01X-14620Y1740599D02*
G02X-45603Y1771581I0J30983D01*
G01X-45557Y1987611D02*
G02X-14575Y2018591I30983J-3D01*
G01X65423Y2018591D02*
G02X96411Y1987611I5J-30983D01*
G01X132243Y1907619D02*
G01X132243Y1987616D01*
G01X132197Y1851574D02*
G01X132197Y1771576D01*
G01X274211Y1907619D02*
G01X274211Y1987616D01*
G01X274163Y1851574D02*
G01X274163Y1771576D01*
G01X163225Y2018591D02*
G01X243230Y2018591D01*
G01X243177Y1740599D02*
G01X163175Y1740599D01*
G01X274163Y1771581D02*
G02X243177Y1740599I-30983J0D01*
G01X163180Y1740599D02*
G02X132197Y1771581I0J30983D01*
G01X132243Y1987611D02*
G02X163225Y2018591I30983J-3D01*
G01X243223Y2018591D02*
G02X274211Y1987611I5J-30983D01*
G54D10*
G01X190523Y3509920D02*
G01X190523Y3605808D01*
G01X190523Y3605808D02*
G01X58402Y3605808D01*
G01X58402Y3605808D02*
G01X58402Y3509920D01*
G01X190523Y3424678D02*
G01X190523Y3328790D01*
G01X190523Y3328790D02*
G01X58402Y3328790D01*
G01X58402Y3328790D02*
G01X58402Y3424678D01*
G01X-111740Y3522421D02*
G01X-111740Y3618309D01*
G01X-111740Y3618309D02*
G01X-243860Y3618309D01*
G01X-243860Y3618309D02*
G01X-243860Y3522421D01*
G01X-111740Y3437179D02*
G01X-111740Y3341291D01*
G01X-111740Y3341291D02*
G01X-243860Y3341291D01*
G01X-243860Y3341291D02*
G01X-243860Y3437179D01*
G01X-5699740Y906221D02*
G01X-5699740Y1002109D01*
G01X-5699740Y1002109D02*
G01X-5831860Y1002109D01*
G01X-5831860Y1002109D02*
G01X-5831860Y906221D01*
G01X-5699740Y820979D02*
G01X-5699740Y725091D01*
G01X-5699740Y725091D02*
G01X-5831860Y725091D01*
G01X-5831860Y725091D02*
G01X-5831860Y820979D01*
G01X-5539760Y806552D02*
G01X-5539760Y710664D01*
G01X-5539760Y710664D02*
G01X-5407640Y710664D01*
G01X-5407640Y710664D02*
G01X-5407640Y806552D01*
G01X-5539760Y891794D02*
G01X-5539760Y987682D01*
G01X-5539760Y987682D02*
G01X-5407640Y987682D01*
G01X-5407640Y987682D02*
G01X-5407640Y891794D01*
G54D11*
G01X255062Y2635604D02*
G01X255062Y2555604D01*
G01X255062Y2375605D02*
G01X255062Y2455605D01*
G01X-194939Y2635604D02*
G01X-191050Y2635604D01*
G01X255062Y2635604D02*
G01X251176Y2635604D01*
G01X-191050Y2375605D02*
G01X-194939Y2375605D01*
G01X255062Y2375605D02*
G01X251174Y2375605D01*
G01X-194939Y2375605D02*
G01X-194939Y2635604D01*
G01X255062Y2555604D02*
G03X255106Y2455567I377J-50019D01*
G01X-457208Y4076695D02*
G01X-457208Y3877300D01*
G01X-457208Y4419597D02*
G01X-457208Y4272300D01*
G01X449991Y4076383D02*
G01X449991Y3877610D01*
G01X449991Y4434497D02*
G01X449991Y4272613D01*
G01X-450007Y4434497D02*
G01X449991Y4434497D01*
G01X-5181592Y254005D02*
G01X-5181592Y453400D01*
G01X-5181592Y-88897D02*
G01X-5181592Y58400D01*
G01X-6088791Y254318D02*
G01X-6088791Y453090D01*
G01X-6088791Y-103797D02*
G01X-6088791Y58087D01*
G01X-5188793Y-103797D02*
G01X-6088791Y-103797D01*
G01X6019800Y346776D02*
G01X6019800Y914400D01*
G01X6019800Y914400D02*
G01X5788513Y914400D01*
G01X4699000Y-6568D02*
G01X4699000Y-88900D01*
G01X4699000Y-88900D02*
G01X6019800Y-88900D01*
G01X6019800Y-88900D02*
G01X6019800Y-6568D01*
G01X4930287Y914397D02*
G01X4699000Y914397D01*
G01X4699000Y914397D02*
G01X4699000Y346776D01*
G01X5538513Y914397D02*
G01X5630286Y914397D01*
G01X5338514Y914397D02*
G01X5380286Y914397D01*
G01X5088514Y914397D02*
G01X5180287Y914397D01*
G01X5617207Y322557D02*
G01X5820209Y322557D01*
G01X5603210Y443573D02*
G01X5829224Y443573D01*
G01X4929101Y332466D02*
G01X5132095Y332466D01*
G01X4915103Y453464D02*
G01X5141112Y453464D01*
G01X5209921Y679991D02*
G01X5174364Y105938D01*
G01X5174364Y105938D02*
G01X4884798Y105938D01*
G01X4884798Y105938D02*
G01X4836541Y679991D01*
G01X4836541Y679991D02*
G01X4887341Y679991D01*
G01X4887341Y679991D02*
G01X4937862Y166474D01*
G01X4937862Y166474D02*
G01X5112890Y166474D01*
G01X5112890Y166474D02*
G01X5171821Y679991D01*
G01X5171821Y679991D02*
G01X5209921Y679991D01*
G01X5892800Y673097D02*
G01X5857999Y99438D01*
G01X5857999Y99438D02*
G01X5569476Y99934D01*
G01X5569476Y99934D02*
G01X5519979Y673438D01*
G01X5519979Y673438D02*
G01X5570852Y673047D01*
G01X5570852Y673047D02*
G01X5621884Y219022D01*
G01X5621884Y219022D02*
G01X5629399Y151199D01*
G01X5629399Y151199D02*
G01X5804383Y152278D01*
G01X5804383Y152278D02*
G01X5851779Y630098D01*
G01X5851779Y630098D02*
G01X5854774Y673097D01*
G01X5854774Y673097D02*
G01X5892800Y673097D01*
G01X-1739900Y346776D02*
G01X-1739900Y914400D01*
G01X-1739900Y914400D02*
G01X-1971187Y914400D01*
G01X-3060700Y-6568D02*
G01X-3060700Y-88900D01*
G01X-3060700Y-88900D02*
G01X-1739900Y-88900D01*
G01X-1739900Y-88900D02*
G01X-1739900Y-6568D01*
G01X-2829413Y914397D02*
G01X-3060700Y914397D01*
G01X-3060700Y914397D02*
G01X-3060700Y346776D01*
G01X-2221187Y914397D02*
G01X-2129414Y914397D01*
G01X-2421186Y914397D02*
G01X-2379414Y914397D01*
G01X-2671186Y914397D02*
G01X-2579413Y914397D01*
G01X-2142493Y322557D02*
G01X-1939491Y322557D01*
G01X-2156490Y443573D02*
G01X-1930476Y443573D01*
G01X-2830599Y332466D02*
G01X-2627605Y332466D01*
G01X-2844597Y453464D02*
G01X-2618588Y453464D01*
G01X-2549779Y679991D02*
G01X-2585336Y105938D01*
G01X-2585336Y105938D02*
G01X-2874902Y105938D01*
G01X-2874902Y105938D02*
G01X-2923159Y679991D01*
G01X-2923159Y679991D02*
G01X-2872359Y679991D01*
G01X-2872359Y679991D02*
G01X-2821838Y166474D01*
G01X-2821838Y166474D02*
G01X-2646810Y166474D01*
G01X-2646810Y166474D02*
G01X-2587879Y679991D01*
G01X-2587879Y679991D02*
G01X-2549779Y679991D01*
G01X-1866900Y673097D02*
G01X-1901701Y99438D01*
G01X-1901701Y99438D02*
G01X-2190224Y99934D01*
G01X-2190224Y99934D02*
G01X-2239721Y673438D01*
G01X-2239721Y673438D02*
G01X-2188848Y673047D01*
G01X-2188848Y673047D02*
G01X-2137816Y219022D01*
G01X-2137816Y219022D02*
G01X-2130301Y151199D01*
G01X-2130301Y151199D02*
G01X-1955317Y152278D01*
G01X-1955317Y152278D02*
G01X-1907921Y630098D01*
G01X-1907921Y630098D02*
G01X-1904926Y673097D01*
G01X-1904926Y673097D02*
G01X-1866900Y673097D01*
G01X2705100Y346776D02*
G01X2705100Y914400D01*
G01X2705100Y914400D02*
G01X2473813Y914400D01*
G01X1384300Y-6568D02*
G01X1384300Y-88900D01*
G01X1384300Y-88900D02*
G01X2705100Y-88900D01*
G01X2705100Y-88900D02*
G01X2705100Y-6568D01*
G01X1615587Y914397D02*
G01X1384300Y914397D01*
G01X1384300Y914397D02*
G01X1384300Y346776D01*
G01X2223813Y914397D02*
G01X2315586Y914397D01*
G01X2023814Y914397D02*
G01X2065586Y914397D01*
G01X1773814Y914397D02*
G01X1865587Y914397D01*
G01X2302507Y322557D02*
G01X2505509Y322557D01*
G01X2288510Y443573D02*
G01X2514524Y443573D01*
G01X1614401Y332466D02*
G01X1817395Y332466D01*
G01X1600403Y453464D02*
G01X1826412Y453464D01*
G01X1895221Y679991D02*
G01X1859664Y105938D01*
G01X1859664Y105938D02*
G01X1570098Y105938D01*
G01X1570098Y105938D02*
G01X1521841Y679991D01*
G01X1521841Y679991D02*
G01X1572641Y679991D01*
G01X1572641Y679991D02*
G01X1623162Y166474D01*
G01X1623162Y166474D02*
G01X1798190Y166474D01*
G01X1798190Y166474D02*
G01X1857121Y679991D01*
G01X1857121Y679991D02*
G01X1895221Y679991D01*
G01X2578100Y673097D02*
G01X2543299Y99438D01*
G01X2543299Y99438D02*
G01X2254776Y99934D01*
G01X2254776Y99934D02*
G01X2205279Y673438D01*
G01X2205279Y673438D02*
G01X2256152Y673047D01*
G01X2256152Y673047D02*
G01X2307184Y219022D01*
G01X2307184Y219022D02*
G01X2314699Y151199D01*
G01X2314699Y151199D02*
G01X2489683Y152278D01*
G01X2489683Y152278D02*
G01X2537079Y630098D01*
G01X2537079Y630098D02*
G01X2540074Y673097D01*
G01X2540074Y673097D02*
G01X2578100Y673097D01*

G04 Circle Start*
G01X249543Y2691609D02*
G03X274587Y2691609I12522J0D01*
G03X249543Y2691609I-12522J0D01*
G04 Circle End*

M02*

