G04 Layer: BottomLayer*
G04 EasyEDA Pro v3.2.148, 2026-09-02 20:01:09*
G04 Gerber Generator version 0.3*
G04 Scale: 100 percent, Rotated: No, Reflected: No*
G04 Dimensions in millimeters*
G04 Leading zeros omitted, absolute positions, 4 integers and 5 decimals*
G04 Generated by one-click*
G04 Object Configs: Pad,Via,Track,Text,Image,Dimension,BoardOutline,BoardCutout,CopperFilled,SolidRegion,FPCStiffener,Line,PlaneZone,ComponentProperty,ComponentSilkscreen,TearDrop*
G04 Layer Configs: 1,2,3,4,5,6,7,8,9,10,11,13,14,56*
G04 Copper Areas: 47*
%FSLAX45Y45*%
%MOMM*%
%ADD10C,0.2032*%
%ADD11C,0.254*%
%ADD12O,1.1X2.0*%
%ADD13O,1.2X1.8*%
%ADD14O,1.2X2.49999*%
%ADD15C,0.6164*%
%ADD16C,0.61*%
G75*


G04 Copper Start*
G36*
G01X-5262387Y48514D02*
G01X-6015213Y48514D01*
G01X-6001611Y60441D01*
G01X-5990493Y74712D01*
G01X-5982255Y90819D01*
G01X-5977193Y108187D01*
G01X-5975485Y126197D01*
G01X-5975485Y186197D01*
G01X-5977326Y204890D01*
G01X-5982778Y222864D01*
G01X-5991632Y239429D01*
G01X-6003548Y253948D01*
G01X-6018067Y265864D01*
G01X-6034632Y274718D01*
G01X-6052606Y280170D01*
G01X-6071298Y282011D01*
G01X-6089991Y280170D01*
G01X-6107965Y274718D01*
G01X-6124530Y265864D01*
G01X-6139049Y253948D01*
G01X-6150965Y239429D01*
G01X-6159819Y222864D01*
G01X-6165271Y204890D01*
G01X-6167112Y186197D01*
G01X-6167112Y126197D01*
G01X-6165404Y108187D01*
G01X-6160342Y90819D01*
G01X-6152104Y74712D01*
G01X-6140986Y60441D01*
G01X-6127384Y48514D01*
G01X-6288786Y48514D01*
G01X-6288786Y621212D01*
G01X-6162112Y621212D01*
G01X-6162112Y531212D01*
G01X-6160193Y512641D01*
G01X-6154517Y494855D01*
G01X-6145324Y478606D01*
G01X-6133002Y464580D01*
G01X-6118073Y453370D01*
G01X-6101166Y445450D01*
G01X-6082998Y441155D01*
G01X-6064334Y440665D01*
G01X-6045966Y444003D01*
G01X-6028667Y451026D01*
G01X-6013171Y461438D01*
G01X-6000131Y474799D01*
G01X-5990099Y490545D01*
G01X-5980795Y477234D01*
G01X-5968703Y466393D01*
G01X-5954459Y458591D01*
G01X-5938812Y454241D01*
G01X-5922585Y453569D01*
G01X-5906632Y456611D01*
G01X-5891792Y463208D01*
G01X-5878845Y473013D01*
G01X-5868473Y485509D01*
G01X-5861219Y500040D01*
G01X-5857467Y515841D01*
G01X-5857414Y532073D01*
G01X-5420161Y532073D01*
G01X-5420106Y515836D01*
G01X-5416354Y500038D01*
G01X-5409103Y485510D01*
G01X-5398732Y473015D01*
G01X-5385788Y463212D01*
G01X-5370952Y456614D01*
G01X-5355002Y453570D01*
G01X-5338778Y454238D01*
G01X-5323133Y458584D01*
G01X-5308890Y466380D01*
G01X-5296796Y477215D01*
G01X-5287489Y490520D01*
G01X-5277453Y474780D01*
G01X-5264411Y461424D01*
G01X-5248914Y451016D01*
G01X-5231616Y443998D01*
G01X-5213249Y440664D01*
G01X-5194588Y441157D01*
G01X-5176422Y445454D01*
G01X-5159518Y453375D01*
G01X-5144592Y464586D01*
G01X-5132272Y478611D01*
G01X-5123081Y494859D01*
G01X-5117406Y512643D01*
G01X-5115488Y531212D01*
G01X-5115488Y531212D01*
G01X-5115488Y621212D01*
G01X-5117472Y640093D01*
G01X-5123339Y658149D01*
G01X-5132832Y674591D01*
G01X-5145535Y688699D01*
G01X-5160895Y699859D01*
G01X-5178238Y707581D01*
G01X-5196809Y711528D01*
G01X-5215794Y711528D01*
G01X-5234365Y707581D01*
G01X-5251708Y699859D01*
G01X-5267068Y688699D01*
G01X-5279771Y674591D01*
G01X-5289264Y658149D01*
G01X-5295131Y640093D01*
G01X-5297115Y621212D01*
G01X-5297115Y571527D01*
G01X-5309282Y582280D01*
G01X-5323578Y589980D01*
G01X-5339252Y594220D01*
G01X-5355480Y594778D01*
G01X-5371408Y591626D01*
G01X-5386200Y584928D01*
G01X-5399077Y575037D01*
G01X-5409363Y562473D01*
G01X-5416516Y547896D01*
G01X-5420161Y532073D01*
G01X-5857414Y532073D01*
G01X-5857414Y532081D01*
G01X-5861062Y547907D01*
G01X-5868219Y562485D01*
G01X-5878510Y575049D01*
G01X-5891392Y584938D01*
G01X-5906188Y591633D01*
G01X-5922121Y594781D01*
G01X-5938351Y594216D01*
G01X-5954026Y589968D01*
G01X-5968321Y582260D01*
G01X-5980485Y571499D01*
G01X-5980485Y621212D01*
G01X-5980485Y621212D01*
G01X-5982469Y640093D01*
G01X-5988336Y658149D01*
G01X-5997829Y674591D01*
G01X-6010532Y688699D01*
G01X-6025892Y699859D01*
G01X-6043235Y707581D01*
G01X-6061806Y711528D01*
G01X-6080791Y711528D01*
G01X-6099362Y707581D01*
G01X-6116705Y699859D01*
G01X-6132065Y688699D01*
G01X-6144768Y674591D01*
G01X-6154261Y658149D01*
G01X-6160128Y640093D01*
G01X-6162112Y621212D01*
G01X-6288786Y621212D01*
G01X-6288786Y1261434D01*
G01X-2476754Y1261434D01*
G01X-2476754Y1202366D01*
G01X-2475101Y1189810D01*
G01X-2470254Y1178109D01*
G01X-2462545Y1168062D01*
G01X-2425198Y1130715D01*
G01X-2438713Y1122776D01*
G01X-2449986Y1111886D01*
G01X-2458389Y1098655D01*
G01X-2463451Y1083821D01*
G01X-2464891Y1068213D01*
G01X-2462627Y1052704D01*
G01X-2456787Y1038159D01*
G01X-2447695Y1025391D01*
G01X-2435861Y1015113D01*
G01X-2435861Y1015113D01*
G01X-2421945Y1007900D01*
G01X-2406726Y1004155D01*
G01X-2391052Y1004086D01*
G01X-2375800Y1007698D01*
G01X-2361821Y1014789D01*
G01X-2349898Y1024962D01*
G01X-2340695Y1037650D01*
G01X-2334727Y1052144D01*
G01X-2332327Y1067633D01*
G01X-2293101Y1106859D01*
G01X-2285391Y1116907D01*
G01X-2280545Y1128607D01*
G01X-2278892Y1141164D01*
G01X-2278892Y1160599D01*
G01X-2279955Y1170703D01*
G01X-2283100Y1180363D01*
G01X-2288187Y1189156D01*
G01X-2282494Y1198307D01*
G01X-2278962Y1208489D01*
G01X-2277765Y1219200D01*
G01X-2277765Y1219867D01*
G01X-2262631Y1223797D01*
G01X-2248838Y1231162D01*
G01X-2237153Y1241552D01*
G01X-2228225Y1254388D01*
G01X-2222551Y1268959D01*
G01X-2220447Y1284453D01*
G01X-2222029Y1300008D01*
G01X-2227209Y1314762D01*
G01X-2235699Y1327892D01*
G01X-1381369Y2182222D01*
G01X129139Y2182222D01*
G01X124752Y2171958D01*
G01X122150Y2161102D01*
G01X106468Y2156691D01*
G01X92335Y2148590D01*
G01X80603Y2137288D01*
G01X71981Y2123467D01*
G01X66989Y2107961D01*
G01X65927Y2091705D01*
G01X68860Y2075681D01*
G01X75612Y2060856D01*
G01X85773Y2048124D01*
G01X98733Y2038253D01*
G01X113707Y2031840D01*
G01X129794Y2029271D01*
G01X137352Y2021712D01*
G01X147400Y2014002D01*
G01X159101Y2009156D01*
G01X171657Y2007502D01*
G01X178404Y2007502D01*
G01X194058Y1991848D01*
G01X204106Y1984138D01*
G01X215806Y1979292D01*
G01X228363Y1977639D01*
G01X481052Y1977639D01*
G01X1435238Y1023453D01*
G01X1435238Y1016707D01*
G01X1436891Y1004150D01*
G01X1441738Y992450D01*
G01X1449447Y982402D01*
G01X1457006Y974843D01*
G01X1459575Y958757D01*
G01X1465989Y943782D01*
G01X1475859Y930823D01*
G01X1488591Y920661D01*
G01X1503417Y913910D01*
G01X1519440Y910976D01*
G01X1535696Y912038D01*
G01X1551202Y917031D01*
G01X1565023Y925653D01*
G01X1576326Y937384D01*
G01X1584427Y951517D01*
G01X1588838Y967199D01*
G01X1604519Y971610D01*
G01X1618652Y979711D01*
G01X1630384Y991013D01*
G01X1639006Y1004835D01*
G01X1643999Y1020341D01*
G01X1645061Y1036596D01*
G01X1642127Y1052620D01*
G01X1635376Y1067445D01*
G01X1625214Y1080178D01*
G01X1612255Y1090048D01*
G01X1597280Y1096461D01*
G01X1581194Y1099031D01*
G01X1573635Y1106589D01*
G01X1563587Y1114299D01*
G01X1551887Y1119146D01*
G01X1539330Y1120799D01*
G01X1532584Y1120799D01*
G01X552286Y2101097D01*
G01X542238Y2108807D01*
G01X530537Y2113654D01*
G01X517981Y2115307D01*
G01X275607Y2115307D01*
G01X273395Y2126526D01*
G01X268617Y2136916D01*
G01X261540Y2145900D01*
G01X253981Y2153458D01*
G01X251765Y2168278D01*
G01X246277Y2182222D01*
G01X300336Y2182222D01*
G01X312893Y2183875D01*
G01X324593Y2188722D01*
G01X334641Y2196432D01*
G01X350295Y2212086D01*
G01X357042Y2212086D01*
G01X369598Y2213739D01*
G01X381299Y2218586D01*
G01X391346Y2226295D01*
G01X398905Y2233854D01*
G01X414991Y2236423D01*
G01X429966Y2242837D01*
G01X442925Y2252707D01*
G01X453087Y2265439D01*
G01X459838Y2280265D01*
G01X462772Y2296289D01*
G01X461710Y2312544D01*
G01X456718Y2328050D01*
G01X448095Y2341872D01*
G01X436364Y2353174D01*
G01X422231Y2361275D01*
G01X406549Y2365686D01*
G01X402138Y2381368D01*
G01X394037Y2395501D01*
G01X382735Y2407232D01*
G01X368914Y2415854D01*
G01X353407Y2420847D01*
G01X337152Y2421909D01*
G01X321128Y2418975D01*
G01X306303Y2412224D01*
G01X293571Y2402062D01*
G01X283700Y2389103D01*
G01X277287Y2374128D01*
G01X274718Y2358042D01*
G01X267159Y2350483D01*
G01X260082Y2341500D01*
G01X255304Y2331110D01*
G01X253091Y2319890D01*
G01X-1418297Y2319890D01*
G01X-1430854Y2318237D01*
G01X-1442554Y2313391D01*
G01X-1452602Y2305681D01*
G01X-2462545Y1295738D01*
G01X-2470254Y1285691D01*
G01X-2475101Y1273990D01*
G01X-2476754Y1261434D01*
G01X-6288786Y1261434D01*
G01X-6288786Y2974086D01*
G01X-1016000Y2974086D01*
G01X-1004933Y2975839D01*
G01X-994949Y2980926D01*
G01X-987026Y2988849D01*
G01X-981939Y2998833D01*
G01X-980186Y3009900D01*
G01X-980186Y3799488D01*
G01X-523312Y3799488D01*
G01X-523312Y3709488D01*
G01X-521328Y3690607D01*
G01X-515461Y3672551D01*
G01X-505968Y3656109D01*
G01X-493265Y3642001D01*
G01X-477905Y3630841D01*
G01X-460562Y3623119D01*
G01X-441991Y3619172D01*
G01X-423006Y3619172D01*
G01X-404435Y3623119D01*
G01X-387092Y3630841D01*
G01X-371732Y3642001D01*
G01X-359029Y3656109D01*
G01X-349536Y3672551D01*
G01X-343669Y3690607D01*
G01X-341685Y3709488D01*
G01X-341685Y3759173D01*
G01X-329518Y3748420D01*
G01X-315222Y3740720D01*
G01X-299548Y3736480D01*
G01X-283320Y3735922D01*
G01X-267392Y3739074D01*
G01X-252600Y3745772D01*
G01X-239723Y3755663D01*
G01X-229437Y3768227D01*
G01X-222284Y3782804D01*
G01X-218640Y3798619D01*
G01X218614Y3798619D01*
G01X222262Y3782793D01*
G01X229419Y3768215D01*
G01X239710Y3755651D01*
G01X252592Y3745762D01*
G01X267388Y3739067D01*
G01X283321Y3735919D01*
G01X299551Y3736484D01*
G01X315226Y3740732D01*
G01X329521Y3748440D01*
G01X341685Y3759201D01*
G01X341685Y3709488D01*
G01X343669Y3690607D01*
G01X349536Y3672551D01*
G01X359029Y3656109D01*
G01X371732Y3642001D01*
G01X387092Y3630841D01*
G01X404435Y3623119D01*
G01X423006Y3619172D01*
G01X441991Y3619172D01*
G01X460562Y3623119D01*
G01X477905Y3630841D01*
G01X493265Y3642001D01*
G01X505968Y3656109D01*
G01X515461Y3672551D01*
G01X521328Y3690607D01*
G01X523312Y3709488D01*
G01X523312Y3799488D01*
G01X521393Y3818059D01*
G01X515717Y3835845D01*
G01X506524Y3852094D01*
G01X494202Y3866120D01*
G01X479273Y3877330D01*
G01X462366Y3885250D01*
G01X444198Y3889545D01*
G01X425534Y3890035D01*
G01X407166Y3886697D01*
G01X389867Y3879674D01*
G01X374371Y3869262D01*
G01X361331Y3855901D01*
G01X351299Y3840155D01*
G01X341995Y3853466D01*
G01X329903Y3864307D01*
G01X315659Y3872109D01*
G01X300012Y3876459D01*
G01X283785Y3877131D01*
G01X267832Y3874089D01*
G01X252992Y3867492D01*
G01X240045Y3857687D01*
G01X229673Y3845191D01*
G01X222419Y3830660D01*
G01X218667Y3814859D01*
G01X218667Y3814859D01*
G01X218614Y3798619D01*
G01X-218640Y3798619D01*
G01X-218639Y3798627D01*
G01X-218694Y3814864D01*
G01X-222446Y3830662D01*
G01X-229697Y3845190D01*
G01X-240068Y3857685D01*
G01X-253012Y3867488D01*
G01X-267848Y3874086D01*
G01X-283798Y3877130D01*
G01X-300022Y3876462D01*
G01X-315667Y3872116D01*
G01X-329910Y3864320D01*
G01X-342004Y3853485D01*
G01X-351311Y3840180D01*
G01X-361347Y3855920D01*
G01X-374389Y3869276D01*
G01X-389886Y3879684D01*
G01X-407184Y3886702D01*
G01X-425551Y3890036D01*
G01X-444212Y3889543D01*
G01X-462378Y3885246D01*
G01X-479282Y3877325D01*
G01X-494208Y3866114D01*
G01X-506528Y3852089D01*
G01X-515719Y3835841D01*
G01X-521394Y3818057D01*
G01X-523312Y3799488D01*
G01X-523312Y3799488D01*
G01X-980186Y3799488D01*
G01X-980186Y4282186D01*
G01X-488584Y4282186D01*
G01X-502186Y4270259D01*
G01X-513304Y4255988D01*
G01X-521542Y4239881D01*
G01X-526604Y4222513D01*
G01X-528312Y4204503D01*
G01X-528312Y4144503D01*
G01X-526471Y4125810D01*
G01X-521019Y4107836D01*
G01X-512165Y4091271D01*
G01X-500249Y4076752D01*
G01X-485730Y4064836D01*
G01X-469165Y4055982D01*
G01X-451191Y4050530D01*
G01X-432498Y4048689D01*
G01X-413806Y4050530D01*
G01X-395832Y4055982D01*
G01X-379267Y4064836D01*
G01X-364748Y4076752D01*
G01X-352832Y4091271D01*
G01X-343978Y4107836D01*
G01X-338526Y4125810D01*
G01X-336685Y4144503D01*
G01X-336685Y4204503D01*
G01X-338393Y4222513D01*
G01X-343455Y4239881D01*
G01X-351693Y4255988D01*
G01X-362811Y4270259D01*
G01X-376413Y4282186D01*
G01X376413Y4282186D01*
G01X362811Y4270259D01*
G01X351693Y4255988D01*
G01X343455Y4239881D01*
G01X338393Y4222513D01*
G01X336685Y4204503D01*
G01X336685Y4144503D01*
G01X338526Y4125810D01*
G01X343978Y4107836D01*
G01X352832Y4091271D01*
G01X364748Y4076752D01*
G01X379267Y4064836D01*
G01X395832Y4055982D01*
G01X413806Y4050530D01*
G01X432499Y4048689D01*
G01X451191Y4050530D01*
G01X469165Y4055982D01*
G01X485730Y4064836D01*
G01X500249Y4076752D01*
G01X512165Y4091271D01*
G01X521019Y4107836D01*
G01X526471Y4125810D01*
G01X528312Y4144503D01*
G01X528312Y4204503D01*
G01X526604Y4222513D01*
G01X521542Y4239881D01*
G01X513304Y4255988D01*
G01X502186Y4270259D01*
G01X488584Y4282186D01*
G01X967486Y4282186D01*
G01X967486Y3014154D01*
G01X969237Y3003094D01*
G01X974318Y2993115D01*
G01X982232Y2985193D01*
G01X992206Y2980102D01*
G01X1003265Y2978340D01*
G01X6250317Y2973187D01*
G01X6225265Y48514D01*
G01X6081724Y48514D01*
G01X6089663Y61381D01*
G01X6095480Y75336D01*
G01X6099029Y90032D01*
G01X6100221Y105104D01*
G01X6100221Y235104D01*
G01X6098380Y253796D01*
G01X6092928Y271770D01*
G01X6084074Y288335D01*
G01X6072158Y302854D01*
G01X6057639Y314770D01*
G01X6041074Y323624D01*
G01X6023100Y329077D01*
G01X6004408Y330918D01*
G01X5985715Y329077D01*
G01X5967741Y323624D01*
G01X5951176Y314770D01*
G01X5936657Y302854D01*
G01X5924741Y288335D01*
G01X5915887Y271770D01*
G01X5910435Y253796D01*
G01X5908594Y235104D01*
G01X5908594Y105104D01*
G01X5909787Y90032D01*
G01X5913335Y75336D01*
G01X5919152Y61381D01*
G01X5927091Y48514D01*
G01X4791709Y48514D01*
G01X4799648Y61381D01*
G01X4805465Y75336D01*
G01X4809013Y90032D01*
G01X4810206Y105104D01*
G01X4810206Y235104D01*
G01X4808365Y253796D01*
G01X4802913Y271770D01*
G01X4794059Y288335D01*
G01X4782143Y302854D01*
G01X4767624Y314770D01*
G01X4751059Y323624D01*
G01X4733085Y329077D01*
G01X4714392Y330918D01*
G01X4695700Y329077D01*
G01X4677726Y323624D01*
G01X4661161Y314770D01*
G01X4646642Y302854D01*
G01X4634726Y288335D01*
G01X4625872Y271770D01*
G01X4620420Y253796D01*
G01X4618579Y235104D01*
G01X4618579Y105104D01*
G01X4619771Y90032D01*
G01X4623320Y75336D01*
G01X4629137Y61381D01*
G01X4637076Y48514D01*
G01X2767024Y48514D01*
G01X2774963Y61381D01*
G01X2780780Y75336D01*
G01X2784329Y90032D01*
G01X2785521Y105104D01*
G01X2785521Y235104D01*
G01X2783680Y253796D01*
G01X2778228Y271770D01*
G01X2769374Y288335D01*
G01X2757458Y302854D01*
G01X2742939Y314770D01*
G01X2726374Y323624D01*
G01X2708400Y329077D01*
G01X2689708Y330918D01*
G01X2671015Y329077D01*
G01X2653041Y323624D01*
G01X2636476Y314770D01*
G01X2621957Y302854D01*
G01X2610041Y288335D01*
G01X2601187Y271770D01*
G01X2595735Y253796D01*
G01X2593894Y235104D01*
G01X2593894Y105104D01*
G01X2595087Y90032D01*
G01X2598635Y75336D01*
G01X2604452Y61381D01*
G01X2612391Y48514D01*
G01X1477009Y48514D01*
G01X1484948Y61381D01*
G01X1490765Y75336D01*
G01X1494313Y90032D01*
G01X1495506Y105104D01*
G01X1495506Y235104D01*
G01X1493665Y253796D01*
G01X1488213Y271770D01*
G01X1479359Y288335D01*
G01X1467443Y302854D01*
G01X1452924Y314770D01*
G01X1436359Y323624D01*
G01X1418385Y329077D01*
G01X1399692Y330918D01*
G01X1381000Y329077D01*
G01X1363026Y323624D01*
G01X1346461Y314770D01*
G01X1331942Y302854D01*
G01X1320026Y288335D01*
G01X1311172Y271770D01*
G01X1305720Y253796D01*
G01X1303879Y235104D01*
G01X1303879Y105104D01*
G01X1305071Y90032D01*
G01X1308620Y75336D01*
G01X1314437Y61381D01*
G01X1322376Y48514D01*
G01X-1677976Y48514D01*
G01X-1670037Y61381D01*
G01X-1664220Y75336D01*
G01X-1660671Y90032D01*
G01X-1659479Y105104D01*
G01X-1659479Y235104D01*
G01X-1661320Y253796D01*
G01X-1666772Y271770D01*
G01X-1675626Y288335D01*
G01X-1687542Y302854D01*
G01X-1702061Y314770D01*
G01X-1718626Y323624D01*
G01X-1736600Y329077D01*
G01X-1755292Y330918D01*
G01X-1773985Y329077D01*
G01X-1791959Y323624D01*
G01X-1808524Y314770D01*
G01X-1823043Y302854D01*
G01X-1834959Y288335D01*
G01X-1843813Y271770D01*
G01X-1849265Y253796D01*
G01X-1851106Y235104D01*
G01X-1851106Y105104D01*
G01X-1849913Y90032D01*
G01X-1846365Y75336D01*
G01X-1840548Y61381D01*
G01X-1832609Y48514D01*
G01X-2967991Y48514D01*
G01X-2960052Y61381D01*
G01X-2954235Y75336D01*
G01X-2950687Y90032D01*
G01X-2949494Y105104D01*
G01X-2949494Y235104D01*
G01X-2951335Y253796D01*
G01X-2956787Y271770D01*
G01X-2965641Y288335D01*
G01X-2977557Y302854D01*
G01X-2992076Y314770D01*
G01X-3008641Y323624D01*
G01X-3026615Y329077D01*
G01X-3045308Y330918D01*
G01X-3064000Y329077D01*
G01X-3081974Y323624D01*
G01X-3098539Y314770D01*
G01X-3113058Y302854D01*
G01X-3124974Y288335D01*
G01X-3133828Y271770D01*
G01X-3139280Y253796D01*
G01X-3141121Y235104D01*
G01X-3141121Y105104D01*
G01X-3139929Y90032D01*
G01X-3136380Y75336D01*
G01X-3130563Y61381D01*
G01X-3122624Y48514D01*
G01X-5150216Y48514D01*
G01X-5136614Y60441D01*
G01X-5125496Y74712D01*
G01X-5117258Y90819D01*
G01X-5112196Y108187D01*
G01X-5110488Y126197D01*
G01X-5110488Y186197D01*
G01X-5112329Y204890D01*
G01X-5117781Y222864D01*
G01X-5126635Y239429D01*
G01X-5138551Y253948D01*
G01X-5153070Y265864D01*
G01X-5169635Y274718D01*
G01X-5187609Y280170D01*
G01X-5206301Y282011D01*
G01X-5224994Y280170D01*
G01X-5242968Y274718D01*
G01X-5259533Y265864D01*
G01X-5274052Y253948D01*
G01X-5285968Y239429D01*
G01X-5294822Y222864D01*
G01X-5300274Y204890D01*
G01X-5302115Y186197D01*
G01X-5302115Y126197D01*
G01X-5300407Y108187D01*
G01X-5295345Y90819D01*
G01X-5287107Y74712D01*
G01X-5275989Y60441D01*
G01X-5262387Y48514D01*
G37*
G54D10*
G01X-5262387Y48514D02*
G01X-6015213Y48514D01*
G03X-5975485Y126197I-56086J77683D01*
G01X-5975485Y186197D01*
G03X-6167112Y186197I-95814J0D01*
G01X-6167112Y126197D01*
G03X-6127384Y48514I95814J0D01*
G01X-6288786Y48514D01*
G01X-6288786Y2974086D01*
G01X-1016000Y2974086D01*
G03X-980186Y3009900I0J35814D01*
G01X-980186Y4282186D01*
G01X-488584Y4282186D01*
G03X-528312Y4204503I56086J-77683D01*
G01X-528312Y4144503D01*
G03X-336685Y4144503I95814J0D01*
G01X-336685Y4204503D01*
G03X-376413Y4282186I-95814J0D01*
G01X376413Y4282186D01*
G03X336685Y4204503I56086J-77683D01*
G01X336685Y4144503D01*
G03X528312Y4144503I95814J0D01*
G01X528312Y4204503D01*
G03X488584Y4282186I-95814J0D01*
G01X967486Y4282186D01*
G01X967486Y3014154D01*
G03X1003265Y2978340I35814J0D01*
G01X6250317Y2973187D01*
G01X6225265Y48514D01*
G01X6081724Y48514D01*
G03X6100221Y105104I-77317J56590D01*
G01X6100221Y235104D01*
G03X5908594Y235104I-95814J0D01*
G01X5908594Y105104D01*
G03X5927091Y48514I95814J0D01*
G01X4791709Y48514D01*
G03X4810206Y105104I-77317J56590D01*
G01X4810206Y235104D01*
G03X4618579Y235104I-95814J0D01*
G01X4618579Y105104D01*
G03X4637076Y48514I95814J0D01*
G01X2767024Y48514D01*
G03X2785521Y105104I-77317J56590D01*
G01X2785521Y235104D01*
G03X2593894Y235104I-95814J0D01*
G01X2593894Y105104D01*
G03X2612391Y48514I95814J0D01*
G01X1477009Y48514D01*
G03X1495506Y105104I-77317J56590D01*
G01X1495506Y235104D01*
G03X1303879Y235104I-95814J0D01*
G01X1303879Y105104D01*
G03X1322376Y48514I95814J0D01*
G01X-1677976Y48514D01*
G03X-1659479Y105104I-77317J56590D01*
G01X-1659479Y235104D01*
G03X-1851106Y235104I-95814J0D01*
G01X-1851106Y105104D01*
G03X-1832609Y48514I95814J0D01*
G01X-2967991Y48514D01*
G03X-2949494Y105104I-77317J56590D01*
G01X-2949494Y235104D01*
G03X-3141121Y235104I-95814J0D01*
G01X-3141121Y105104D01*
G03X-3122624Y48514I95814J0D01*
G01X-5150216Y48514D01*
G03X-5110488Y126197I-56086J77683D01*
G01X-5110488Y186197D01*
G03X-5302115Y186197I-95814J0D01*
G01X-5302115Y126197D01*
G03X-5262387Y48514I95814J0D01*
G01X-5980485Y621212D02*
G03X-6162112Y621212I-90814J0D01*
G01X-6162112Y531212D01*
G03X-5990099Y490545I90814J0D01*
G03X-5857467Y515841I62311J33648D01*
G03X-5980485Y571499I-70321J8352D01*
G01X-5980485Y621212D01*
G01X-5115488Y531212D02*
G01X-5115488Y621212D01*
G03X-5297115Y621212I-90814J0D01*
G01X-5297115Y571527D01*
G03X-5420106Y515836I-52671J-47335D01*
G03X-5287489Y490520I70320J8357D01*
G03X-5115488Y531212I81187J40692D01*
G01X-2435861Y1015113D02*
G03X-2332327Y1067633I37261J54856D01*
G01X-2293101Y1106859D01*
G03X-2278892Y1141164I-34305J34305D01*
G01X-2278892Y1160599D01*
G03X-2288187Y1189156I-48514J0D01*
G03X-2277765Y1219200I-38092J30044D01*
G01X-2277765Y1219867D01*
G03X-2235699Y1327892I-8987J65702D01*
G01X-1381369Y2182222D01*
G01X129139Y2182222D01*
G03X122150Y2161102I58569J-31100D01*
G03X65927Y2091705I9980J-65559D01*
G03X129794Y2029271I66203J3839D01*
G01X137352Y2021712D01*
G03X171657Y2007502I34305J34305D01*
G01X178404Y2007502D01*
G01X194058Y1991848D01*
G03X228363Y1977639I34305J34305D01*
G01X481052Y1977639D01*
G01X1435238Y1023453D01*
G01X1435238Y1016707D01*
G03X1449447Y982402I48514J0D01*
G01X1457006Y974843D01*
G03X1519440Y910976I66273J2336D01*
G03X1588838Y967199I3839J66203D01*
G03X1645061Y1036596I-9980J65559D01*
G03X1581194Y1099031I-66203J-3839D01*
G01X1573635Y1106589D01*
G03X1539330Y1120799I-34305J-34305D01*
G01X1532584Y1120799D01*
G01X552286Y2101097D01*
G03X517981Y2115307I-34305J-34305D01*
G01X275607Y2115307D01*
G03X261540Y2145900I-48372J-3712D01*
G01X253981Y2153458D01*
G03X246277Y2182222I-66273J-2336D01*
G01X300336Y2182222D01*
G03X334641Y2196432I0J48514D01*
G01X350295Y2212086D01*
G01X357042Y2212086D01*
G03X391346Y2226295I0J48514D01*
G01X398905Y2233854D01*
G03X462772Y2296289I-2336J66273D01*
G03X406549Y2365686I-66203J3839D01*
G03X337152Y2421909I-65559J-9980D01*
G03X274718Y2358042I3839J-66203D01*
G01X267159Y2350483D01*
G03X253091Y2319890I34305J-34305D01*
G01X-1418297Y2319890D01*
G03X-1452602Y2305681I0J-48514D01*
G01X-2462545Y1295738D01*
G03X-2476754Y1261434I34305J-34305D01*
G01X-2476754Y1202366D01*
G03X-2462545Y1168062I48514J0D01*
G01X-2425198Y1130715D01*
G03X-2435861Y1015113I26598J-60746D01*
G01X-523312Y3799488D02*
G01X-523312Y3709488D01*
G03X-341685Y3709488I90814J0D01*
G01X-341685Y3759173D01*
G03X-218694Y3814864I52671J47335D01*
G03X-351311Y3840180I-70320J-8357D01*
G03X-523312Y3799488I-81187J-40692D01*
G01X218667Y3814859D02*
G03X341685Y3759201I70321J-8352D01*
G01X341685Y3709488D01*
G03X523312Y3709488I90814J0D01*
G01X523312Y3799488D01*
G03X351299Y3840155I-90814J0D01*
G03X218667Y3814859I-62311J-33648D01*
G54D11*
G01X-6071298Y576212D02*
G01X-6151952Y576212D01*
G01X-6071298Y576212D02*
G01X-5990645Y576212D01*
G01X-6071298Y576212D02*
G01X-6071298Y701866D01*
G01X-6071298Y576212D02*
G01X-6071298Y450558D01*
G01X-6071298Y156197D02*
G01X-6156952Y156197D01*
G01X-6071298Y156197D02*
G01X-5985645Y156197D01*
G01X-6071298Y156197D02*
G01X-6071298Y271851D01*
G01X-5206301Y576212D02*
G01X-5286955Y576212D01*
G01X-5206301Y576212D02*
G01X-5125648Y576212D01*
G01X-5206301Y576212D02*
G01X-5206301Y701866D01*
G01X-5206301Y576212D02*
G01X-5206301Y450558D01*
G01X-5206301Y156197D02*
G01X-5291955Y156197D01*
G01X-5206301Y156197D02*
G01X-5120648Y156197D01*
G01X-5206301Y156197D02*
G01X-5206301Y271851D01*
G01X-3045308Y170104D02*
G01X-3130961Y170104D01*
G01X-3045308Y170104D02*
G01X-2959654Y170104D01*
G01X-3045308Y170104D02*
G01X-3045308Y320758D01*
G01X-1755292Y170104D02*
G01X-1840946Y170104D01*
G01X-1755292Y170104D02*
G01X-1669639Y170104D01*
G01X-1755292Y170104D02*
G01X-1755292Y320758D01*
G01X-432498Y4174503D02*
G01X-346845Y4174503D01*
G01X-432498Y4174503D02*
G01X-518152Y4174503D01*
G01X-432498Y4174503D02*
G01X-432498Y4058849D01*
G01X-432498Y3754488D02*
G01X-351845Y3754488D01*
G01X-432498Y3754488D02*
G01X-513152Y3754488D01*
G01X-432498Y3754488D02*
G01X-432498Y3628835D01*
G01X-432498Y3754488D02*
G01X-432498Y3880142D01*
G01X432499Y4174503D02*
G01X518152Y4174503D01*
G01X432499Y4174503D02*
G01X346845Y4174503D01*
G01X432499Y4174503D02*
G01X432499Y4058849D01*
G01X432499Y3754488D02*
G01X513152Y3754488D01*
G01X432499Y3754488D02*
G01X351845Y3754488D01*
G01X432499Y3754488D02*
G01X432499Y3628835D01*
G01X432499Y3754488D02*
G01X432499Y3880142D01*
G01X1399692Y170104D02*
G01X1314039Y170104D01*
G01X1399692Y170104D02*
G01X1485346Y170104D01*
G01X1399692Y170104D02*
G01X1399692Y320758D01*
G01X2689708Y170104D02*
G01X2604054Y170104D01*
G01X2689708Y170104D02*
G01X2775361Y170104D01*
G01X2689708Y170104D02*
G01X2689708Y320758D01*
G01X4714392Y170104D02*
G01X4628739Y170104D01*
G01X4714392Y170104D02*
G01X4800046Y170104D01*
G01X4714392Y170104D02*
G01X4714392Y320758D01*
G01X6004408Y170104D02*
G01X5918754Y170104D01*
G01X6004408Y170104D02*
G01X6090061Y170104D01*
G01X6004408Y170104D02*
G01X6004408Y320758D01*
G04 Copper End*

G04 Pad Start*
G54D12*
G01X432499Y3754488D03*
G01X-432498Y3754488D03*
G54D13*
G01X432499Y4174503D03*
G01X-432498Y4174503D03*
G54D12*
G01X-6071298Y576212D03*
G01X-5206301Y576212D03*
G54D13*
G01X-6071298Y156197D03*
G01X-5206301Y156197D03*
G54D14*
G01X6004408Y170104D03*
G01X4714392Y170104D03*
G01X-1755292Y170104D03*
G01X-3045308Y170104D03*
G01X2689708Y170104D03*
G01X1399692Y170104D03*
G04 Pad End*

G04 Via Start*
G54D16*
G01X2400300Y1270000D03*
G01X-2044700Y1308100D03*
G01X-2743200Y1549400D03*
G01X127000Y3213100D03*
G01X279400Y3213100D03*
G01X-177800Y3213100D03*
G01X5715000Y1358900D03*
G01X5003800Y1612900D03*
G01X-330200Y1809598D03*
G01X-152400Y1809598D03*
G01X25400Y1809598D03*
G01X203200Y1809598D03*
G01X-101409Y3006922D03*
G01X-281416Y3012145D03*
G01X-160850Y2685614D03*
G01X-5295900Y882802D03*
G01X187708Y2151122D03*
G01X132130Y2095544D03*
G01X1578858Y1032758D03*
G01X1523279Y977179D03*
G01X1701800Y1428902D03*
G01X340990Y2355706D03*
G01X396569Y2300127D03*
G01X-2286752Y1285569D03*
G01X-2398600Y1069969D03*
G01X3569Y2425700D03*
G04 Via End*

G04 Track Start*
G54D11*
G01X187708Y2151122D02*
G01X227236Y2111595D01*
G01X245196Y2066793D02*
G01X517981Y2066793D01*
G01X132130Y2095544D02*
G01X171657Y2056016D01*
G01X228363Y2026153D02*
G01X501147Y2026153D01*
G01X1539330Y1072285D02*
G01X1578858Y1032758D01*
G01X1483752Y1016707D02*
G01X1523279Y977179D01*
G01X227236Y2111595D02*
G01X227236Y2084753D01*
G01X245196Y2066793D01*
G01X1512489Y1072285D02*
G01X1539330Y1072285D01*
G01X1483752Y1043548D02*
G01X1483752Y1016707D01*
G01X171657Y2056016D02*
G01X198499Y2056016D01*
G01X228363Y2026153D01*
G01X501147Y2026153D02*
G01X1483752Y1043548D01*
G01X517981Y2066793D02*
G01X1512489Y1072285D01*
G01X396569Y2300127D02*
G01X357042Y2260600D01*
G01X300336Y2230736D02*
G01X-1401464Y2230736D01*
G01X340990Y2355706D02*
G01X301463Y2316179D01*
G01X283503Y2271376D02*
G01X-1418297Y2271376D01*
G01X301463Y2316179D02*
G01X301463Y2289337D01*
G01X283503Y2271376D01*
G01X357042Y2260600D02*
G01X330200Y2260600D01*
G01X300336Y2230736D01*
G01X-2387600Y1244600D02*
G01X-2387600Y1219200D01*
G01X-2369639Y1201239D01*
G01X-2344239Y1201239D01*
G01X-2428240Y1261434D02*
G01X-2428240Y1202366D01*
G01X-2386473Y1160599D01*
G01X-2326279Y1246042D02*
G01X-2286752Y1285569D01*
G01X-2344239Y1201239D02*
G01X-2326279Y1219200D01*
G01X-2326279Y1246042D01*
G01X-2386473Y1160599D02*
G01X-2327406Y1160599D01*
G01X-1418297Y2271376D02*
G01X-2428240Y1261434D01*
G01X-1401464Y2230736D02*
G01X-2387600Y1244600D01*
G01X-2327406Y1160599D02*
G01X-2327406Y1141164D01*
G01X-2398600Y1069969D01*
G04 Track End*

M02*

