G04 Layer: TopLayer*
G04 EasyEDA Pro v3.2.148, 2026-09-02 20:01:09*
G04 Gerber Generator version 0.3*
G04 Scale: 100 percent, Rotated: No, Reflected: No*
G04 Dimensions in millimeters*
G04 Leading zeros omitted, absolute positions, 4 integers and 5 decimals*
G04 Generated by one-click*
G04 Object Configs: Pad,Via,Track,Text,Image,Dimension,BoardOutline,BoardCutout,CopperFilled,SolidRegion,FPCStiffener,Line,PlaneZone,ComponentProperty,ComponentSilkscreen,TearDrop*
G04 Layer Configs: 1,2,3,4,5,6,7,8,9,10,11,13,14,56*
G04 Copper Areas: 28*
%FSLAX45Y45*%
%MOMM*%
%ADD10C,0.2032*%
%ADD11C,0.254*%
%ADD12R,0.9X0.8*%
%ADD13R,0.86401X0.80648*%
%ADD14R,0.25001X1.2*%
%ADD15R,0.5548X1.1*%
%ADD16R,0.55001X1.1*%
%ADD17R,0.3X1.1*%
%ADD18O,1.1X2.0*%
%ADD19O,1.2X1.8*%
%ADD20R,1.11999X2.88*%
%ADD21O,1.2X2.49999*%
%ADD22C,0.61*%
G75*


G04 Copper Start*
G36*
G01X-5262387Y48514D02*
G01X-6015213Y48514D01*
G01X-6001611Y60441D01*
G01X-5990493Y74712D01*
G01X-5982255Y90819D01*
G01X-5977193Y108187D01*
G01X-5975485Y126197D01*
G01X-5975485Y186197D01*
G01X-5977326Y204890D01*
G01X-5982778Y222864D01*
G01X-5991632Y239429D01*
G01X-6003548Y253948D01*
G01X-6018067Y265864D01*
G01X-6034632Y274718D01*
G01X-6052606Y280170D01*
G01X-6071298Y282011D01*
G01X-6089991Y280170D01*
G01X-6107965Y274718D01*
G01X-6124530Y265864D01*
G01X-6139049Y253948D01*
G01X-6150965Y239429D01*
G01X-6159819Y222864D01*
G01X-6165271Y204890D01*
G01X-6167112Y186197D01*
G01X-6167112Y126197D01*
G01X-6165404Y108187D01*
G01X-6160342Y90819D01*
G01X-6152104Y74712D01*
G01X-6140986Y60441D01*
G01X-6127384Y48514D01*
G01X-6288786Y48514D01*
G01X-6288786Y621212D01*
G01X-6162112Y621212D01*
G01X-6162112Y531212D01*
G01X-6160193Y512641D01*
G01X-6154517Y494855D01*
G01X-6145324Y478606D01*
G01X-6133002Y464580D01*
G01X-6118073Y453370D01*
G01X-6101166Y445450D01*
G01X-6082998Y441155D01*
G01X-6064334Y440665D01*
G01X-6045966Y444003D01*
G01X-6028667Y451026D01*
G01X-6013171Y461438D01*
G01X-6000131Y474799D01*
G01X-5990099Y490545D01*
G01X-5981921Y478537D01*
G01X-5971465Y468451D01*
G01X-5959171Y460711D01*
G01X-5945555Y455642D01*
G01X-5931192Y453459D01*
G01X-5916686Y454253D01*
G01X-5902647Y457991D01*
G01X-5889666Y464514D01*
G01X-5878290Y473550D01*
G01X-5868997Y484717D01*
G01X-5862178Y497545D01*
G01X-5858121Y511495D01*
G01X-5856996Y525980D01*
G01X-5858850Y540389D01*
G01X-5851291Y540389D01*
G01X-5840042Y542201D01*
G01X-5828793Y540389D01*
G01X-5798793Y540389D01*
G01X-5788787Y541815D01*
G01X-5778781Y540389D01*
G01X-5755220Y540389D01*
G01X-5755220Y526546D01*
G01X-5753567Y513990D01*
G01X-5748721Y502289D01*
G01X-5741011Y492242D01*
G01X-5724667Y475898D01*
G01X-5714620Y468188D01*
G01X-5702919Y463342D01*
G01X-5690363Y461689D01*
G01X-5637250Y461689D01*
G01X-5628898Y462413D01*
G01X-5620795Y464564D01*
G01X-5591489Y435258D01*
G01X-5581441Y427548D01*
G01X-5569741Y422702D01*
G01X-5557184Y421049D01*
G01X-5520711Y421049D01*
G01X-5433109Y333447D01*
G01X-5423062Y325737D01*
G01X-5411361Y320890D01*
G01X-5398805Y319237D01*
G01X-5156950Y319237D01*
G01X-5144394Y320890D01*
G01X-5132693Y325737D01*
G01X-5122645Y333447D01*
G01X-4262996Y1193096D01*
G01X-2842100Y1193096D01*
G01X-2842100Y905096D01*
G01X-2840347Y894029D01*
G01X-2835260Y884045D01*
G01X-2827337Y876122D01*
G01X-2817353Y871035D01*
G01X-2806286Y869282D01*
G01X-2694287Y869282D01*
G01X-2683220Y871035D01*
G01X-2673236Y876122D01*
G01X-2665313Y884045D01*
G01X-2660226Y894029D01*
G01X-2658473Y905096D01*
G01X-2658473Y1193096D01*
G01X-2592113Y1193096D01*
G01X-2592113Y905096D01*
G01X-2590360Y894029D01*
G01X-2585273Y884045D01*
G01X-2577350Y876122D01*
G01X-2567366Y871035D01*
G01X-2556299Y869282D01*
G01X-2444300Y869282D01*
G01X-2433233Y871035D01*
G01X-2423249Y876122D01*
G01X-2415326Y884045D01*
G01X-2410239Y894029D01*
G01X-2408486Y905096D01*
G01X-2408486Y1004396D01*
G01X-2400936Y1003696D01*
G01X-2397732Y1000491D01*
G01X-2392114Y995672D01*
G01X-2392114Y905096D01*
G01X-2390361Y894029D01*
G01X-2385274Y884045D01*
G01X-2377351Y876122D01*
G01X-2367367Y871035D01*
G01X-2356300Y869282D01*
G01X-2244301Y869282D01*
G01X-2233234Y871035D01*
G01X-2223250Y876122D01*
G01X-2215327Y884045D01*
G01X-2210240Y894029D01*
G01X-2208487Y905096D01*
G01X-2208487Y1193096D01*
G01X-2142127Y1193096D01*
G01X-2142127Y905096D01*
G01X-2140374Y894029D01*
G01X-2135287Y884045D01*
G01X-2127364Y876122D01*
G01X-2117380Y871035D01*
G01X-2106313Y869282D01*
G01X-1994314Y869282D01*
G01X-1983247Y871035D01*
G01X-1973263Y876122D01*
G01X-1965340Y884045D01*
G01X-1960253Y894029D01*
G01X-1958500Y905096D01*
G01X-1958500Y1193096D01*
G01X-1960253Y1204164D01*
G01X-1965340Y1214147D01*
G01X-1973263Y1222071D01*
G01X-1983247Y1227158D01*
G01X-1994314Y1228910D01*
G01X-1996186Y1228910D01*
G01X-1996186Y1262890D01*
G01X-1987088Y1275261D01*
G01X-1981079Y1289394D01*
G01X-1978482Y1304529D01*
G01X-1979436Y1319856D01*
G01X-1983890Y1334553D01*
G01X-1991606Y1347831D01*
G01X-2002168Y1358978D01*
G01X-2015011Y1367397D01*
G01X-2029447Y1372636D01*
G01X-2044700Y1374414D01*
G01X-2059953Y1372636D01*
G01X-2074389Y1367397D01*
G01X-2087232Y1358978D01*
G01X-2097794Y1347831D01*
G01X-2105510Y1334553D01*
G01X-2109964Y1319856D01*
G01X-2110918Y1304529D01*
G01X-2108321Y1289394D01*
G01X-2102312Y1275261D01*
G01X-2093214Y1262890D01*
G01X-2093214Y1228910D01*
G01X-2106313Y1228910D01*
G01X-2106313Y1228910D01*
G01X-2117380Y1227158D01*
G01X-2127364Y1222071D01*
G01X-2135287Y1214147D01*
G01X-2140374Y1204164D01*
G01X-2142127Y1193096D01*
G01X-2208487Y1193096D01*
G01X-2210240Y1204164D01*
G01X-2215327Y1214147D01*
G01X-2223250Y1222071D01*
G01X-2233234Y1227158D01*
G01X-2244301Y1228910D01*
G01X-2252293Y1228910D01*
G01X-2239862Y1238676D01*
G01X-2230096Y1251107D01*
G01X-2223549Y1265495D01*
G01X-2220593Y1281025D01*
G01X-2221398Y1296813D01*
G01X-2225916Y1311962D01*
G01X-2233891Y1325611D01*
G01X-2244871Y1336984D01*
G01X-2258230Y1345436D01*
G01X-2273210Y1350486D01*
G01X-2288959Y1351846D01*
G01X-2304584Y1349440D01*
G01X-2319194Y1343405D01*
G01X-2331962Y1334083D01*
G01X-2359331Y1334083D01*
G01X-2371887Y1332430D01*
G01X-2383588Y1327583D01*
G01X-2393636Y1319874D01*
G01X-2484599Y1228910D01*
G01X-2556299Y1228910D01*
G01X-2556299Y1228910D01*
G01X-2567366Y1227158D01*
G01X-2577350Y1222071D01*
G01X-2585273Y1214147D01*
G01X-2590360Y1204164D01*
G01X-2592113Y1193096D01*
G01X-2658473Y1193096D01*
G01X-2659684Y1202332D01*
G01X-2663236Y1210943D01*
G01X-2668888Y1218346D01*
G01X-2668888Y1297300D01*
G01X-2670833Y1308940D01*
G01X-2676455Y1319317D01*
G01X-2685145Y1327302D01*
G01X-2676455Y1335288D01*
G01X-2670833Y1345664D01*
G01X-2668888Y1357305D01*
G01X-2668888Y1437305D01*
G01X-2670430Y1447700D01*
G01X-2674923Y1457201D01*
G01X-2681981Y1464988D01*
G01X-2690994Y1470391D01*
G01X-2701188Y1472946D01*
G01X-2701188Y1498091D01*
G01X-2690560Y1509069D01*
G01X-2682726Y1522188D01*
G01X-2678103Y1536752D01*
G01X-2676936Y1551988D01*
G01X-2679288Y1567086D01*
G01X-2685032Y1581245D01*
G01X-2693865Y1593713D01*
G01X-2705317Y1603829D01*
G01X-2718781Y1611054D01*
G01X-2733541Y1615007D01*
G01X-2748814Y1615476D01*
G01X-2763789Y1612437D01*
G01X-2777670Y1606051D01*
G01X-2789722Y1596658D01*
G01X-2799303Y1584755D01*
G01X-2805906Y1570975D01*
G01X-2809180Y1556050D01*
G01X-2808950Y1540772D01*
G01X-2805230Y1525952D01*
G01X-2798216Y1512376D01*
G01X-2798216Y1472946D01*
G01X-2808410Y1470391D01*
G01X-2817424Y1464988D01*
G01X-2824481Y1457201D01*
G01X-2828974Y1447700D01*
G01X-2830516Y1437305D01*
G01X-2830516Y1357305D01*
G01X-2828572Y1345664D01*
G01X-2822949Y1335288D01*
G01X-2814260Y1327302D01*
G01X-2822949Y1319317D01*
G01X-2828572Y1308940D01*
G01X-2830516Y1297300D01*
G01X-2830516Y1219469D01*
G01X-2836784Y1211871D01*
G01X-2840745Y1202853D01*
G01X-2842100Y1193096D01*
G01X-2842100Y1193096D01*
G01X-4262996Y1193096D01*
G01X-3005246Y2450846D01*
G01X-57792Y2450846D01*
G01X-57792Y2450846D01*
G01X-61876Y2436398D01*
G01X-62605Y2421403D01*
G01X-69412Y2420621D01*
G01X-75945Y2418557D01*
G01X-82804Y2420689D01*
G01X-89950Y2421409D01*
G01X-114951Y2421409D01*
G01X-122090Y2420690D01*
G01X-128942Y2418563D01*
G01X-135795Y2420690D01*
G01X-142934Y2421409D01*
G01X-167935Y2421409D01*
G01X-179002Y2419656D01*
G01X-188986Y2414569D01*
G01X-196909Y2406646D01*
G01X-201996Y2396662D01*
G01X-203749Y2385595D01*
G01X-203749Y2329989D01*
G01X-203949Y2325595D01*
G01X-203949Y2144463D01*
G01X-322995Y2025416D01*
G01X-375200Y2025416D01*
G01X-386267Y2023663D01*
G01X-396251Y2018576D01*
G01X-404174Y2010653D01*
G01X-409261Y2000669D01*
G01X-411014Y1989602D01*
G01X-411014Y1909602D01*
G01X-409069Y1897962D01*
G01X-403447Y1887586D01*
G01X-394757Y1879600D01*
G01X-403447Y1871614D01*
G01X-409069Y1861238D01*
G01X-411014Y1849598D01*
G01X-411014Y1769598D01*
G01X-409261Y1758531D01*
G01X-404174Y1748547D01*
G01X-396251Y1740624D01*
G01X-386267Y1735537D01*
G01X-375200Y1733784D01*
G01X-285200Y1733784D01*
G01X-274133Y1735537D01*
G01X-264149Y1740624D01*
G01X-256226Y1748547D01*
G01X-251139Y1758531D01*
G01X-249386Y1769598D01*
G01X-249386Y1849598D01*
G01X-251331Y1861238D01*
G01X-256953Y1871614D01*
G01X-265643Y1879600D01*
G01X-258803Y1885398D01*
G01X-253618Y1892714D01*
G01X-250413Y1901088D01*
G01X-232187Y1901088D01*
G01X-228982Y1892714D01*
G01X-223797Y1885398D01*
G01X-216957Y1879600D01*
G01X-225647Y1871614D01*
G01X-231269Y1861238D01*
G01X-233214Y1849598D01*
G01X-233214Y1769598D01*
G01X-231461Y1758531D01*
G01X-226374Y1748547D01*
G01X-218451Y1740624D01*
G01X-208467Y1735537D01*
G01X-197400Y1733784D01*
G01X-107400Y1733784D01*
G01X-96333Y1735537D01*
G01X-86349Y1740624D01*
G01X-78426Y1748547D01*
G01X-73339Y1758531D01*
G01X-71586Y1769598D01*
G01X-71586Y1849598D01*
G01X-73531Y1861238D01*
G01X-79153Y1871614D01*
G01X-87843Y1879600D01*
G01X-79153Y1887586D01*
G01X-73531Y1897962D01*
G01X-71586Y1909602D01*
G01X-71586Y1989602D01*
G01X-73339Y2000669D01*
G01X-78426Y2010653D01*
G01X-86349Y2018576D01*
G01X-96333Y2023663D01*
G01X-107400Y2025416D01*
G01X-185777Y2025416D01*
G01X-121130Y2090063D01*
G01X-113420Y2100111D01*
G01X-108574Y2111812D01*
G01X-106921Y2124368D01*
G01X-106921Y2202531D01*
G01X-97040Y2195276D01*
G01X-85657Y2190729D01*
G01X-73498Y2189181D01*
G01X-34645Y2189181D01*
G01X-23114Y2177649D01*
G01X-23114Y2025244D01*
G01X-33308Y2022689D01*
G01X-42322Y2017285D01*
G01X-49379Y2009498D01*
G01X-53872Y1999998D01*
G01X-55414Y1989602D01*
G01X-55414Y1909602D01*
G01X-53469Y1897962D01*
G01X-47847Y1887586D01*
G01X-39157Y1879600D01*
G01X-47847Y1871614D01*
G01X-53469Y1861238D01*
G01X-55414Y1849598D01*
G01X-55414Y1769598D01*
G01X-53661Y1758531D01*
G01X-48574Y1748547D01*
G01X-40651Y1740624D01*
G01X-30667Y1735537D01*
G01X-19600Y1733784D01*
G01X70400Y1733784D01*
G01X81467Y1735537D01*
G01X91451Y1740624D01*
G01X99374Y1748547D01*
G01X104461Y1758531D01*
G01X106214Y1769598D01*
G01X106214Y1849598D01*
G01X104269Y1861238D01*
G01X98647Y1871614D01*
G01X89957Y1879600D01*
G01X96797Y1885398D01*
G01X101982Y1892714D01*
G01X105187Y1901088D01*
G01X123413Y1901088D01*
G01X126618Y1892714D01*
G01X131803Y1885398D01*
G01X138643Y1879600D01*
G01X129953Y1871614D01*
G01X124331Y1861238D01*
G01X122386Y1849598D01*
G01X122386Y1769598D01*
G01X124139Y1758531D01*
G01X129226Y1748547D01*
G01X137149Y1740624D01*
G01X147133Y1735537D01*
G01X158200Y1733784D01*
G01X248200Y1733784D01*
G01X259267Y1735537D01*
G01X269251Y1740624D01*
G01X277174Y1748547D01*
G01X282261Y1758531D01*
G01X284014Y1769598D01*
G01X284014Y1849598D01*
G01X282069Y1861238D01*
G01X276447Y1871614D01*
G01X267757Y1879600D01*
G01X276447Y1887586D01*
G01X282069Y1897962D01*
G01X284014Y1909602D01*
G01X284014Y1989602D01*
G01X282261Y2000669D01*
G01X277174Y2010653D01*
G01X269251Y2018576D01*
G01X259267Y2023663D01*
G01X248200Y2025416D01*
G01X158200Y2025416D01*
G01X146504Y2023453D01*
G01X136090Y2017776D01*
G01X128101Y2009011D01*
G01X123413Y1998116D01*
G01X105187Y1998116D01*
G01X100967Y2008265D01*
G01X93867Y2016656D01*
G01X84557Y2022499D01*
G01X73914Y2025244D01*
G01X73914Y2063787D01*
G01X81709Y2052470D01*
G01X91669Y2043003D01*
G01X103367Y2035792D01*
G01X116300Y2031147D01*
G01X129913Y2029267D01*
G01X143620Y2030233D01*
G01X156835Y2034003D01*
G01X168988Y2040416D01*
G01X179559Y2049197D01*
G01X188093Y2059967D01*
G01X194224Y2072266D01*
G01X197689Y2085563D01*
G01X211558Y2089245D01*
G01X224311Y2095825D01*
G01X235350Y2104994D01*
G01X244158Y2116323D01*
G01X250322Y2129281D01*
G01X253555Y2143262D01*
G01X261376Y2143262D01*
G01X273933Y2144915D01*
G01X285633Y2149762D01*
G01X295681Y2157472D01*
G01X375469Y2237260D01*
G01X390802Y2234064D01*
G01X406457Y2234554D01*
G01X421560Y2238702D01*
G01X435269Y2246277D01*
G01X446819Y2256855D01*
G01X455566Y2269847D01*
G01X461022Y2284529D01*
G01X462883Y2300080D01*
G01X461044Y2315635D01*
G01X455609Y2330324D01*
G01X446880Y2343328D01*
G01X435345Y2353923D01*
G01X421647Y2361517D01*
G01X406549Y2365686D01*
G01X403319Y2378350D01*
G01X397667Y2390134D01*
G01X389815Y2400581D01*
G01X985210Y2400581D01*
G01X2156880Y1228910D01*
G01X2088700Y1228910D01*
G01X2080426Y1227942D01*
G01X2072600Y1225087D01*
G01X2068362Y1232448D01*
G01X2062904Y1238957D01*
G01X2046561Y1255301D01*
G01X2036513Y1263011D01*
G01X2024812Y1267857D01*
G01X2012256Y1269511D01*
G01X1877144Y1269511D01*
G01X1864588Y1267857D01*
G01X1852887Y1263011D01*
G01X1842840Y1255301D01*
G01X1786106Y1198568D01*
G01X1783351Y1207841D01*
G01X1778214Y1216038D01*
G01X1771070Y1222562D01*
G01X1777317Y1230154D01*
G01X1781264Y1239159D01*
G01X1782614Y1248898D01*
G01X1782614Y1328898D01*
G01X1780669Y1340538D01*
G01X1775047Y1350914D01*
G01X1766357Y1358900D01*
G01X1775047Y1366886D01*
G01X1780669Y1377262D01*
G01X1782614Y1388902D01*
G01X1782614Y1468902D01*
G01X1780861Y1479969D01*
G01X1775774Y1489953D01*
G01X1767851Y1497876D01*
G01X1757867Y1502963D01*
G01X1746800Y1504716D01*
G01X1656800Y1504716D01*
G01X1645733Y1502963D01*
G01X1635749Y1497876D01*
G01X1627826Y1489953D01*
G01X1622739Y1479969D01*
G01X1620986Y1468902D01*
G01X1620986Y1388902D01*
G01X1622931Y1377262D01*
G01X1628553Y1366886D01*
G01X1637243Y1358900D01*
G01X1628553Y1350914D01*
G01X1622931Y1340538D01*
G01X1620986Y1328898D01*
G01X1620986Y1248898D01*
G01X1622839Y1237528D01*
G01X1628205Y1227334D01*
G01X1618020Y1222327D01*
G01X1609913Y1214384D01*
G01X1604698Y1204303D01*
G01X1602900Y1193096D01*
G01X1602900Y1094560D01*
G01X1588582Y1098355D01*
G01X1573778Y1098877D01*
G01X1559228Y1096100D01*
G01X1545657Y1090162D01*
G01X1533743Y1081360D01*
G01X1524080Y1070133D01*
G01X1517150Y1057041D01*
G01X1513299Y1042738D01*
G01X1497617Y1038327D01*
G01X1483484Y1030226D01*
G01X1471753Y1018923D01*
G01X1463131Y1005102D01*
G01X1458138Y989596D01*
G01X1457076Y973341D01*
G01X1460010Y957317D01*
G01X1466761Y942491D01*
G01X1476923Y929759D01*
G01X1489882Y919889D01*
G01X1504857Y913475D01*
G01X1520943Y910906D01*
G01X1521660Y910189D01*
G01X1521660Y851306D01*
G01X1523313Y838749D01*
G01X1528160Y827049D01*
G01X1535869Y817001D01*
G01X1576019Y776851D01*
G01X1586067Y769142D01*
G01X1597767Y764295D01*
G01X1610324Y762642D01*
G01X1779103Y762642D01*
G01X1791659Y764295D01*
G01X1803360Y769142D01*
G01X1813408Y776851D01*
G01X1853557Y817001D01*
G01X1861267Y827049D01*
G01X1866114Y838749D01*
G01X1867767Y851306D01*
G01X1867767Y876037D01*
G01X1877702Y871013D01*
G01X1888701Y869282D01*
G01X2000700Y869282D01*
G01X2011767Y871035D01*
G01X2021751Y876122D01*
G01X2029674Y884045D01*
G01X2034761Y894029D01*
G01X2036514Y905096D01*
G01X2036514Y1054707D01*
G01X2052886Y1038334D01*
G01X2052886Y905096D01*
G01X2054639Y894029D01*
G01X2059726Y884045D01*
G01X2067649Y876122D01*
G01X2077633Y871035D01*
G01X2088700Y869282D01*
G01X2200699Y869282D01*
G01X2211766Y871035D01*
G01X2221750Y876122D01*
G01X2229673Y884045D01*
G01X2234760Y894029D01*
G01X2236513Y905096D01*
G01X2236513Y1149278D01*
G01X2262273Y1123518D01*
G01X2262273Y868139D01*
G01X2263926Y855583D01*
G01X2268773Y843882D01*
G01X2276483Y833835D01*
G01X2333466Y776851D01*
G01X2343514Y769142D01*
G01X2355214Y764295D01*
G01X2367771Y762642D01*
G01X5093803Y762642D01*
G01X5106359Y764295D01*
G01X5118060Y769142D01*
G01X5128108Y776851D01*
G01X5154538Y803282D01*
G01X5326956Y803282D01*
G01X5339512Y804935D01*
G01X5351213Y809782D01*
G01X5361261Y817491D01*
G01X5413051Y869282D01*
G01X5515399Y869282D01*
G01X5526466Y871035D01*
G01X5536450Y876122D01*
G01X5544373Y884045D01*
G01X5549460Y894029D01*
G01X5551213Y905096D01*
G01X5551213Y1193096D01*
G01X5617573Y1193096D01*
G01X5617573Y905096D01*
G01X5619326Y894029D01*
G01X5624413Y884045D01*
G01X5632336Y876122D01*
G01X5642320Y871035D01*
G01X5653387Y869282D01*
G01X5765386Y869282D01*
G01X5776453Y871035D01*
G01X5786437Y876122D01*
G01X5794360Y884045D01*
G01X5799447Y894029D01*
G01X5801200Y905096D01*
G01X5801200Y1193096D01*
G01X5799447Y1204164D01*
G01X5794360Y1214147D01*
G01X5786437Y1222071D01*
G01X5776453Y1227158D01*
G01X5765386Y1228910D01*
G01X5763514Y1228910D01*
G01X5763514Y1313690D01*
G01X5772612Y1326061D01*
G01X5778621Y1340194D01*
G01X5781218Y1355329D01*
G01X5780264Y1370656D01*
G01X5775810Y1385353D01*
G01X5768094Y1398631D01*
G01X5757532Y1409778D01*
G01X5744689Y1418197D01*
G01X5730253Y1423436D01*
G01X5715000Y1425214D01*
G01X5699747Y1423436D01*
G01X5685311Y1418197D01*
G01X5672468Y1409778D01*
G01X5661906Y1398631D01*
G01X5654190Y1385353D01*
G01X5649736Y1370656D01*
G01X5648782Y1355329D01*
G01X5651379Y1340194D01*
G01X5657388Y1326061D01*
G01X5666486Y1313690D01*
G01X5666486Y1228910D01*
G01X5653387Y1228910D01*
G01X5653387Y1228910D01*
G01X5642320Y1227158D01*
G01X5632336Y1222071D01*
G01X5624413Y1214147D01*
G01X5619326Y1204164D01*
G01X5617573Y1193096D01*
G01X5551213Y1193096D01*
G01X5549460Y1204164D01*
G01X5544373Y1214147D01*
G01X5536450Y1222071D01*
G01X5526466Y1227158D01*
G01X5515399Y1228910D01*
G01X5403400Y1228910D01*
G01X5392333Y1227158D01*
G01X5382349Y1222071D01*
G01X5374426Y1214147D01*
G01X5369339Y1204164D01*
G01X5367586Y1193096D01*
G01X5367586Y961035D01*
G01X5351214Y944663D01*
G01X5351214Y1193096D01*
G01X5349461Y1204164D01*
G01X5344374Y1214147D01*
G01X5336451Y1222071D01*
G01X5326467Y1227158D01*
G01X5315400Y1228910D01*
G01X5203401Y1228910D01*
G01X5192334Y1227158D01*
G01X5182350Y1222071D01*
G01X5174427Y1214147D01*
G01X5169340Y1204164D01*
G01X5167587Y1193096D01*
G01X5167587Y1011023D01*
G01X5101227Y944663D01*
G01X5101227Y1193096D01*
G01X5099956Y1202552D01*
G01X5096234Y1211337D01*
G01X5090324Y1218827D01*
G01X5082647Y1224491D01*
G01X5084614Y1236198D01*
G01X5084614Y1316198D01*
G01X5082669Y1327838D01*
G01X5077047Y1338214D01*
G01X5068357Y1346200D01*
G01X5077047Y1354186D01*
G01X5082669Y1364562D01*
G01X5084614Y1376202D01*
G01X5084614Y1456202D01*
G01X5083072Y1466598D01*
G01X5078579Y1476098D01*
G01X5071522Y1483885D01*
G01X5062508Y1489289D01*
G01X5052314Y1491844D01*
G01X5052314Y1567690D01*
G01X5061412Y1580061D01*
G01X5067421Y1594194D01*
G01X5070018Y1609329D01*
G01X5069064Y1624656D01*
G01X5064610Y1639353D01*
G01X5056894Y1652631D01*
G01X5046332Y1663778D01*
G01X5033489Y1672197D01*
G01X5019053Y1677436D01*
G01X5003800Y1679214D01*
G01X4988547Y1677436D01*
G01X4974111Y1672197D01*
G01X4961268Y1663778D01*
G01X4950706Y1652631D01*
G01X4942990Y1639353D01*
G01X4938536Y1624656D01*
G01X4937582Y1609329D01*
G01X4940179Y1594194D01*
G01X4946188Y1580061D01*
G01X4955286Y1567690D01*
G01X4955286Y1491844D01*
G01X4945092Y1489289D01*
G01X4936078Y1483885D01*
G01X4929021Y1476098D01*
G01X4924528Y1466598D01*
G01X4922986Y1456202D01*
G01X4922986Y1376202D01*
G01X4924931Y1364562D01*
G01X4930553Y1354186D01*
G01X4939243Y1346200D01*
G01X4930553Y1338214D01*
G01X4924931Y1327838D01*
G01X4922986Y1316198D01*
G01X4922986Y1236198D01*
G01X4924223Y1226866D01*
G01X4927849Y1218178D01*
G01X4922285Y1210806D01*
G01X4918791Y1202256D01*
G01X4917600Y1193096D01*
G01X4917600Y944663D01*
G01X3338223Y2524039D01*
G01X3328175Y2531749D01*
G01X3316475Y2536596D01*
G01X3303918Y2538249D01*
G01X308363Y2538249D01*
G01X261621Y2584990D01*
G01X263455Y2592505D01*
G01X264072Y2600215D01*
G01X264072Y2685614D01*
G01X263872Y2690008D01*
G01X263872Y2745614D01*
G01X262120Y2756681D01*
G01X257033Y2766665D01*
G01X249109Y2774588D01*
G01X239126Y2779675D01*
G01X228058Y2781428D01*
G01X203057Y2781428D01*
G01X195911Y2780708D01*
G01X189053Y2778577D01*
G01X182195Y2780708D01*
G01X175049Y2781428D01*
G01X150047Y2781428D01*
G01X142908Y2780710D01*
G01X136056Y2778582D01*
G01X129203Y2780710D01*
G01X122064Y2781428D01*
G01X97063Y2781428D01*
G01X89917Y2780708D01*
G01X83059Y2778577D01*
G01X76763Y2780589D01*
G01X70204Y2781410D01*
G01X87667Y2798872D01*
G01X95376Y2808920D01*
G01X100223Y2820620D01*
G01X101876Y2833177D01*
G01X101876Y3151729D01*
G01X116551Y3147614D01*
G01X131778Y3146958D01*
G01X146753Y3149796D01*
G01X160684Y3155978D01*
G01X172836Y3165177D01*
G01X182566Y3176907D01*
G01X189362Y3190549D01*
G01X192863Y3205382D01*
G01X192886Y3220623D01*
G01X189428Y3235467D01*
G01X182673Y3249129D01*
G01X172977Y3260888D01*
G01X172977Y3316221D01*
G01X182700Y3319134D01*
G01X191215Y3324659D01*
G01X197839Y3332350D01*
G01X202038Y3341591D01*
G01X203477Y3351639D01*
G01X203477Y3432286D01*
G01X202162Y3441900D01*
G01X198315Y3450808D01*
G01X192218Y3458357D01*
G01X184319Y3463991D01*
G01X175197Y3467299D01*
G01X184319Y3470606D01*
G01X192218Y3476241D01*
G01X198315Y3483790D01*
G01X202162Y3492698D01*
G01X203477Y3502312D01*
G01X203477Y3582959D01*
G01X202196Y3592452D01*
G01X198444Y3601266D01*
G01X192490Y3608771D01*
G01X201242Y3610496D01*
G01X212491Y3608683D01*
G01X229652Y3608683D01*
G01X222057Y3603010D01*
G01X216217Y3595542D01*
G01X212541Y3586804D01*
G01X211286Y3577407D01*
G01X211286Y3497407D01*
G01X213231Y3485767D01*
G01X218853Y3475390D01*
G01X227543Y3467405D01*
G01X218853Y3459419D01*
G01X213231Y3449043D01*
G01X211286Y3437402D01*
G01X211286Y3357402D01*
G01X212634Y3347669D01*
G01X216577Y3338668D01*
G01X222817Y3331078D01*
G01X230886Y3325469D01*
G01X230886Y3258310D01*
G01X221788Y3245939D01*
G01X215779Y3231806D01*
G01X213182Y3216671D01*
G01X214136Y3201344D01*
G01X218590Y3186647D01*
G01X226306Y3173369D01*
G01X236868Y3162222D01*
G01X249711Y3153803D01*
G01X264147Y3148564D01*
G01X279400Y3146786D01*
G01X294653Y3148564D01*
G01X309089Y3153803D01*
G01X321932Y3162222D01*
G01X332494Y3173369D01*
G01X340210Y3186647D01*
G01X344664Y3201344D01*
G01X345618Y3216671D01*
G01X343021Y3231806D01*
G01X337012Y3245939D01*
G01X327914Y3258310D01*
G01X327914Y3321588D01*
G01X337100Y3321588D01*
G01X348167Y3323341D01*
G01X358151Y3328428D01*
G01X366074Y3336352D01*
G01X371161Y3346335D01*
G01X372914Y3357402D01*
G01X372914Y3437402D01*
G01X370969Y3449043D01*
G01X365347Y3459419D01*
G01X356657Y3467405D01*
G01X365347Y3475390D01*
G01X370969Y3485767D01*
G01X372914Y3497407D01*
G01X372914Y3577407D01*
G01X371586Y3587068D01*
G01X367702Y3596013D01*
G01X361548Y3603578D01*
G01X353582Y3609203D01*
G01X362995Y3612208D01*
G01X371229Y3617670D01*
G01X377657Y3625175D01*
G01X381789Y3634151D01*
G01X397487Y3625695D01*
G01X414535Y3620469D01*
G01X432275Y3618675D01*
G01X450023Y3620381D01*
G01X467096Y3625523D01*
G01X482836Y3633902D01*
G01X496634Y3645194D01*
G01X507961Y3658965D01*
G01X516378Y3674684D01*
G01X521562Y3691744D01*
G01X523312Y3709488D01*
G01X523312Y3799488D01*
G01X521393Y3818059D01*
G01X515717Y3835845D01*
G01X506524Y3852094D01*
G01X494202Y3866120D01*
G01X479273Y3877330D01*
G01X462366Y3885250D01*
G01X444198Y3889545D01*
G01X425534Y3890035D01*
G01X407166Y3886697D01*
G01X389867Y3879674D01*
G01X374371Y3869262D01*
G01X361331Y3855901D01*
G01X351299Y3840155D01*
G01X343121Y3852163D01*
G01X332665Y3862249D01*
G01X320371Y3869989D01*
G01X306755Y3875058D01*
G01X292392Y3877241D01*
G01X277886Y3876447D01*
G01X263847Y3872709D01*
G01X250866Y3866186D01*
G01X239490Y3857150D01*
G01X230197Y3845983D01*
G01X223378Y3833155D01*
G01X219321Y3819205D01*
G01X218196Y3804720D01*
G01X220050Y3790311D01*
G01X212491Y3790311D01*
G01X201242Y3788499D01*
G01X189993Y3790311D01*
G01X159993Y3790311D01*
G01X149987Y3788885D01*
G01X139981Y3790311D01*
G01X116420Y3790311D01*
G01X116420Y3791454D01*
G01X114767Y3804010D01*
G01X109921Y3815711D01*
G01X102211Y3825758D01*
G01X85867Y3842102D01*
G01X75820Y3849812D01*
G01X64119Y3854658D01*
G01X51563Y3856311D01*
G01X-1550Y3856311D01*
G01X-14107Y3854658D01*
G01X-25807Y3849812D01*
G01X-35855Y3842102D01*
G01X-52198Y3825758D01*
G01X-59908Y3815711D01*
G01X-64755Y3804010D01*
G01X-66408Y3791454D01*
G01X-66408Y3790311D01*
G01X-89993Y3790311D01*
G01X-100000Y3788885D01*
G01X-110006Y3790311D01*
G01X-140006Y3790311D01*
G01X-150012Y3788885D01*
G01X-160019Y3790311D01*
G01X-190019Y3790311D01*
G01X-201268Y3788499D01*
G01X-212517Y3790311D01*
G01X-220076Y3790311D01*
G01X-218221Y3804718D01*
G01X-219346Y3819201D01*
G01X-223401Y3833149D01*
G01X-230218Y3845977D01*
G01X-239508Y3857143D01*
G01X-250882Y3866179D01*
G01X-263859Y3872705D01*
G01X-277896Y3876444D01*
G01X-292400Y3877242D01*
G01X-306762Y3875063D01*
G01X-320377Y3869999D01*
G01X-332672Y3862264D01*
G01X-343130Y3852183D01*
G01X-351311Y3840180D01*
G01X-361347Y3855920D01*
G01X-374389Y3869276D01*
G01X-389886Y3879684D01*
G01X-407184Y3886702D01*
G01X-425551Y3890036D01*
G01X-444212Y3889543D01*
G01X-462378Y3885246D01*
G01X-479282Y3877325D01*
G01X-494208Y3866114D01*
G01X-506528Y3852089D01*
G01X-515719Y3835841D01*
G01X-521394Y3818057D01*
G01X-523312Y3799488D01*
G01X-523312Y3709488D01*
G01X-521562Y3691744D01*
G01X-516378Y3674684D01*
G01X-507961Y3658965D01*
G01X-496634Y3645194D01*
G01X-482836Y3633902D01*
G01X-467096Y3625523D01*
G01X-450023Y3620381D01*
G01X-432275Y3618675D01*
G01X-414535Y3620469D01*
G01X-397487Y3625695D01*
G01X-381789Y3634151D01*
G01X-376806Y3623907D01*
G01X-368858Y3615747D01*
G01X-358749Y3610495D01*
G01X-347502Y3608683D01*
G01X-292501Y3608683D01*
G01X-286155Y3609250D01*
G01X-280010Y3610933D01*
G01X-273864Y3609250D01*
G01X-267518Y3608683D01*
G01X-254284Y3608683D01*
G01X-256176Y3602192D01*
G01X-256814Y3595460D01*
G01X-256814Y3514813D01*
G01X-255500Y3505199D01*
G01X-251653Y3496291D01*
G01X-245556Y3488742D01*
G01X-237656Y3483107D01*
G01X-228534Y3479800D01*
G01X-237656Y3476493D01*
G01X-245556Y3470858D01*
G01X-251653Y3463309D01*
G01X-255500Y3454401D01*
G01X-256814Y3444787D01*
G01X-256814Y3364140D01*
G01X-255376Y3354092D01*
G01X-251176Y3344851D01*
G01X-244553Y3337160D01*
G01X-236037Y3331635D01*
G01X-226314Y3328722D01*
G01X-226314Y3258310D01*
G01X-235412Y3245939D01*
G01X-241421Y3231806D01*
G01X-244018Y3216671D01*
G01X-243064Y3201344D01*
G01X-238610Y3186647D01*
G01X-230894Y3173369D01*
G01X-220332Y3162222D01*
G01X-207489Y3153803D01*
G01X-193053Y3148564D01*
G01X-177800Y3146786D01*
G01X-162547Y3148564D01*
G01X-148111Y3153803D01*
G01X-135268Y3162222D01*
G01X-124706Y3173369D01*
G01X-116990Y3186647D01*
G01X-112536Y3201344D01*
G01X-111582Y3216671D01*
G01X-114179Y3231806D01*
G01X-120188Y3245939D01*
G01X-129286Y3258310D01*
G01X-129286Y3328722D01*
G01X-119563Y3331635D01*
G01X-111047Y3337160D01*
G01X-104424Y3344851D01*
G01X-100224Y3354092D01*
G01X-98786Y3364140D01*
G01X-98786Y3444787D01*
G01X-100100Y3454401D01*
G01X-103947Y3463309D01*
G01X-110044Y3470858D01*
G01X-117944Y3476493D01*
G01X-127066Y3479800D01*
G01X-117944Y3483107D01*
G01X-110044Y3488742D01*
G01X-103947Y3496291D01*
G01X-100100Y3505199D01*
G01X-98786Y3514813D01*
G01X-98786Y3595211D01*
G01X-85867Y3582293D01*
G01X-76762Y3575141D01*
G01X-77023Y3570119D01*
G01X-77023Y3082736D01*
G01X-146409Y3082736D01*
G01X-157476Y3080983D01*
G01X-167460Y3075896D01*
G01X-175383Y3067973D01*
G01X-180470Y3057989D01*
G01X-182223Y3046922D01*
G01X-182223Y2966922D01*
G01X-180278Y2955281D01*
G01X-174656Y2944905D01*
G01X-165966Y2936919D01*
G01X-174656Y2928934D01*
G01X-180278Y2918557D01*
G01X-182223Y2906917D01*
G01X-182223Y2826917D01*
G01X-180470Y2815850D01*
G01X-175383Y2805866D01*
G01X-167460Y2797943D01*
G01X-157476Y2792856D01*
G01X-146409Y2791103D01*
G01X-93600Y2791103D01*
G01X-96823Y2781428D01*
G01X-114951Y2781428D01*
G01X-122090Y2780710D01*
G01X-128942Y2778582D01*
G01X-135795Y2780710D01*
G01X-142934Y2781428D01*
G01X-167935Y2781428D01*
G01X-179002Y2779675D01*
G01X-188986Y2774588D01*
G01X-196909Y2766665D01*
G01X-201996Y2756681D01*
G01X-203749Y2745614D01*
G01X-203749Y2736184D01*
G01X-213623Y2725771D01*
G01X-221027Y2713478D01*
G01X-225612Y2699880D01*
G01X-227164Y2685614D01*
G01X-225612Y2671349D01*
G01X-221027Y2657751D01*
G01X-213623Y2645458D01*
G01X-203749Y2635045D01*
G01X-203749Y2625615D01*
G01X-201996Y2614547D01*
G01X-196909Y2604564D01*
G01X-188986Y2596640D01*
G01X-179002Y2591553D01*
G01X-167935Y2589801D01*
G01X-142934Y2589801D01*
G01X-135795Y2590519D01*
G01X-128942Y2592647D01*
G01X-122090Y2590519D01*
G01X-114951Y2589801D01*
G01X-89950Y2589801D01*
G01X-82804Y2590521D01*
G01X-75945Y2592652D01*
G01X-69087Y2590521D01*
G01X-61941Y2589801D01*
G01X-36940Y2589801D01*
G01X-29794Y2590521D01*
G01X-22935Y2592652D01*
G01X-16077Y2590521D01*
G01X-8931Y2589801D01*
G01X9171Y2589801D01*
G01X9472Y2588514D01*
G01X-3042175Y2588514D01*
G01X-3054731Y2586861D01*
G01X-3066432Y2582014D01*
G01X-3076480Y2574305D01*
G01X-5115488Y535297D01*
G01X-5115488Y621212D01*
G01X-5117454Y640006D01*
G01X-5123267Y657986D01*
G01X-5132675Y674375D01*
G01X-5145271Y688461D01*
G01X-5160510Y699635D01*
G01X-5177731Y707414D01*
G01X-5196190Y711461D01*
G01X-5215086Y711600D01*
G01X-5215086Y782798D01*
G01X-5217031Y794438D01*
G01X-5222653Y804814D01*
G01X-5231343Y812800D01*
G01X-5222653Y820786D01*
G01X-5217031Y831162D01*
G01X-5215086Y842802D01*
G01X-5215086Y922802D01*
G01X-5216839Y933869D01*
G01X-5221926Y943853D01*
G01X-5229849Y951776D01*
G01X-5239833Y956863D01*
G01X-5250900Y958616D01*
G01X-5340900Y958616D01*
G01X-5351967Y956863D01*
G01X-5361951Y951776D01*
G01X-5369874Y943853D01*
G01X-5374961Y933869D01*
G01X-5376714Y922802D01*
G01X-5376714Y842802D01*
G01X-5374769Y831162D01*
G01X-5369147Y820786D01*
G01X-5360457Y812800D01*
G01X-5369147Y804814D01*
G01X-5374769Y794438D01*
G01X-5376714Y782798D01*
G01X-5376714Y722017D01*
G01X-5396581Y722017D01*
G01X-5394686Y733513D01*
G01X-5394686Y814160D01*
G01X-5396000Y823774D01*
G01X-5399847Y832682D01*
G01X-5405944Y840231D01*
G01X-5413844Y845865D01*
G01X-5422966Y849173D01*
G01X-5413844Y852480D01*
G01X-5405944Y858115D01*
G01X-5399847Y865663D01*
G01X-5396000Y874572D01*
G01X-5394686Y884185D01*
G01X-5394686Y964833D01*
G01X-5396439Y975900D01*
G01X-5401526Y985884D01*
G01X-5409449Y993807D01*
G01X-5419433Y998894D01*
G01X-5430500Y1000647D01*
G01X-5516900Y1000647D01*
G01X-5527967Y998894D01*
G01X-5537951Y993807D01*
G01X-5545874Y985884D01*
G01X-5550961Y975900D01*
G01X-5552714Y964833D01*
G01X-5552714Y884185D01*
G01X-5551400Y874572D01*
G01X-5547553Y865663D01*
G01X-5541456Y858115D01*
G01X-5533556Y852480D01*
G01X-5524434Y849173D01*
G01X-5533556Y845865D01*
G01X-5541456Y840231D01*
G01X-5547553Y832682D01*
G01X-5551400Y823774D01*
G01X-5552714Y814160D01*
G01X-5552714Y748189D01*
G01X-5552933Y748407D01*
G01X-5562980Y756117D01*
G01X-5574681Y760964D01*
G01X-5587237Y762617D01*
G01X-5640350Y762617D01*
G01X-5652907Y760964D01*
G01X-5664607Y756117D01*
G01X-5674655Y748407D01*
G01X-5690041Y733021D01*
G01X-5687609Y740305D01*
G01X-5686786Y747940D01*
G01X-5686786Y828587D01*
G01X-5688100Y838201D01*
G01X-5691947Y847109D01*
G01X-5698044Y854658D01*
G01X-5705944Y860293D01*
G01X-5715066Y863600D01*
G01X-5705944Y866907D01*
G01X-5698044Y872542D01*
G01X-5691947Y880091D01*
G01X-5688100Y888999D01*
G01X-5686786Y898613D01*
G01X-5686786Y979260D01*
G01X-5688539Y990327D01*
G01X-5693626Y1000311D01*
G01X-5701549Y1008234D01*
G01X-5711533Y1013321D01*
G01X-5722600Y1015074D01*
G01X-5809000Y1015074D01*
G01X-5820067Y1013321D01*
G01X-5830051Y1008234D01*
G01X-5837974Y1000311D01*
G01X-5843061Y990327D01*
G01X-5844814Y979260D01*
G01X-5844814Y898613D01*
G01X-5843500Y888999D01*
G01X-5839653Y880091D01*
G01X-5833556Y872542D01*
G01X-5825656Y866907D01*
G01X-5816534Y863600D01*
G01X-5825656Y860293D01*
G01X-5833556Y854658D01*
G01X-5839653Y847109D01*
G01X-5843500Y838201D01*
G01X-5844814Y828587D01*
G01X-5844814Y747940D01*
G01X-5843480Y738256D01*
G01X-5839577Y729293D01*
G01X-5833396Y721720D01*
G01X-5840042Y720204D01*
G01X-5851291Y722017D01*
G01X-5906292Y722017D01*
G01X-5912645Y721449D01*
G01X-5918797Y719763D01*
G01X-5924948Y721449D01*
G01X-5931301Y722017D01*
G01X-5986302Y722017D01*
G01X-5997549Y720205D01*
G01X-6007658Y714953D01*
G01X-6015606Y706793D01*
G01X-6020589Y696549D01*
G01X-6036287Y705005D01*
G01X-6053335Y710231D01*
G01X-6071075Y712025D01*
G01X-6088823Y710319D01*
G01X-6105896Y705177D01*
G01X-6121636Y696798D01*
G01X-6135434Y685506D01*
G01X-6146761Y671735D01*
G01X-6155178Y656016D01*
G01X-6160362Y638956D01*
G01X-6162112Y621212D01*
G01X-6288786Y621212D01*
G01X-6288786Y2912140D01*
G01X-362230Y2912140D01*
G01X-362230Y2832140D01*
G01X-360477Y2821073D01*
G01X-355390Y2811089D01*
G01X-347467Y2803166D01*
G01X-337483Y2798079D01*
G01X-326416Y2796326D01*
G01X-236416Y2796326D01*
G01X-225349Y2798079D01*
G01X-215365Y2803166D01*
G01X-207442Y2811089D01*
G01X-202355Y2821073D01*
G01X-200602Y2832140D01*
G01X-200602Y2912140D01*
G01X-202547Y2923781D01*
G01X-208169Y2934157D01*
G01X-216859Y2942143D01*
G01X-208169Y2950128D01*
G01X-202547Y2960505D01*
G01X-200602Y2972145D01*
G01X-200602Y3052145D01*
G01X-202355Y3063212D01*
G01X-207442Y3073196D01*
G01X-215365Y3081119D01*
G01X-225349Y3086206D01*
G01X-236416Y3087959D01*
G01X-326416Y3087959D01*
G01X-337483Y3086206D01*
G01X-347467Y3081119D01*
G01X-355390Y3073196D01*
G01X-360477Y3063212D01*
G01X-362230Y3052145D01*
G01X-362230Y2972145D01*
G01X-360285Y2960505D01*
G01X-354663Y2950128D01*
G01X-345973Y2942143D01*
G01X-354663Y2934157D01*
G01X-360285Y2923781D01*
G01X-362230Y2912140D01*
G01X-362230Y2912140D01*
G01X-6288786Y2912140D01*
G01X-6288786Y2974086D01*
G01X-1016000Y2974086D01*
G01X-1004933Y2975839D01*
G01X-994949Y2980926D01*
G01X-987026Y2988849D01*
G01X-981939Y2998833D01*
G01X-980186Y3009900D01*
G01X-980186Y4282186D01*
G01X-488584Y4282186D01*
G01X-502186Y4270259D01*
G01X-513304Y4255988D01*
G01X-521542Y4239881D01*
G01X-526604Y4222513D01*
G01X-528312Y4204503D01*
G01X-528312Y4144503D01*
G01X-526471Y4125810D01*
G01X-521019Y4107836D01*
G01X-512165Y4091271D01*
G01X-500249Y4076752D01*
G01X-485730Y4064836D01*
G01X-469165Y4055982D01*
G01X-451191Y4050530D01*
G01X-432498Y4048689D01*
G01X-413806Y4050530D01*
G01X-395832Y4055982D01*
G01X-379267Y4064836D01*
G01X-364748Y4076752D01*
G01X-352832Y4091271D01*
G01X-343978Y4107836D01*
G01X-338526Y4125810D01*
G01X-336685Y4144503D01*
G01X-336685Y4204503D01*
G01X-338393Y4222513D01*
G01X-343455Y4239881D01*
G01X-351693Y4255988D01*
G01X-362811Y4270259D01*
G01X-376413Y4282186D01*
G01X376413Y4282186D01*
G01X362811Y4270259D01*
G01X351693Y4255988D01*
G01X343455Y4239881D01*
G01X338393Y4222513D01*
G01X336685Y4204503D01*
G01X336685Y4144503D01*
G01X338526Y4125810D01*
G01X343978Y4107836D01*
G01X352832Y4091271D01*
G01X364748Y4076752D01*
G01X379267Y4064836D01*
G01X395832Y4055982D01*
G01X413806Y4050530D01*
G01X432499Y4048689D01*
G01X451191Y4050530D01*
G01X469165Y4055982D01*
G01X485730Y4064836D01*
G01X500249Y4076752D01*
G01X512165Y4091271D01*
G01X521019Y4107836D01*
G01X526471Y4125810D01*
G01X528312Y4144503D01*
G01X528312Y4204503D01*
G01X526604Y4222513D01*
G01X521542Y4239881D01*
G01X513304Y4255988D01*
G01X502186Y4270259D01*
G01X488584Y4282186D01*
G01X967486Y4282186D01*
G01X967486Y3014154D01*
G01X969237Y3003094D01*
G01X974318Y2993115D01*
G01X982232Y2985193D01*
G01X992206Y2980102D01*
G01X1003265Y2978340D01*
G01X6250317Y2973187D01*
G01X6225265Y48514D01*
G01X6081724Y48514D01*
G01X6089663Y61381D01*
G01X6095480Y75336D01*
G01X6099029Y90032D01*
G01X6100221Y105104D01*
G01X6100221Y235104D01*
G01X6098380Y253796D01*
G01X6092928Y271770D01*
G01X6084074Y288335D01*
G01X6072158Y302854D01*
G01X6057639Y314770D01*
G01X6041074Y323624D01*
G01X6023100Y329077D01*
G01X6004408Y330918D01*
G01X5985715Y329077D01*
G01X5967741Y323624D01*
G01X5951176Y314770D01*
G01X5936657Y302854D01*
G01X5924741Y288335D01*
G01X5915887Y271770D01*
G01X5910435Y253796D01*
G01X5908594Y235104D01*
G01X5908594Y105104D01*
G01X5909787Y90032D01*
G01X5913335Y75336D01*
G01X5919152Y61381D01*
G01X5927091Y48514D01*
G01X4791709Y48514D01*
G01X4799648Y61381D01*
G01X4805465Y75336D01*
G01X4809013Y90032D01*
G01X4810206Y105104D01*
G01X4810206Y235104D01*
G01X4808365Y253796D01*
G01X4802913Y271770D01*
G01X4794059Y288335D01*
G01X4782143Y302854D01*
G01X4767624Y314770D01*
G01X4751059Y323624D01*
G01X4733085Y329077D01*
G01X4714392Y330918D01*
G01X4695700Y329077D01*
G01X4677726Y323624D01*
G01X4661161Y314770D01*
G01X4646642Y302854D01*
G01X4634726Y288335D01*
G01X4625872Y271770D01*
G01X4620420Y253796D01*
G01X4618579Y235104D01*
G01X4618579Y105104D01*
G01X4619771Y90032D01*
G01X4623320Y75336D01*
G01X4629137Y61381D01*
G01X4637076Y48514D01*
G01X2767024Y48514D01*
G01X2774963Y61381D01*
G01X2780780Y75336D01*
G01X2784329Y90032D01*
G01X2785521Y105104D01*
G01X2785521Y235104D01*
G01X2783680Y253796D01*
G01X2778228Y271770D01*
G01X2769374Y288335D01*
G01X2757458Y302854D01*
G01X2742939Y314770D01*
G01X2726374Y323624D01*
G01X2708400Y329077D01*
G01X2689708Y330918D01*
G01X2671015Y329077D01*
G01X2653041Y323624D01*
G01X2636476Y314770D01*
G01X2621957Y302854D01*
G01X2610041Y288335D01*
G01X2601187Y271770D01*
G01X2595735Y253796D01*
G01X2593894Y235104D01*
G01X2593894Y105104D01*
G01X2595087Y90032D01*
G01X2598635Y75336D01*
G01X2604452Y61381D01*
G01X2612391Y48514D01*
G01X1477009Y48514D01*
G01X1484948Y61381D01*
G01X1490765Y75336D01*
G01X1494313Y90032D01*
G01X1495506Y105104D01*
G01X1495506Y235104D01*
G01X1493665Y253796D01*
G01X1488213Y271770D01*
G01X1479359Y288335D01*
G01X1467443Y302854D01*
G01X1452924Y314770D01*
G01X1436359Y323624D01*
G01X1418385Y329077D01*
G01X1399692Y330918D01*
G01X1381000Y329077D01*
G01X1363026Y323624D01*
G01X1346461Y314770D01*
G01X1331942Y302854D01*
G01X1320026Y288335D01*
G01X1311172Y271770D01*
G01X1305720Y253796D01*
G01X1303879Y235104D01*
G01X1303879Y105104D01*
G01X1305071Y90032D01*
G01X1308620Y75336D01*
G01X1314437Y61381D01*
G01X1322376Y48514D01*
G01X-1677976Y48514D01*
G01X-1670037Y61381D01*
G01X-1664220Y75336D01*
G01X-1660671Y90032D01*
G01X-1659479Y105104D01*
G01X-1659479Y235104D01*
G01X-1661320Y253796D01*
G01X-1666772Y271770D01*
G01X-1675626Y288335D01*
G01X-1687542Y302854D01*
G01X-1702061Y314770D01*
G01X-1718626Y323624D01*
G01X-1736600Y329077D01*
G01X-1755292Y330918D01*
G01X-1773985Y329077D01*
G01X-1791959Y323624D01*
G01X-1808524Y314770D01*
G01X-1823043Y302854D01*
G01X-1834959Y288335D01*
G01X-1843813Y271770D01*
G01X-1849265Y253796D01*
G01X-1851106Y235104D01*
G01X-1851106Y105104D01*
G01X-1849913Y90032D01*
G01X-1846365Y75336D01*
G01X-1840548Y61381D01*
G01X-1832609Y48514D01*
G01X-2967991Y48514D01*
G01X-2960052Y61381D01*
G01X-2954235Y75336D01*
G01X-2950687Y90032D01*
G01X-2949494Y105104D01*
G01X-2949494Y235104D01*
G01X-2951335Y253796D01*
G01X-2956787Y271770D01*
G01X-2965641Y288335D01*
G01X-2977557Y302854D01*
G01X-2992076Y314770D01*
G01X-3008641Y323624D01*
G01X-3026615Y329077D01*
G01X-3045308Y330918D01*
G01X-3064000Y329077D01*
G01X-3081974Y323624D01*
G01X-3098539Y314770D01*
G01X-3113058Y302854D01*
G01X-3124974Y288335D01*
G01X-3133828Y271770D01*
G01X-3139280Y253796D01*
G01X-3141121Y235104D01*
G01X-3141121Y105104D01*
G01X-3139929Y90032D01*
G01X-3136380Y75336D01*
G01X-3130563Y61381D01*
G01X-3122624Y48514D01*
G01X-5150216Y48514D01*
G01X-5136614Y60441D01*
G01X-5125496Y74712D01*
G01X-5117258Y90819D01*
G01X-5112196Y108187D01*
G01X-5110488Y126197D01*
G01X-5110488Y186197D01*
G01X-5112329Y204890D01*
G01X-5117781Y222864D01*
G01X-5126635Y239429D01*
G01X-5138551Y253948D01*
G01X-5153070Y265864D01*
G01X-5169635Y274718D01*
G01X-5187609Y280170D01*
G01X-5206301Y282011D01*
G01X-5224994Y280170D01*
G01X-5242968Y274718D01*
G01X-5259533Y265864D01*
G01X-5274052Y253948D01*
G01X-5285968Y239429D01*
G01X-5294822Y222864D01*
G01X-5300274Y204890D01*
G01X-5302115Y186197D01*
G01X-5302115Y126197D01*
G01X-5300407Y108187D01*
G01X-5295345Y90819D01*
G01X-5287107Y74712D01*
G01X-5275989Y60441D01*
G01X-5262387Y48514D01*
G37*
G54D10*
G01X-5262387Y48514D02*
G01X-6015213Y48514D01*
G03X-5975485Y126197I-56086J77683D01*
G01X-5975485Y186197D01*
G03X-6167112Y186197I-95814J0D01*
G01X-6167112Y126197D01*
G03X-6127384Y48514I95814J0D01*
G01X-6288786Y48514D01*
G01X-6288786Y2974086D01*
G01X-1016000Y2974086D01*
G03X-980186Y3009900I0J35814D01*
G01X-980186Y4282186D01*
G01X-488584Y4282186D01*
G03X-528312Y4204503I56086J-77683D01*
G01X-528312Y4144503D01*
G03X-336685Y4144503I95814J0D01*
G01X-336685Y4204503D01*
G03X-376413Y4282186I-95814J0D01*
G01X376413Y4282186D01*
G03X336685Y4204503I56086J-77683D01*
G01X336685Y4144503D01*
G03X528312Y4144503I95814J0D01*
G01X528312Y4204503D01*
G03X488584Y4282186I-95814J0D01*
G01X967486Y4282186D01*
G01X967486Y3014154D01*
G03X1003265Y2978340I35814J0D01*
G01X6250317Y2973187D01*
G01X6225265Y48514D01*
G01X6081724Y48514D01*
G03X6100221Y105104I-77317J56590D01*
G01X6100221Y235104D01*
G03X5908594Y235104I-95814J0D01*
G01X5908594Y105104D01*
G03X5927091Y48514I95814J0D01*
G01X4791709Y48514D01*
G03X4810206Y105104I-77317J56590D01*
G01X4810206Y235104D01*
G03X4618579Y235104I-95814J0D01*
G01X4618579Y105104D01*
G03X4637076Y48514I95814J0D01*
G01X2767024Y48514D01*
G03X2785521Y105104I-77317J56590D01*
G01X2785521Y235104D01*
G03X2593894Y235104I-95814J0D01*
G01X2593894Y105104D01*
G03X2612391Y48514I95814J0D01*
G01X1477009Y48514D01*
G03X1495506Y105104I-77317J56590D01*
G01X1495506Y235104D01*
G03X1303879Y235104I-95814J0D01*
G01X1303879Y105104D01*
G03X1322376Y48514I95814J0D01*
G01X-1677976Y48514D01*
G03X-1659479Y105104I-77317J56590D01*
G01X-1659479Y235104D01*
G03X-1851106Y235104I-95814J0D01*
G01X-1851106Y105104D01*
G03X-1832609Y48514I95814J0D01*
G01X-2967991Y48514D01*
G03X-2949494Y105104I-77317J56590D01*
G01X-2949494Y235104D01*
G03X-3141121Y235104I-95814J0D01*
G01X-3141121Y105104D01*
G03X-3122624Y48514I95814J0D01*
G01X-5150216Y48514D01*
G03X-5110488Y126197I-56086J77683D01*
G01X-5110488Y186197D01*
G03X-5302115Y186197I-95814J0D01*
G01X-5302115Y126197D01*
G03X-5262387Y48514I95814J0D01*
G01X-57792Y2450846D02*
G03X-62605Y2421403I61362J-25146D01*
G03X-75945Y2418557I664J-35808D01*
G03X-89950Y2421409I-14004J-32962D01*
G01X-114951Y2421409D01*
G03X-128942Y2418563I0J-35814D01*
G03X-142934Y2421409I-13992J-32968D01*
G01X-167935Y2421409D01*
G03X-203749Y2385595I0J-35814D01*
G01X-203749Y2329989D01*
G03X-203949Y2325595I48315J-4394D01*
G01X-203949Y2144463D01*
G01X-322995Y2025416D01*
G01X-375200Y2025416D01*
G03X-411014Y1989602I0J-35814D01*
G01X-411014Y1909602D01*
G03X-394757Y1879600I35814J0D01*
G03X-411014Y1849598I19557J-30002D01*
G01X-411014Y1769598D01*
G03X-375200Y1733784I35814J0D01*
G01X-285200Y1733784D01*
G03X-249386Y1769598I0J35814D01*
G01X-249386Y1849598D01*
G03X-265643Y1879600I-35814J0D01*
G03X-250413Y1901088I-19557J30002D01*
G01X-232187Y1901088D01*
G03X-216957Y1879600I34787J8514D01*
G03X-233214Y1849598I19557J-30002D01*
G01X-233214Y1769598D01*
G03X-197400Y1733784I35814J0D01*
G01X-107400Y1733784D01*
G03X-71586Y1769598I0J35814D01*
G01X-71586Y1849598D01*
G03X-87843Y1879600I-35814J0D01*
G03X-71586Y1909602I-19557J30002D01*
G01X-71586Y1989602D01*
G03X-107400Y2025416I-35814J0D01*
G01X-185777Y2025416D01*
G01X-121130Y2090063D01*
G03X-106921Y2124368I-34305J34305D01*
G01X-106921Y2202531D01*
G03X-73498Y2189181I33423J35164D01*
G01X-34645Y2189181D01*
G01X-23114Y2177649D01*
G01X-23114Y2025244D01*
G03X-55414Y1989602I3514J-35641D01*
G01X-55414Y1909602D01*
G03X-39157Y1879600I35814J0D01*
G03X-55414Y1849598I19557J-30002D01*
G01X-55414Y1769598D01*
G03X-19600Y1733784I35814J0D01*
G01X70400Y1733784D01*
G03X106214Y1769598I0J35814D01*
G01X106214Y1849598D01*
G03X89957Y1879600I-35814J0D01*
G03X105187Y1901088I-19557J30002D01*
G01X123413Y1901088D01*
G03X138643Y1879600I34787J8514D01*
G03X122386Y1849598I19557J-30002D01*
G01X122386Y1769598D01*
G03X158200Y1733784I35814J0D01*
G01X248200Y1733784D01*
G03X284014Y1769598I0J35814D01*
G01X284014Y1849598D01*
G03X267757Y1879600I-35814J0D01*
G03X284014Y1909602I-19557J30002D01*
G01X284014Y1989602D01*
G03X248200Y2025416I-35814J0D01*
G01X158200Y2025416D01*
G03X123413Y1998116I0J-35814D01*
G01X105187Y1998116D01*
G03X73914Y2025244I-34787J-8514D01*
G01X73914Y2063787D01*
G03X143620Y2030233I58216J31757D01*
G03X197689Y2085563I-11490J65311D01*
G03X253555Y2143262I-9980J65559D01*
G01X261376Y2143262D01*
G03X295681Y2157472I0J48514D01*
G01X375469Y2237260D01*
G03X461022Y2284529I21100J62868D01*
G03X406549Y2365686I-64453J15598D01*
G03X389815Y2400581I-65559J-9980D01*
G01X985210Y2400581D01*
G01X2156880Y1228910D01*
G01X2088700Y1228910D01*
G03X2072600Y1225087I0J-35814D01*
G03X2062904Y1238957I-44000J-20435D01*
G01X2046561Y1255301D01*
G03X2012256Y1269511I-34305J-34305D01*
G01X1877144Y1269511D01*
G03X1842840Y1255301I0J-48514D01*
G01X1786106Y1198568D01*
G03X1771070Y1222562I-35394J-5471D01*
G03X1782614Y1248898I-24271J26336D01*
G01X1782614Y1328898D01*
G03X1766357Y1358900I-35814J0D01*
G03X1782614Y1388902I-19557J30002D01*
G01X1782614Y1468902D01*
G03X1746800Y1504716I-35814J0D01*
G01X1656800Y1504716D01*
G03X1620986Y1468902I0J-35814D01*
G01X1620986Y1388902D01*
G03X1637243Y1358900I35814J0D01*
G03X1620986Y1328898I19557J-30002D01*
G01X1620986Y1248898D01*
G03X1628205Y1227334I35814J0D01*
G03X1602900Y1193096I10509J-34238D01*
G01X1602900Y1094560D01*
G03X1545657Y1090162I-24042J-61802D01*
G03X1513299Y1042738I33201J-57404D01*
G03X1457076Y973341I9980J-65559D01*
G03X1520943Y910906I66203J3839D01*
G01X1521660Y910189D01*
G01X1521660Y851306D01*
G03X1535869Y817001I48514J0D01*
G01X1576019Y776851D01*
G03X1610324Y762642I34305J34305D01*
G01X1779103Y762642D01*
G03X1813408Y776851I0J48514D01*
G01X1853557Y817001D01*
G03X1867767Y851306I-34305J34305D01*
G01X1867767Y876037D01*
G03X1888701Y869282I20934J29059D01*
G01X2000700Y869282D01*
G03X2036514Y905096I0J35814D01*
G01X2036514Y1054707D01*
G01X2052886Y1038334D01*
G01X2052886Y905096D01*
G03X2088700Y869282I35814J0D01*
G01X2200699Y869282D01*
G03X2236513Y905096I0J35814D01*
G01X2236513Y1149278D01*
G01X2262273Y1123518D01*
G01X2262273Y868139D01*
G03X2276483Y833835I48514J0D01*
G01X2333466Y776851D01*
G03X2367771Y762642I34305J34305D01*
G01X5093803Y762642D01*
G03X5128108Y776851I0J48514D01*
G01X5154538Y803282D01*
G01X5326956Y803282D01*
G03X5361261Y817491I0J48514D01*
G01X5413051Y869282D01*
G01X5515399Y869282D01*
G03X5551213Y905096I0J35814D01*
G01X5551213Y1193096D01*
G03X5515399Y1228910I-35814J0D01*
G01X5403400Y1228910D01*
G03X5367586Y1193096I0J-35814D01*
G01X5367586Y961035D01*
G01X5351214Y944663D01*
G01X5351214Y1193096D01*
G03X5315400Y1228910I-35814J0D01*
G01X5203401Y1228910D01*
G03X5167587Y1193096I0J-35814D01*
G01X5167587Y1011023D01*
G01X5101227Y944663D01*
G01X5101227Y1193096D01*
G03X5082647Y1224491I-35814J0D01*
G03X5084614Y1236198I-33847J11706D01*
G01X5084614Y1316198D01*
G03X5068357Y1346200I-35814J0D01*
G03X5084614Y1376202I-19557J30002D01*
G01X5084614Y1456202D01*
G03X5052314Y1491844I-35814J0D01*
G01X5052314Y1567690D01*
G03X5003800Y1679214I-48514J45210D01*
G03X4955286Y1567690I0J-66314D01*
G01X4955286Y1491844D01*
G03X4922986Y1456202I3514J-35641D01*
G01X4922986Y1376202D01*
G03X4939243Y1346200I35814J0D01*
G03X4922986Y1316198I19557J-30002D01*
G01X4922986Y1236198D01*
G03X4927849Y1218178I35814J0D01*
G03X4917600Y1193096I25565J-25082D01*
G01X4917600Y944663D01*
G01X3338223Y2524039D01*
G03X3303918Y2538249I-34305J-34305D01*
G01X308363Y2538249D01*
G01X261621Y2584990D01*
G03X264072Y2600215I-46063J15224D01*
G01X264072Y2685614D01*
G03X263872Y2690008I-48514J0D01*
G01X263872Y2745614D01*
G03X228058Y2781428I-35814J0D01*
G01X203057Y2781428D01*
G03X189053Y2778577I0J-35814D01*
G03X175049Y2781428I-14004J-32962D01*
G01X150047Y2781428D01*
G03X136056Y2778582I0J-35814D01*
G03X122064Y2781428I-13992J-32968D01*
G01X97063Y2781428D01*
G03X83059Y2778577I0J-35814D01*
G03X70204Y2781410I-14004J-32962D01*
G01X87667Y2798872D01*
G03X101876Y2833177I-34305J34305D01*
G01X101876Y3151729D01*
G03X182566Y3176907I25124J61371D01*
G03X172977Y3260888I-55566J36193D01*
G01X172977Y3316221D01*
G03X203477Y3351639I-5314J35418D01*
G01X203477Y3432286D01*
G03X175197Y3467299I-35814J0D01*
G03X203477Y3502312I-7534J35013D01*
G01X203477Y3582959D01*
G03X192490Y3608771I-35814J0D01*
G03X201242Y3610496I-2497J35727D01*
G03X212491Y3608683I11249J34002D01*
G01X229652Y3608683D01*
G03X211286Y3577407I17448J-31276D01*
G01X211286Y3497407D01*
G03X227543Y3467405I35814J0D01*
G03X211286Y3437402I19557J-30002D01*
G01X211286Y3357402D01*
G03X230886Y3325469I35814J0D01*
G01X230886Y3258310D01*
G03X279400Y3146786I48514J-45210D01*
G03X327914Y3258310I0J66314D01*
G01X327914Y3321588D01*
G01X337100Y3321588D01*
G03X372914Y3357402I0J35814D01*
G01X372914Y3437402D01*
G03X356657Y3467405I-35814J0D01*
G03X372914Y3497407I-19557J30002D01*
G01X372914Y3577407D01*
G03X353582Y3609203I-35814J0D01*
G03X381789Y3634151I-6079J35294D01*
G03X523312Y3709488I50709J75338D01*
G01X523312Y3799488D01*
G03X351299Y3840155I-90814J0D01*
G03X263847Y3872709I-62311J-33648D01*
G03X220050Y3790311I25141J-66202D01*
G01X212491Y3790311D01*
G03X201242Y3788499I0J-35814D01*
G03X189993Y3790311I-11249J-34002D01*
G01X159993Y3790311D01*
G03X149987Y3788885I0J-35814D01*
G03X139981Y3790311I-10006J-34388D01*
G01X116420Y3790311D01*
G01X116420Y3791454D01*
G03X102211Y3825758I-48514J0D01*
G01X85867Y3842102D01*
G03X51563Y3856311I-34305J-34305D01*
G01X-1550Y3856311D01*
G03X-35855Y3842102I0J-48514D01*
G01X-52198Y3825758D01*
G03X-66408Y3791454I34305J-34305D01*
G01X-66408Y3790311D01*
G01X-89993Y3790311D01*
G03X-100000Y3788885I0J-35814D01*
G03X-110006Y3790311I-10006J-34388D01*
G01X-140006Y3790311D01*
G03X-150012Y3788885I0J-35814D01*
G03X-160019Y3790311I-10006J-34388D01*
G01X-190019Y3790311D01*
G03X-201268Y3788499I0J-35814D01*
G03X-212517Y3790311I-11249J-34002D01*
G01X-220076Y3790311D01*
G03X-263859Y3872705I-68938J16196D01*
G03X-351311Y3840180I-25154J-66197D01*
G03X-523312Y3799488I-81187J-40692D01*
G01X-523312Y3709488D01*
G03X-381789Y3634151I90814J0D01*
G03X-347502Y3608683I34287J10347D01*
G01X-292501Y3608683D01*
G03X-280010Y3610933I0J35814D01*
G03X-267518Y3608683I12492J33565D01*
G01X-254284Y3608683D01*
G03X-256814Y3595460I33283J-13223D01*
G01X-256814Y3514813D01*
G03X-228534Y3479800I35814J0D01*
G03X-256814Y3444787I7534J-35013D01*
G01X-256814Y3364140D01*
G03X-226314Y3328722I35814J0D01*
G01X-226314Y3258310D01*
G03X-177800Y3146786I48514J-45210D01*
G03X-129286Y3258310I0J66314D01*
G01X-129286Y3328722D01*
G03X-98786Y3364140I-5314J35418D01*
G01X-98786Y3444787D01*
G03X-127066Y3479800I-35814J0D01*
G03X-98786Y3514813I-7534J35013D01*
G01X-98786Y3595211D01*
G01X-85867Y3582293D01*
G03X-76762Y3575141I34305J34305D01*
G03X-77023Y3570119I48253J-5023D01*
G01X-77023Y3082736D01*
G01X-146409Y3082736D01*
G03X-182223Y3046922I0J-35814D01*
G01X-182223Y2966922D01*
G03X-165966Y2936919I35814J0D01*
G03X-182223Y2906917I19557J-30002D01*
G01X-182223Y2826917D01*
G03X-146409Y2791103I35814J0D01*
G01X-93600Y2791103D01*
G03X-96823Y2781428I44159J-20089D01*
G01X-114951Y2781428D01*
G03X-128942Y2778582I0J-35814D01*
G03X-142934Y2781428I-13992J-32968D01*
G01X-167935Y2781428D01*
G03X-203749Y2745614I0J-35814D01*
G01X-203749Y2736184D01*
G03X-227164Y2685614I42899J-50569D01*
G03X-203749Y2635045I66314J0D01*
G01X-203749Y2625615D01*
G03X-167935Y2589801I35814J0D01*
G01X-142934Y2589801D01*
G03X-128942Y2592647I0J35814D01*
G03X-114951Y2589801I13992J32968D01*
G01X-89950Y2589801D01*
G03X-75945Y2592652I0J35814D01*
G03X-61941Y2589801I14004J32962D01*
G01X-36940Y2589801D01*
G03X-22935Y2592652I0J35814D01*
G03X-8931Y2589801I14004J32962D01*
G01X9171Y2589801D01*
G01X9472Y2588514D01*
G01X-3042175Y2588514D01*
G03X-3076480Y2574305I0J-48514D01*
G01X-5115488Y535297D01*
G01X-5115488Y621212D01*
G03X-5215086Y711600I-90814J0D01*
G01X-5215086Y782798D01*
G03X-5231343Y812800I-35814J0D01*
G03X-5215086Y842802I-19557J30002D01*
G01X-5215086Y922802D01*
G03X-5250900Y958616I-35814J0D01*
G01X-5340900Y958616D01*
G03X-5376714Y922802I0J-35814D01*
G01X-5376714Y842802D01*
G03X-5360457Y812800I35814J0D01*
G03X-5376714Y782798I19557J-30002D01*
G01X-5376714Y722017D01*
G01X-5396581Y722017D01*
G03X-5394686Y733513I-33919J11496D01*
G01X-5394686Y814160D01*
G03X-5422966Y849173I-35814J0D01*
G03X-5394686Y884185I-7534J35013D01*
G01X-5394686Y964833D01*
G03X-5430500Y1000647I-35814J0D01*
G01X-5516900Y1000647D01*
G03X-5552714Y964833I0J-35814D01*
G01X-5552714Y884185D01*
G03X-5524434Y849173I35814J0D01*
G03X-5552714Y814160I7534J-35013D01*
G01X-5552714Y748189D01*
G01X-5552933Y748407D01*
G03X-5587237Y762617I-34305J-34305D01*
G01X-5640350Y762617D01*
G03X-5674655Y748407I0J-48514D01*
G01X-5690041Y733021D01*
G03X-5686786Y747940I-32559J14919D01*
G01X-5686786Y828587D01*
G03X-5715066Y863600I-35814J0D01*
G03X-5686786Y898613I-7534J35013D01*
G01X-5686786Y979260D01*
G03X-5722600Y1015074I-35814J0D01*
G01X-5809000Y1015074D01*
G03X-5844814Y979260I0J-35814D01*
G01X-5844814Y898613D01*
G03X-5816534Y863600I35814J0D01*
G03X-5844814Y828587I7534J-35013D01*
G01X-5844814Y747940D01*
G03X-5833396Y721720I35814J0D01*
G03X-5840042Y720204I4603J-35517D01*
G03X-5851291Y722017I-11249J-34002D01*
G01X-5906292Y722017D01*
G03X-5918797Y719763I0J-35814D01*
G03X-5931301Y722017I-12504J-33560D01*
G01X-5986302Y722017D01*
G03X-6020589Y696549I0J-35814D01*
G03X-6162112Y621212I-50709J-75338D01*
G01X-6162112Y531212D01*
G03X-5990099Y490545I90814J0D01*
G03X-5902647Y457991I62311J33648D01*
G03X-5858850Y540389I-25141J66202D01*
G01X-5851291Y540389D01*
G03X-5840042Y542201I0J35814D01*
G03X-5828793Y540389I11249J34002D01*
G01X-5798793Y540389D01*
G03X-5788787Y541815I0J35814D01*
G03X-5778781Y540389I10006J34388D01*
G01X-5755220Y540389D01*
G01X-5755220Y526546D01*
G03X-5741011Y492242I48514J0D01*
G01X-5724667Y475898D01*
G03X-5690363Y461689I34305J34305D01*
G01X-5637250Y461689D01*
G03X-5620795Y464564I0J48514D01*
G01X-5591489Y435258D01*
G03X-5557184Y421049I34305J34305D01*
G01X-5520711Y421049D01*
G01X-5433109Y333447D01*
G03X-5398805Y319237I34305J34305D01*
G01X-5156950Y319237D01*
G03X-5122645Y333447I0J48514D01*
G01X-3005246Y2450846D01*
G01X-57792Y2450846D01*
G01X-2842100Y1193096D02*
G01X-2842100Y905096D01*
G03X-2806286Y869282I35814J0D01*
G01X-2694287Y869282D01*
G03X-2658473Y905096I0J35814D01*
G01X-2658473Y1193096D01*
G03X-2668888Y1218346I-35814J0D01*
G01X-2668888Y1297300D01*
G03X-2685145Y1327302I-35814J0D01*
G03X-2668888Y1357305I-19557J30002D01*
G01X-2668888Y1437305D01*
G03X-2701188Y1472946I-35814J0D01*
G01X-2701188Y1498091D01*
G03X-2733541Y1615007I-42012J51309D01*
G03X-2798216Y1512376I-9659J-65607D01*
G01X-2798216Y1472946D01*
G03X-2830516Y1437305I3514J-35641D01*
G01X-2830516Y1357305D01*
G03X-2814260Y1327302I35814J0D01*
G03X-2830516Y1297300I19557J-30002D01*
G01X-2830516Y1219469D01*
G03X-2842100Y1193096I24230J-26373D01*
G01X-2556299Y1228910D02*
G03X-2592113Y1193096I0J-35814D01*
G01X-2592113Y905096D01*
G03X-2556299Y869282I35814J0D01*
G01X-2444300Y869282D01*
G03X-2408486Y905096I0J35814D01*
G01X-2408486Y1004396D01*
G03X-2400936Y1003696I9886J65573D01*
G01X-2397732Y1000491D01*
G03X-2392114Y995672I34305J34305D01*
G01X-2392114Y905096D01*
G03X-2356300Y869282I35814J0D01*
G01X-2244301Y869282D01*
G03X-2208487Y905096I0J35814D01*
G01X-2208487Y1193096D01*
G03X-2244301Y1228910I-35814J0D01*
G01X-2252293Y1228910D01*
G03X-2233891Y1325611I-34458J56659D01*
G03X-2331962Y1334083I-52860J-40042D01*
G01X-2359331Y1334083D01*
G03X-2393636Y1319874I0J-48514D01*
G01X-2484599Y1228910D01*
G01X-2556299Y1228910D01*
G01X-2106313Y1228910D02*
G03X-2142127Y1193096I0J-35814D01*
G01X-2142127Y905096D01*
G03X-2106313Y869282I35814J0D01*
G01X-1994314Y869282D01*
G03X-1958500Y905096I0J35814D01*
G01X-1958500Y1193096D01*
G03X-1994314Y1228910I-35814J0D01*
G01X-1996186Y1228910D01*
G01X-1996186Y1262890D01*
G03X-2044700Y1374414I-48514J45210D01*
G03X-2093214Y1262890I0J-66314D01*
G01X-2093214Y1228910D01*
G01X-2106313Y1228910D01*
G01X-362230Y2912140D02*
G01X-362230Y2832140D01*
G03X-326416Y2796326I35814J0D01*
G01X-236416Y2796326D01*
G03X-200602Y2832140I0J35814D01*
G01X-200602Y2912140D01*
G03X-216859Y2942143I-35814J0D01*
G03X-200602Y2972145I-19557J30002D01*
G01X-200602Y3052145D01*
G03X-236416Y3087959I-35814J0D01*
G01X-326416Y3087959D01*
G03X-362230Y3052145I0J-35814D01*
G01X-362230Y2972145D01*
G03X-345973Y2942143I35814J0D01*
G03X-362230Y2912140I19557J-30002D01*
G01X5653387Y1228910D02*
G03X5617573Y1193096I0J-35814D01*
G01X5617573Y905096D01*
G03X5653387Y869282I35814J0D01*
G01X5765386Y869282D01*
G03X5801200Y905096I0J35814D01*
G01X5801200Y1193096D01*
G03X5765386Y1228910I-35814J0D01*
G01X5763514Y1228910D01*
G01X5763514Y1313690D01*
G03X5715000Y1425214I-48514J45210D01*
G03X5666486Y1313690I0J-66314D01*
G01X5666486Y1228910D01*
G01X5653387Y1228910D01*
G54D11*
G01X-5878792Y631203D02*
G01X-5878792Y711857D01*
G01X-5765800Y938936D02*
G01X-5765800Y1004914D01*
G01X-5765800Y938936D02*
G01X-5834654Y938936D01*
G01X-5765800Y938936D02*
G01X-5696946Y938936D01*
G01X-5473700Y924509D02*
G01X-5473700Y990487D01*
G01X-5473700Y924509D02*
G01X-5404846Y924509D01*
G01X-5473700Y924509D02*
G01X-5542554Y924509D01*
G01X-5295900Y742798D02*
G01X-5366554Y742798D01*
G01X-5295900Y742798D02*
G01X-5225246Y742798D01*
G01X-2750287Y1049096D02*
G01X-2831940Y1049096D01*
G01X-2750287Y1049096D02*
G01X-2668633Y1049096D01*
G01X-2750287Y1049096D02*
G01X-2750287Y879442D01*
G01X-2749702Y1257300D02*
G01X-2820356Y1257300D01*
G01X-2749702Y1257300D02*
G01X-2679048Y1257300D01*
G01X-281416Y2872140D02*
G01X-281416Y2806486D01*
G01X-281416Y2872140D02*
G01X-352070Y2872140D01*
G01X-281416Y2872140D02*
G01X-210762Y2872140D01*
G01X-101409Y2866917D02*
G01X-101409Y2801263D01*
G01X-101409Y2866917D02*
G01X-172063Y2866917D01*
G01X292100Y3537407D02*
G01X362754Y3537407D01*
G01X292100Y3537407D02*
G01X221446Y3537407D01*
G01X1701800Y1288898D02*
G01X1631146Y1288898D01*
G01X1701800Y1288898D02*
G01X1772454Y1288898D01*
G01X5003800Y1276198D02*
G01X4933146Y1276198D01*
G01X5003800Y1276198D02*
G01X5074454Y1276198D01*
G01X5009413Y1049096D02*
G01X4927760Y1049096D01*
G01X5009413Y1049096D02*
G01X5091067Y1049096D01*
G04 Copper End*

G04 Pad Start*
G54D12*
G01X1701800Y1428902D03*
G01X1701800Y1288898D03*
G01X-2749702Y1397305D03*
G01X-2749702Y1257300D03*
G01X-5295900Y882802D03*
G01X-5295900Y742798D03*
G01X292100Y3397402D03*
G01X292100Y3537407D03*
G01X5003800Y1416202D03*
G01X5003800Y1276198D03*
G01X-101409Y3006922D03*
G01X-101409Y2866917D03*
G01X-281416Y3012145D03*
G01X-281416Y2872140D03*
G01X-330200Y1809598D03*
G01X-330200Y1949602D03*
G01X-152400Y1809598D03*
G01X-152400Y1949602D03*
G01X25400Y1809598D03*
G01X25400Y1949602D03*
G01X203200Y1809598D03*
G01X203200Y1949602D03*
G54D13*
G01X124463Y3542635D03*
G01X124463Y3391962D03*
G01X-177800Y3555136D03*
G01X-177800Y3404464D03*
G01X-5765800Y938936D03*
G01X-5765800Y788264D03*
G01X-5473700Y773836D03*
G01X-5473700Y924509D03*
G54D14*
G01X215558Y2685614D03*
G01X162548Y2685614D03*
G01X109564Y2685614D03*
G01X56554Y2685614D03*
G01X3569Y2685614D03*
G01X-49440Y2685614D03*
G01X-102450Y2685614D03*
G01X-155435Y2685614D03*
G01X-155435Y2325595D03*
G01X-102450Y2325595D03*
G01X-49440Y2325595D03*
G01X3569Y2325595D03*
G01X56554Y2325595D03*
G01X109564Y2325595D03*
G01X162548Y2325595D03*
G01X215558Y2325595D03*
G54D16*
G01X320002Y3699497D03*
G01X239992Y3699497D03*
G54D17*
G01X174993Y3699497D03*
G01X124981Y3699497D03*
G01X74994Y3699497D03*
G01X25006Y3699497D03*
G01X-25006Y3699497D03*
G01X-74993Y3699497D03*
G01X-125006Y3699497D03*
G01X-175019Y3699497D03*
G54D16*
G01X-240017Y3699497D03*
G01X-320002Y3699497D03*
G54D18*
G01X432499Y3754488D03*
G01X-432498Y3754488D03*
G54D19*
G01X432499Y4174503D03*
G01X-432498Y4174503D03*
G54D16*
G01X-5958802Y631203D03*
G01X-5878792Y631203D03*
G54D17*
G01X-5813793Y631203D03*
G01X-5763781Y631203D03*
G01X-5713793Y631203D03*
G01X-5663806Y631203D03*
G01X-5613794Y631203D03*
G01X-5563806Y631203D03*
G01X-5513794Y631203D03*
G01X-5463781Y631203D03*
G54D16*
G01X-5398783Y631203D03*
G01X-5318798Y631203D03*
G54D18*
G01X-6071298Y576212D03*
G01X-5206301Y576212D03*
G54D19*
G01X-6071298Y156197D03*
G01X-5206301Y156197D03*
G54D20*
G01X5709387Y1049096D03*
G01X5459400Y1049096D03*
G01X5259400Y1049096D03*
G01X5009413Y1049096D03*
G54D21*
G01X6004408Y170104D03*
G01X4714392Y170104D03*
G54D20*
G01X-2050313Y1049096D03*
G01X-2300300Y1049096D03*
G01X-2500300Y1049096D03*
G01X-2750287Y1049096D03*
G54D21*
G01X-1755292Y170104D03*
G01X-3045308Y170104D03*
G54D20*
G01X2394687Y1049096D03*
G01X2144700Y1049096D03*
G01X1944700Y1049096D03*
G01X1694713Y1049096D03*
G54D21*
G01X2689708Y170104D03*
G01X1399692Y170104D03*
G04 Pad End*

G04 Via Start*
G54D22*
G01X2400300Y1270000D03*
G01X-2044700Y1308100D03*
G01X-2743200Y1549400D03*
G01X127000Y3213100D03*
G01X279400Y3213100D03*
G01X-177800Y3213100D03*
G01X5715000Y1358900D03*
G01X5003800Y1612900D03*
G01X-330200Y1809598D03*
G01X-152400Y1809598D03*
G01X25400Y1809598D03*
G01X203200Y1809598D03*
G01X-101409Y3006922D03*
G01X-281416Y3012145D03*
G01X-160850Y2685614D03*
G01X-5295900Y882802D03*
G01X187708Y2151122D03*
G01X132130Y2095544D03*
G01X1578858Y1032758D03*
G01X1523279Y977179D03*
G01X1701800Y1428902D03*
G01X340990Y2355706D03*
G01X396569Y2300127D03*
G01X-2286752Y1285569D03*
G01X-2398600Y1069969D03*
G01X3569Y2425700D03*
G04 Via End*

G04 Track Start*
G54D11*
G01X-175019Y3724897D02*
G01X-175019Y3557918D01*
G01X-177800Y3555136D01*
G01X124981Y3724897D02*
G01X124981Y3543153D01*
G01X124463Y3542635D01*
G01X-101409Y2866917D02*
G01X-101409Y2686656D01*
G01X-102450Y2685614D01*
G01X-101409Y2866917D02*
G01X-276193Y2866917D01*
G01X-281416Y2872140D01*
G01X-5463781Y593103D02*
G01X-5463781Y725818D01*
G01X-5473700Y735736D01*
G01X-2750287Y1023696D02*
G01X-2750287Y1256716D01*
G01X-2749702Y1257300D01*
G01X1694713Y1023696D02*
G01X1701800Y1030783D01*
G01X1701800Y1288898D01*
G01X5009413Y1023696D02*
G01X5009413Y1270584D01*
G01X5003800Y1276198D01*
G01X-49440Y2771014D02*
G01X-49440Y2685614D01*
G01X-43255Y2777199D02*
G01X-49440Y2771014D01*
G01X-43255Y2800614D02*
G01X-43255Y2777199D01*
G01X-28509Y2815361D02*
G01X-43255Y2800614D01*
G01X53362Y3594516D02*
G01X74994Y3616147D01*
G01X74994Y3724897D01*
G01X3569Y2685614D02*
G01X3569Y2783384D01*
G01X53362Y2833177D01*
G01X74994Y3724897D02*
G01X67906Y3731984D01*
G01X67906Y3791454D01*
G01X51563Y3807797D01*
G01X-1550Y3807797D01*
G01X-17894Y3791454D01*
G01X-17894Y3732010D01*
G01X-25006Y3724897D01*
G01X-67906Y3717810D02*
G01X-74993Y3724897D01*
G01X109564Y2685614D02*
G01X109564Y2600215D01*
G01X56554Y2685614D02*
G01X56554Y2600215D01*
G01X62739Y2594030D01*
G01X62739Y2568630D01*
G01X109564Y2600215D02*
G01X103379Y2594030D01*
G01X103379Y2551796D01*
G01X-5540350Y510203D02*
G01X-5556694Y526546D01*
G01X-5556694Y585990D01*
G01X-5500616Y469563D02*
G01X-5557184Y469563D01*
G01X-5483782Y510203D02*
G01X-5540350Y510203D01*
G01X-5398805Y367751D02*
G01X-5500616Y469563D01*
G01X-5381971Y408391D02*
G01X-5483782Y510203D01*
G01X-5557184Y469563D02*
G01X-5613794Y526172D01*
G01X-5613794Y593103D01*
G01X215558Y2685614D02*
G01X215558Y2600215D01*
G01X162548Y2685614D02*
G01X162548Y2600215D01*
G01X215558Y2600215D02*
G01X209373Y2594030D01*
G01X209373Y2568630D01*
G01X162548Y2600215D02*
G01X168733Y2594030D01*
G01X168733Y2551796D01*
G01X271434Y2449095D01*
G01X209373Y2568630D02*
G01X288268Y2489735D01*
G01X5093803Y811156D02*
G01X5134443Y851796D01*
G01X5326956Y851796D01*
G01X2310787Y868139D02*
G01X2367771Y811156D01*
G01X5326956Y851796D02*
G01X5459400Y984240D01*
G01X5459400Y1023696D01*
G01X5076969Y851796D02*
G01X5248870Y1023696D01*
G01X5259400Y1023696D01*
G01X-5156950Y367751D02*
G01X-5398805Y367751D01*
G01X-5173784Y408391D02*
G01X-5381971Y408391D01*
G01X62739Y2568630D02*
G01X34109Y2540000D01*
G01X-3042175Y2540000D01*
G01X-5173784Y408391D01*
G01X103379Y2551796D02*
G01X50943Y2499360D01*
G01X-3025341Y2499360D01*
G01X-5156950Y367751D01*
G01X-155435Y2325595D02*
G01X-155435Y2124368D01*
G01X-330200Y1949602D01*
G01X-152400Y1949602D01*
G01X25400Y2197745D02*
G01X25400Y1949602D01*
G01X-73498Y2237695D02*
G01X-14550Y2237695D01*
G01X25400Y2197745D01*
G01X25400Y1949602D02*
G01X203200Y1949602D01*
G01X-5656694Y600215D02*
G01X-5663806Y593103D01*
G01X-5613794Y593103D02*
G01X-5616054Y590843D01*
G01X-5616054Y583382D01*
G01X-5620906Y578529D01*
G01X-5620906Y526546D01*
G01X-5637250Y510203D01*
G01X-5690363Y510203D01*
G01X-5706706Y526546D01*
G01X-5706706Y586016D01*
G01X-5713793Y593103D01*
G01X124463Y3215637D02*
G01X127000Y3213100D01*
G01X124463Y3391962D02*
G01X124463Y3215637D01*
G01X-2050313Y1023696D02*
G01X-2044700Y1029310D01*
G01X-2044700Y1308100D01*
G01X2394687Y1023696D02*
G01X2400300Y1029310D01*
G01X2400300Y1270000D01*
G01X5709387Y1023696D02*
G01X5715000Y1029310D01*
G01X5715000Y1358900D01*
G01X5003800Y1416202D02*
G01X5003800Y1612900D01*
G01X2367771Y811156D02*
G01X5093803Y811156D01*
G01X288268Y2489735D02*
G01X3303918Y2489735D01*
G01X4941858Y851796D01*
G01X5076969Y851796D01*
G01X320002Y3724897D02*
G01X377508Y3724897D01*
G01X432499Y3779888D01*
G01X-320002Y3724897D02*
G01X-374993Y3779888D01*
G01X-432498Y3779888D01*
G01X292100Y3397402D02*
G01X279400Y3384702D01*
G01X279400Y3213100D01*
G01X-102450Y2325595D02*
G01X-102450Y2266647D01*
G01X-73498Y2237695D01*
G01X-177800Y3404464D02*
G01X-177800Y3213100D01*
G01X-155435Y2685614D02*
G01X-160850Y2685614D01*
G01X-2749702Y1397305D02*
G01X-2749702Y1542898D01*
G01X-2743200Y1549400D01*
G01X56554Y2325595D02*
G01X56554Y2308761D01*
G01X109564Y2325595D02*
G01X122147Y2313011D01*
G01X122147Y2254038D01*
G01X56554Y2308761D02*
G01X69163Y2296152D01*
G01X132130Y2124110D02*
G01X132130Y2095544D01*
G01X122147Y2254038D02*
G01X187708Y2188477D01*
G01X187708Y2151122D01*
G01X69163Y2296152D02*
G01X69163Y2187077D01*
G01X132130Y2124110D01*
G01X2144700Y1040530D02*
G01X2144700Y1023696D01*
G01X2090233Y1069597D02*
G01X2115633Y1069597D01*
G01X2144700Y1040530D01*
G01X1914040Y1028957D02*
G01X1939440Y1028957D01*
G01X1944700Y1023696D01*
G01X1578858Y1032758D02*
G01X1610814Y1000801D01*
G01X1610814Y868139D01*
G01X1627158Y851796D01*
G01X1762269Y851796D01*
G01X1778613Y868139D01*
G01X2028600Y1131230D02*
G01X2090233Y1069597D01*
G01X1523279Y977179D02*
G01X1570174Y930284D01*
G01X1570174Y851306D01*
G01X1610324Y811156D01*
G01X1779103Y811156D01*
G01X1819253Y851306D01*
G01X1819253Y934170D01*
G01X1914040Y1028957D01*
G01X270694Y2258568D02*
G01X301463Y2289337D01*
G01X162548Y2325595D02*
G01X162548Y2263983D01*
G01X215558Y2325595D02*
G01X215558Y2268447D01*
G01X225437Y2258568D01*
G01X270694Y2258568D01*
G01X162548Y2263983D02*
G01X234755Y2191776D01*
G01X261376Y2191776D01*
G01X301463Y2316179D02*
G01X340990Y2355706D01*
G01X301463Y2289337D02*
G01X301463Y2316179D01*
G01X261376Y2191776D02*
G01X369727Y2300127D01*
G01X396569Y2300127D01*
G01X3569Y2325595D02*
G01X3569Y2425700D01*
G01X-2286752Y1285569D02*
G01X-2359331Y1285569D01*
G01X-2500300Y1144600D01*
G01X-2500300Y1023696D01*
G01X-2311400Y1034796D02*
G01X-2300300Y1023696D01*
G01X-2398600Y1069969D02*
G01X-2363427Y1034796D01*
G01X-2311400Y1034796D01*
G01X1877144Y1220997D02*
G01X2012256Y1220997D01*
G01X2028600Y1204653D01*
G01X1778613Y868139D02*
G01X1778613Y1122465D01*
G01X1877144Y1220997D01*
G01X2028600Y1204653D02*
G01X2028600Y1131230D01*
G01X53362Y2833177D02*
G01X53362Y3594516D01*
G01X25006Y3724897D02*
G01X25006Y3717436D01*
G01X17894Y3710324D01*
G01X-5295900Y742798D02*
G01X-5340502Y742798D01*
G01X-5374199Y709101D01*
G01X-5374199Y632901D01*
G01X-5398783Y608317D01*
G01X-5398783Y593103D01*
G01X-5318798Y631203D02*
G01X-5261292Y631203D01*
G01X-5206301Y576212D01*
G01X-5763781Y593103D02*
G01X-5763781Y737464D01*
G01X-5765800Y737464D01*
G01X-5570894Y697759D02*
G01X-5587237Y714103D01*
G01X-5640350Y714103D01*
G01X-5656694Y697759D01*
G01X-5570894Y600190D02*
G01X-5570894Y697759D01*
G01X-5656694Y697759D02*
G01X-5656694Y600215D01*
G01X-5570894Y600190D02*
G01X-5556694Y585990D01*
G01X-5958802Y631203D02*
G01X-6016307Y631203D01*
G01X-6071298Y576212D01*
G01X271434Y2449095D02*
G01X1005305Y2449095D01*
G01X2310787Y1143613D01*
G01X2310787Y868139D01*
G01X17894Y3632941D02*
G01X1550Y3616597D01*
G01X-51563Y3616597D01*
G01X-67906Y3632941D01*
G01X17894Y3710324D02*
G01X17894Y3632941D01*
G01X-67906Y3632941D02*
G01X-67906Y3717810D01*
G01X25006Y3717436D02*
G01X25006Y3623634D01*
G01X-28509Y3570119D01*
G01X-28509Y2815361D01*
G01X239992Y3699497D02*
G01X264601Y3674888D01*
G01X292100Y3605442D02*
G01X292100Y3537407D01*
G01X264601Y3674888D02*
G01X264601Y3632941D01*
G01X292100Y3605442D01*
G01X-240017Y3699497D02*
G01X-264601Y3674913D01*
G01X-354316Y3063702D02*
G01X-354316Y2960589D01*
G01X-281416Y2887689D01*
G01X-281416Y2872140D01*
G01X-264601Y3674913D02*
G01X-264601Y3153416D01*
G01X-354316Y3063702D01*
G04 Track End*

M02*

