G04 Layer: DrillDrawingLayer*
G04 EasyEDA Pro v3.2.148, 2026-09-02 20:01:09*
G04 Gerber Generator version 0.3*
G04 Scale: 100 percent, Rotated: No, Reflected: No*
G04 Dimensions in millimeters*
G04 Leading zeros omitted, absolute positions, 4 integers and 5 decimals*
G04 Generated by one-click*
G04 Object Configs: Pad,Via,Track,Text,Image,Dimension,BoardOutline,BoardCutout,CopperFilled,SolidRegion,FPCStiffener,Line,PlaneZone,ComponentProperty,ComponentSilkscreen,TearDrop*
G04 Layer Configs: 1,2,3,4,5,6,7,8,9,10,11,13,14,56*
G04 Copper Areas: 0*
%FSLAX45Y45*%
%MOMM*%
%AMIconRect*4,1,4,0.28,-0.28,-0.28,-0.28,-0.28,0.28,0.28,0.28,0.28,-0.28,0*4,0,4,0.233333,-0.233333,0.233333,0.233333,-0.233333,0.233333,-0.233333,-0.233333,0.233333,-0.233333,0*%
%AMIconTriangle*4,1,3,-0.339593,0.240473,0.339593,0.240473,0,-0.37884,-0.339593,0.240473,0*4,0,3,-0.265673,0.19404,0,-0.27342,0.266233,0.19404,-0.265673,0.19404,0*%
%AMIconStar6*4,1,12,0.12068,0.20888,0.298527,0.172713,0.241313,0,0.298527,-0.17206,0.12068,-0.208227,0,-0.344073,-0.120073,-0.208227,-0.298573,-0.17206,-0.240707,0,-0.298573,0.17206,-0.120073,0.20888,0,0.344073,0.12068,0.20888,0*4,0,12,-0.000467,0.273467,-0.090067,0.171733,-0.237533,0.136733,-0.193667,-0.007467,-0.237533,-0.1372,-0.090067,-0.171733,-0.000467,-0.273933,0.090067,-0.171733,0.237533,-0.1372,0.194133,0.007,0.237533,0.1372,0.090067,0.171267,-0.000467,0.273467,0*%
%AMIconStar4*4,1,8,-0.311733,0.311733,0,0.202533,0.311733,0.311733,0.202533,0,0.311733,-0.311733,0,-0.202533,-0.304407,-0.311733,-0.202533,0,-0.311733,0.311733,0*4,0,8,0.233333,-0.233333,0.1512,0,0.233333,0.233333,0,0.1512,-0.233333,0.233333,-0.1512,0,-0.233333,-0.233333,0,-0.1512,0.233333,-0.233333,0*%
%ADD10IconRect*%
%ADD11C,0.616X0.522667*%
%ADD12IconTriangle*%
%ADD13IconStar6*%
%ADD14IconStar4*%
%ADD15C,0.2032*%
%ADD16C,0.254*%
G75*


G04 Drill Drawing Start*
G54D10*
G01X-6071293Y576204D03*
G01X-5206291Y576202D03*
G01X-432509Y3754498D03*
G01X432493Y3754496D03*
G54D11*
G01X-6071298Y156197D03*
G01X-5206301Y156197D03*
G01X-432498Y4174503D03*
G01X432499Y4174503D03*
G54D12*
G01X-5927788Y524193D03*
G01X-5349786Y524193D03*
G01X-289014Y3806508D03*
G01X288989Y3806508D03*
G54D13*
G01X-3045300Y170096D03*
G01X-1755300Y170096D03*
G01X1399700Y170096D03*
G01X2689700Y170096D03*
G01X4714400Y170096D03*
G01X6004400Y170096D03*
G54D14*
G01X-5295900Y882802D03*
G01X-2743200Y1549400D03*
G01X-2398600Y1069969D03*
G01X-2286752Y1285569D03*
G01X-2044700Y1308100D03*
G01X-330200Y1809598D03*
G01X-281416Y3012145D03*
G01X-177800Y3213100D03*
G01X-160850Y2685614D03*
G01X-152400Y1809598D03*
G01X-101409Y3006922D03*
G01X3569Y2425700D03*
G01X25400Y1809598D03*
G01X127000Y3213100D03*
G01X132130Y2095544D03*
G01X187708Y2151122D03*
G01X203200Y1809598D03*
G01X279400Y3213100D03*
G01X340990Y2355706D03*
G01X396569Y2300127D03*
G01X1523279Y977179D03*
G01X1578858Y1032758D03*
G01X1701800Y1428902D03*
G01X2400300Y1270000D03*
G01X5003800Y1612900D03*
G01X5715000Y1358900D03*
G04 Drill Drawing End*

G04 Text Start*
G54D15*
G01X8586885Y4096294D02*
G01X8586885Y3976152D01*
G01X8586885Y4096294D02*
G01X8632605Y3976152D01*
G01X8678325Y4096294D02*
G01X8632605Y3976152D01*
G01X8678325Y4096294D02*
G01X8678325Y3976152D01*
G01X8794657Y4056162D02*
G01X8794657Y3976152D01*
G01X8794657Y4039144D02*
G01X8783227Y4050574D01*
G01X8771797Y4056162D01*
G01X8754779Y4056162D01*
G01X8743349Y4050574D01*
G01X8731919Y4039144D01*
G01X8726077Y4021872D01*
G01X8726077Y4010442D01*
G01X8731919Y3993424D01*
G01X8743349Y3981994D01*
G01X8754779Y3976152D01*
G01X8771797Y3976152D01*
G01X8783227Y3981994D01*
G01X8794657Y3993424D01*
G01X8842409Y4056162D02*
G01X8842409Y3976152D01*
G01X8842409Y4021872D02*
G01X8848251Y4039144D01*
G01X8859681Y4050574D01*
G01X8871111Y4056162D01*
G01X8888129Y4056162D01*
G01X8935881Y4096294D02*
G01X8935881Y3976152D01*
G01X8993031Y4056162D02*
G01X8935881Y3999012D01*
G01X8958741Y4021872D02*
G01X8998873Y3976152D01*
G01X10124165Y4067592D02*
G01X10118323Y4079022D01*
G01X10106893Y4090452D01*
G01X10095463Y4096294D01*
G01X10072603Y4096294D01*
G01X10061173Y4090452D01*
G01X10049743Y4079022D01*
G01X10044155Y4067592D01*
G01X10038313Y4050574D01*
G01X10038313Y4021872D01*
G01X10044155Y4004854D01*
G01X10049743Y3993424D01*
G01X10061173Y3981994D01*
G01X10072603Y3976152D01*
G01X10095463Y3976152D01*
G01X10106893Y3981994D01*
G01X10118323Y3993424D01*
G01X10124165Y4004854D01*
G01X10200619Y4056162D02*
G01X10189189Y4050574D01*
G01X10177759Y4039144D01*
G01X10171917Y4021872D01*
G01X10171917Y4010442D01*
G01X10177759Y3993424D01*
G01X10189189Y3981994D01*
G01X10200619Y3976152D01*
G01X10217637Y3976152D01*
G01X10229067Y3981994D01*
G01X10240497Y3993424D01*
G01X10246339Y4010442D01*
G01X10246339Y4021872D01*
G01X10240497Y4039144D01*
G01X10229067Y4050574D01*
G01X10217637Y4056162D01*
G01X10200619Y4056162D01*
G01X10294091Y4056162D02*
G01X10294091Y3999012D01*
G01X10299933Y3981994D01*
G01X10311363Y3976152D01*
G01X10328381Y3976152D01*
G01X10339811Y3981994D01*
G01X10357083Y3999012D01*
G01X10357083Y4056162D02*
G01X10357083Y3976152D01*
G01X10404835Y4056162D02*
G01X10404835Y3976152D01*
G01X10404835Y4033302D02*
G01X10422107Y4050574D01*
G01X10433537Y4056162D01*
G01X10450555Y4056162D01*
G01X10461985Y4050574D01*
G01X10467827Y4033302D01*
G01X10467827Y3976152D01*
G01X10532851Y4096294D02*
G01X10532851Y3999012D01*
G01X10538439Y3981994D01*
G01X10549869Y3976152D01*
G01X10561299Y3976152D01*
G01X10515579Y4056162D02*
G01X10555711Y4056162D01*
G01X11532486Y4079022D02*
G01X11521056Y4090452D01*
G01X11504038Y4096294D01*
G01X11481178Y4096294D01*
G01X11463906Y4090452D01*
G01X11452476Y4079022D01*
G01X11452476Y4067592D01*
G01X11458318Y4056162D01*
G01X11463906Y4050574D01*
G01X11475336Y4044732D01*
G01X11509626Y4033302D01*
G01X11521056Y4027714D01*
G01X11526898Y4021872D01*
G01X11532486Y4010442D01*
G01X11532486Y3993424D01*
G01X11521056Y3981994D01*
G01X11504038Y3976152D01*
G01X11481178Y3976152D01*
G01X11463906Y3981994D01*
G01X11452476Y3993424D01*
G01X11580238Y4096294D02*
G01X11586080Y4090452D01*
G01X11591668Y4096294D01*
G01X11586080Y4101882D01*
G01X11580238Y4096294D01*
G01X11586080Y4056162D02*
G01X11586080Y3976152D01*
G01X11702412Y4056162D02*
G01X11639420Y3976152D01*
G01X11639420Y4056162D02*
G01X11702412Y4056162D01*
G01X11639420Y3976152D02*
G01X11702412Y3976152D01*
G01X11750164Y4021872D02*
G01X11818744Y4021872D01*
G01X11818744Y4033302D01*
G01X11813156Y4044732D01*
G01X11807314Y4050574D01*
G01X11795884Y4056162D01*
G01X11778866Y4056162D01*
G01X11767436Y4050574D01*
G01X11756006Y4039144D01*
G01X11750164Y4021872D01*
G01X11750164Y4010442D01*
G01X11756006Y3993424D01*
G01X11767436Y3981994D01*
G01X11778866Y3976152D01*
G01X11795884Y3976152D01*
G01X11807314Y3981994D01*
G01X11818744Y3993424D01*
G01X15340345Y4096294D02*
G01X15340345Y3976152D01*
G01X15340345Y4096294D02*
G01X15391907Y4096294D01*
G01X15408925Y4090452D01*
G01X15414767Y4084864D01*
G01X15420355Y4073434D01*
G01X15420355Y4056162D01*
G01X15414767Y4044732D01*
G01X15408925Y4039144D01*
G01X15391907Y4033302D01*
G01X15340345Y4033302D01*
G01X15468107Y4096294D02*
G01X15468107Y3976152D01*
G01X15584439Y4056162D02*
G01X15584439Y3976152D01*
G01X15584439Y4039144D02*
G01X15573009Y4050574D01*
G01X15561579Y4056162D01*
G01X15544561Y4056162D01*
G01X15533131Y4050574D01*
G01X15521701Y4039144D01*
G01X15515859Y4021872D01*
G01X15515859Y4010442D01*
G01X15521701Y3993424D01*
G01X15533131Y3981994D01*
G01X15544561Y3976152D01*
G01X15561579Y3976152D01*
G01X15573009Y3981994D01*
G01X15584439Y3993424D01*
G01X15649463Y4096294D02*
G01X15649463Y3999012D01*
G01X15655051Y3981994D01*
G01X15666481Y3976152D01*
G01X15677911Y3976152D01*
G01X15632191Y4056162D02*
G01X15672323Y4056162D01*
G01X15725663Y4021872D02*
G01X15794243Y4021872D01*
G01X15794243Y4033302D01*
G01X15788655Y4044732D01*
G01X15782813Y4050574D01*
G01X15771383Y4056162D01*
G01X15754365Y4056162D01*
G01X15742935Y4050574D01*
G01X15731505Y4039144D01*
G01X15725663Y4021872D01*
G01X15725663Y4010442D01*
G01X15731505Y3993424D01*
G01X15742935Y3981994D01*
G01X15754365Y3976152D01*
G01X15771383Y3976152D01*
G01X15782813Y3981994D01*
G01X15794243Y3993424D01*
G01X15910575Y4096294D02*
G01X15910575Y3976152D01*
G01X15910575Y4039144D02*
G01X15899145Y4050574D01*
G01X15887715Y4056162D01*
G01X15870697Y4056162D01*
G01X15859267Y4050574D01*
G01X15847837Y4039144D01*
G01X15841995Y4021872D01*
G01X15841995Y4010442D01*
G01X15847837Y3993424D01*
G01X15859267Y3981994D01*
G01X15870697Y3976152D01*
G01X15887715Y3976152D01*
G01X15899145Y3981994D01*
G01X15910575Y3993424D01*
G01X16881763Y4079022D02*
G01X16870333Y4090452D01*
G01X16853315Y4096294D01*
G01X16830455Y4096294D01*
G01X16813183Y4090452D01*
G01X16801753Y4079022D01*
G01X16801753Y4067592D01*
G01X16807595Y4056162D01*
G01X16813183Y4050574D01*
G01X16824613Y4044732D01*
G01X16858903Y4033302D01*
G01X16870333Y4027714D01*
G01X16876175Y4021872D01*
G01X16881763Y4010442D01*
G01X16881763Y3993424D01*
G01X16870333Y3981994D01*
G01X16853315Y3976152D01*
G01X16830455Y3976152D01*
G01X16813183Y3981994D01*
G01X16801753Y3993424D01*
G01X16929515Y4096294D02*
G01X16929515Y3976152D01*
G01X16929515Y4033302D02*
G01X16946787Y4050574D01*
G01X16958217Y4056162D01*
G01X16975235Y4056162D01*
G01X16986665Y4050574D01*
G01X16992507Y4033302D01*
G01X16992507Y3976152D01*
G01X17108839Y4056162D02*
G01X17108839Y3976152D01*
G01X17108839Y4039144D02*
G01X17097409Y4050574D01*
G01X17085979Y4056162D01*
G01X17068961Y4056162D01*
G01X17057531Y4050574D01*
G01X17046101Y4039144D01*
G01X17040259Y4021872D01*
G01X17040259Y4010442D01*
G01X17046101Y3993424D01*
G01X17057531Y3981994D01*
G01X17068961Y3976152D01*
G01X17085979Y3976152D01*
G01X17097409Y3981994D01*
G01X17108839Y3993424D01*
G01X17156591Y4056162D02*
G01X17156591Y3936274D01*
G01X17156591Y4039144D02*
G01X17168021Y4050574D01*
G01X17179451Y4056162D01*
G01X17196723Y4056162D01*
G01X17208153Y4050574D01*
G01X17219583Y4039144D01*
G01X17225171Y4021872D01*
G01X17225171Y4010442D01*
G01X17219583Y3993424D01*
G01X17208153Y3981994D01*
G01X17196723Y3976152D01*
G01X17179451Y3976152D01*
G01X17168021Y3981994D01*
G01X17156591Y3993424D01*
G01X17272923Y4021872D02*
G01X17341503Y4021872D01*
G01X17341503Y4033302D01*
G01X17335915Y4044732D01*
G01X17330073Y4050574D01*
G01X17318643Y4056162D01*
G01X17301625Y4056162D01*
G01X17290195Y4050574D01*
G01X17278765Y4039144D01*
G01X17272923Y4021872D01*
G01X17272923Y4010442D01*
G01X17278765Y3993424D01*
G01X17290195Y3981994D01*
G01X17301625Y3976152D01*
G01X17318643Y3976152D01*
G01X17330073Y3981994D01*
G01X17341503Y3993424D01*
G01X18232934Y4096294D02*
G01X18278654Y3976152D01*
G01X18324374Y4096294D02*
G01X18278654Y3976152D01*
G01X18372126Y4096294D02*
G01X18377968Y4090452D01*
G01X18383556Y4096294D01*
G01X18377968Y4101882D01*
G01X18372126Y4096294D01*
G01X18377968Y4056162D02*
G01X18377968Y3976152D01*
G01X18499888Y4056162D02*
G01X18499888Y3976152D01*
G01X18499888Y4039144D02*
G01X18488458Y4050574D01*
G01X18477028Y4056162D01*
G01X18460010Y4056162D01*
G01X18448580Y4050574D01*
G01X18437150Y4039144D01*
G01X18431308Y4021872D01*
G01X18431308Y4010442D01*
G01X18437150Y3993424D01*
G01X18448580Y3981994D01*
G01X18460010Y3976152D01*
G01X18477028Y3976152D01*
G01X18488458Y3981994D01*
G01X18499888Y3993424D01*
G01X18650510Y4119154D02*
G01X18547640Y3936274D01*
G01X18698262Y4096294D02*
G01X18698262Y3976152D01*
G01X18698262Y4096294D02*
G01X18749824Y4096294D01*
G01X18766842Y4090452D01*
G01X18772684Y4084864D01*
G01X18778272Y4073434D01*
G01X18778272Y4056162D01*
G01X18772684Y4044732D01*
G01X18766842Y4039144D01*
G01X18749824Y4033302D01*
G01X18698262Y4033302D01*
G01X18894604Y4056162D02*
G01X18894604Y3976152D01*
G01X18894604Y4039144D02*
G01X18883174Y4050574D01*
G01X18871744Y4056162D01*
G01X18854726Y4056162D01*
G01X18843296Y4050574D01*
G01X18831866Y4039144D01*
G01X18826024Y4021872D01*
G01X18826024Y4010442D01*
G01X18831866Y3993424D01*
G01X18843296Y3981994D01*
G01X18854726Y3976152D01*
G01X18871744Y3976152D01*
G01X18883174Y3981994D01*
G01X18894604Y3993424D01*
G01X19010936Y4096294D02*
G01X19010936Y3976152D01*
G01X19010936Y4039144D02*
G01X18999506Y4050574D01*
G01X18988076Y4056162D01*
G01X18971058Y4056162D01*
G01X18959628Y4050574D01*
G01X18948198Y4039144D01*
G01X18942356Y4021872D01*
G01X18942356Y4010442D01*
G01X18948198Y3993424D01*
G01X18959628Y3981994D01*
G01X18971058Y3976152D01*
G01X18988076Y3976152D01*
G01X18999506Y3981994D01*
G01X19010936Y3993424D01*
G01X19902113Y4096294D02*
G01X19902113Y3976152D01*
G01X19902113Y4096294D02*
G01X19953675Y4096294D01*
G01X19970693Y4090452D01*
G01X19976535Y4084864D01*
G01X19982123Y4073434D01*
G01X19982123Y4056162D01*
G01X19976535Y4044732D01*
G01X19970693Y4039144D01*
G01X19953675Y4033302D01*
G01X19902113Y4033302D01*
G01X20098455Y4056162D02*
G01X20098455Y3976152D01*
G01X20098455Y4039144D02*
G01X20087025Y4050574D01*
G01X20075595Y4056162D01*
G01X20058577Y4056162D01*
G01X20047147Y4050574D01*
G01X20035717Y4039144D01*
G01X20029875Y4021872D01*
G01X20029875Y4010442D01*
G01X20035717Y3993424D01*
G01X20047147Y3981994D01*
G01X20058577Y3976152D01*
G01X20075595Y3976152D01*
G01X20087025Y3981994D01*
G01X20098455Y3993424D01*
G01X20214787Y4096294D02*
G01X20214787Y3976152D01*
G01X20214787Y4039144D02*
G01X20203357Y4050574D01*
G01X20191927Y4056162D01*
G01X20174909Y4056162D01*
G01X20163479Y4050574D01*
G01X20152049Y4039144D01*
G01X20146207Y4021872D01*
G01X20146207Y4010442D01*
G01X20152049Y3993424D01*
G01X20163479Y3981994D01*
G01X20174909Y3976152D01*
G01X20191927Y3976152D01*
G01X20203357Y3981994D01*
G01X20214787Y3993424D01*
G01X20470565Y4079022D02*
G01X20459135Y4090452D01*
G01X20442117Y4096294D01*
G01X20419257Y4096294D01*
G01X20401985Y4090452D01*
G01X20390555Y4079022D01*
G01X20390555Y4067592D01*
G01X20396397Y4056162D01*
G01X20401985Y4050574D01*
G01X20413415Y4044732D01*
G01X20447705Y4033302D01*
G01X20459135Y4027714D01*
G01X20464977Y4021872D01*
G01X20470565Y4010442D01*
G01X20470565Y3993424D01*
G01X20459135Y3981994D01*
G01X20442117Y3976152D01*
G01X20419257Y3976152D01*
G01X20401985Y3981994D01*
G01X20390555Y3993424D01*
G01X20518317Y4096294D02*
G01X20518317Y3976152D01*
G01X20518317Y4033302D02*
G01X20535589Y4050574D01*
G01X20547019Y4056162D01*
G01X20564037Y4056162D01*
G01X20575467Y4050574D01*
G01X20581309Y4033302D01*
G01X20581309Y3976152D01*
G01X20697641Y4056162D02*
G01X20697641Y3976152D01*
G01X20697641Y4039144D02*
G01X20686211Y4050574D01*
G01X20674781Y4056162D01*
G01X20657763Y4056162D01*
G01X20646333Y4050574D01*
G01X20634903Y4039144D01*
G01X20629061Y4021872D01*
G01X20629061Y4010442D01*
G01X20634903Y3993424D01*
G01X20646333Y3981994D01*
G01X20657763Y3976152D01*
G01X20674781Y3976152D01*
G01X20686211Y3981994D01*
G01X20697641Y3993424D01*
G01X20745393Y4056162D02*
G01X20745393Y3936274D01*
G01X20745393Y4039144D02*
G01X20756823Y4050574D01*
G01X20768253Y4056162D01*
G01X20785525Y4056162D01*
G01X20796955Y4050574D01*
G01X20808385Y4039144D01*
G01X20813973Y4021872D01*
G01X20813973Y4010442D01*
G01X20808385Y3993424D01*
G01X20796955Y3981994D01*
G01X20785525Y3976152D01*
G01X20768253Y3976152D01*
G01X20756823Y3981994D01*
G01X20745393Y3993424D01*
G01X20861725Y4021872D02*
G01X20930305Y4021872D01*
G01X20930305Y4033302D01*
G01X20924717Y4044732D01*
G01X20918875Y4050574D01*
G01X20907445Y4056162D01*
G01X20890427Y4056162D01*
G01X20878997Y4050574D01*
G01X20867567Y4039144D01*
G01X20861725Y4021872D01*
G01X20861725Y4010442D01*
G01X20867567Y3993424D01*
G01X20878997Y3981994D01*
G01X20890427Y3976152D01*
G01X20907445Y3976152D01*
G01X20918875Y3981994D01*
G01X20930305Y3993424D01*
G01X21821482Y4096294D02*
G01X21821482Y3976152D01*
G01X21821482Y3976152D02*
G01X21890062Y3976152D01*
G01X22006394Y4056162D02*
G01X22006394Y3976152D01*
G01X22006394Y4039144D02*
G01X21994964Y4050574D01*
G01X21983534Y4056162D01*
G01X21966516Y4056162D01*
G01X21955086Y4050574D01*
G01X21943656Y4039144D01*
G01X21937814Y4021872D01*
G01X21937814Y4010442D01*
G01X21943656Y3993424D01*
G01X21955086Y3981994D01*
G01X21966516Y3976152D01*
G01X21983534Y3976152D01*
G01X21994964Y3981994D01*
G01X22006394Y3993424D01*
G01X22059988Y4056162D02*
G01X22094278Y3976152D01*
G01X22128568Y4056162D02*
G01X22094278Y3976152D01*
G01X22082848Y3953292D01*
G01X22071418Y3941862D01*
G01X22059988Y3936274D01*
G01X22054146Y3936274D01*
G01X22176320Y4021872D02*
G01X22244900Y4021872D01*
G01X22244900Y4033302D01*
G01X22239312Y4044732D01*
G01X22233470Y4050574D01*
G01X22222040Y4056162D01*
G01X22205022Y4056162D01*
G01X22193592Y4050574D01*
G01X22182162Y4039144D01*
G01X22176320Y4021872D01*
G01X22176320Y4010442D01*
G01X22182162Y3993424D01*
G01X22193592Y3981994D01*
G01X22205022Y3976152D01*
G01X22222040Y3976152D01*
G01X22233470Y3981994D01*
G01X22244900Y3993424D01*
G01X22292652Y4056162D02*
G01X22292652Y3976152D01*
G01X22292652Y4021872D02*
G01X22298494Y4039144D01*
G01X22309924Y4050574D01*
G01X22321354Y4056162D01*
G01X22338372Y4056162D01*
G01X22514140Y4096294D02*
G01X22514140Y3976152D01*
G01X22514140Y4096294D02*
G01X22565702Y4096294D01*
G01X22582720Y4090452D01*
G01X22588562Y4084864D01*
G01X22594150Y4073434D01*
G01X22594150Y4056162D01*
G01X22588562Y4044732D01*
G01X22582720Y4039144D01*
G01X22565702Y4033302D01*
G01X22514140Y4033302D01*
G01X22710482Y4056162D02*
G01X22710482Y3976152D01*
G01X22710482Y4039144D02*
G01X22699052Y4050574D01*
G01X22687622Y4056162D01*
G01X22670604Y4056162D01*
G01X22659174Y4050574D01*
G01X22647744Y4039144D01*
G01X22641902Y4021872D01*
G01X22641902Y4010442D01*
G01X22647744Y3993424D01*
G01X22659174Y3981994D01*
G01X22670604Y3976152D01*
G01X22687622Y3976152D01*
G01X22699052Y3981994D01*
G01X22710482Y3993424D01*
G01X22758234Y4096294D02*
G01X22764076Y4090452D01*
G01X22769664Y4096294D01*
G01X22764076Y4101882D01*
G01X22758234Y4096294D01*
G01X22764076Y4056162D02*
G01X22764076Y3976152D01*
G01X22817416Y4056162D02*
G01X22817416Y3976152D01*
G01X22817416Y4021872D02*
G01X22823258Y4039144D01*
G01X22834688Y4050574D01*
G01X22846118Y4056162D01*
G01X22863136Y4056162D01*
G01X10095463Y3515723D02*
G01X10038313Y3435713D01*
G01X10124165Y3435713D01*
G01X10095463Y3515723D02*
G01X10095463Y3395581D01*
G01X11458318Y3487021D02*
G01X11458318Y3492863D01*
G01X11463906Y3504293D01*
G01X11469748Y3509881D01*
G01X11481178Y3515723D01*
G01X11504038Y3515723D01*
G01X11515468Y3509881D01*
G01X11521056Y3504293D01*
G01X11526898Y3492863D01*
G01X11526898Y3481433D01*
G01X11521056Y3470003D01*
G01X11509626Y3452731D01*
G01X11452476Y3395581D01*
G01X11532486Y3395581D01*
G01X11591668Y3515723D02*
G01X11654660Y3515723D01*
G01X11620370Y3470003D01*
G01X11637388Y3470003D01*
G01X11648818Y3464161D01*
G01X11654660Y3458573D01*
G01X11660248Y3441301D01*
G01X11660248Y3429871D01*
G01X11654660Y3412853D01*
G01X11643230Y3401423D01*
G01X11625958Y3395581D01*
G01X11608940Y3395581D01*
G01X11591668Y3401423D01*
G01X11586080Y3407011D01*
G01X11580238Y3418441D01*
G01X11713842Y3424283D02*
G01X11708000Y3418441D01*
G01X11713842Y3412853D01*
G01X11719430Y3418441D01*
G01X11713842Y3424283D01*
G01X11835762Y3498451D02*
G01X11830174Y3509881D01*
G01X11812902Y3515723D01*
G01X11801472Y3515723D01*
G01X11784454Y3509881D01*
G01X11773024Y3492863D01*
G01X11767182Y3464161D01*
G01X11767182Y3435713D01*
G01X11773024Y3412853D01*
G01X11784454Y3401423D01*
G01X11801472Y3395581D01*
G01X11807314Y3395581D01*
G01X11824332Y3401423D01*
G01X11835762Y3412853D01*
G01X11841604Y3429871D01*
G01X11841604Y3435713D01*
G01X11835762Y3452731D01*
G01X11824332Y3464161D01*
G01X11807314Y3470003D01*
G01X11801472Y3470003D01*
G01X11784454Y3464161D01*
G01X11773024Y3452731D01*
G01X11767182Y3435713D01*
G01X11889356Y3475591D02*
G01X11952348Y3395581D01*
G01X11952348Y3475591D02*
G01X11889356Y3395581D01*
G01X12068680Y3515723D02*
G01X12011530Y3515723D01*
G01X12005942Y3464161D01*
G01X12011530Y3470003D01*
G01X12028802Y3475591D01*
G01X12045820Y3475591D01*
G01X12063092Y3470003D01*
G01X12074522Y3458573D01*
G01X12080110Y3441301D01*
G01X12080110Y3429871D01*
G01X12074522Y3412853D01*
G01X12063092Y3401423D01*
G01X12045820Y3395581D01*
G01X12028802Y3395581D01*
G01X12011530Y3401423D01*
G01X12005942Y3407011D01*
G01X12000100Y3418441D01*
G01X12202284Y3475591D02*
G01X12196442Y3458573D01*
G01X12185012Y3447143D01*
G01X12167994Y3441301D01*
G01X12162152Y3441301D01*
G01X12145134Y3447143D01*
G01X12133704Y3458573D01*
G01X12127862Y3475591D01*
G01X12127862Y3481433D01*
G01X12133704Y3498451D01*
G01X12145134Y3509881D01*
G01X12162152Y3515723D01*
G01X12167994Y3515723D01*
G01X12185012Y3509881D01*
G01X12196442Y3498451D01*
G01X12202284Y3475591D01*
G01X12202284Y3447143D01*
G01X12196442Y3418441D01*
G01X12185012Y3401423D01*
G01X12167994Y3395581D01*
G01X12156564Y3395581D01*
G01X12139292Y3401423D01*
G01X12133704Y3412853D01*
G01X12255878Y3424283D02*
G01X12250036Y3418441D01*
G01X12255878Y3412853D01*
G01X12261466Y3418441D01*
G01X12255878Y3424283D01*
G01X12309218Y3492863D02*
G01X12320648Y3498451D01*
G01X12337920Y3515723D01*
G01X12337920Y3395581D01*
G01X12385672Y3475591D02*
G01X12385672Y3395581D01*
G01X12385672Y3452731D02*
G01X12402944Y3470003D01*
G01X12414374Y3475591D01*
G01X12431392Y3475591D01*
G01X12442822Y3470003D01*
G01X12448664Y3452731D01*
G01X12448664Y3395581D01*
G01X12448664Y3452731D02*
G01X12465682Y3470003D01*
G01X12477112Y3475591D01*
G01X12494384Y3475591D01*
G01X12505814Y3470003D01*
G01X12511402Y3452731D01*
G01X12511402Y3395581D01*
G01X12559154Y3515723D02*
G01X12564996Y3509881D01*
G01X12570584Y3515723D01*
G01X12564996Y3521311D01*
G01X12559154Y3515723D01*
G01X12564996Y3475591D02*
G01X12564996Y3395581D01*
G01X12618336Y3515723D02*
G01X12618336Y3395581D01*
G01X12706220Y3538583D02*
G01X12694790Y3527153D01*
G01X12683360Y3509881D01*
G01X12671930Y3487021D01*
G01X12666088Y3458573D01*
G01X12666088Y3435713D01*
G01X12671930Y3407011D01*
G01X12683360Y3384151D01*
G01X12694790Y3367133D01*
G01X12706220Y3355703D01*
G01X12788262Y3515723D02*
G01X12771244Y3509881D01*
G01X12759814Y3492863D01*
G01X12753972Y3464161D01*
G01X12753972Y3447143D01*
G01X12759814Y3418441D01*
G01X12771244Y3401423D01*
G01X12788262Y3395581D01*
G01X12799692Y3395581D01*
G01X12816964Y3401423D01*
G01X12828394Y3418441D01*
G01X12833982Y3447143D01*
G01X12833982Y3464161D01*
G01X12828394Y3492863D01*
G01X12816964Y3509881D01*
G01X12799692Y3515723D01*
G01X12788262Y3515723D01*
G01X12887576Y3424283D02*
G01X12881734Y3418441D01*
G01X12887576Y3412853D01*
G01X12893164Y3418441D01*
G01X12887576Y3424283D01*
G01X13009496Y3498451D02*
G01X13003908Y3509881D01*
G01X12986636Y3515723D01*
G01X12975206Y3515723D01*
G01X12958188Y3509881D01*
G01X12946758Y3492863D01*
G01X12940916Y3464161D01*
G01X12940916Y3435713D01*
G01X12946758Y3412853D01*
G01X12958188Y3401423D01*
G01X12975206Y3395581D01*
G01X12981048Y3395581D01*
G01X12998066Y3401423D01*
G01X13009496Y3412853D01*
G01X13015338Y3429871D01*
G01X13015338Y3435713D01*
G01X13009496Y3452731D01*
G01X12998066Y3464161D01*
G01X12981048Y3470003D01*
G01X12975206Y3470003D01*
G01X12958188Y3464161D01*
G01X12946758Y3452731D01*
G01X12940916Y3435713D01*
G01X13097380Y3515723D02*
G01X13080362Y3509881D01*
G01X13068932Y3492863D01*
G01X13063090Y3464161D01*
G01X13063090Y3447143D01*
G01X13068932Y3418441D01*
G01X13080362Y3401423D01*
G01X13097380Y3395581D01*
G01X13108810Y3395581D01*
G01X13126082Y3401423D01*
G01X13137512Y3418441D01*
G01X13143100Y3447143D01*
G01X13143100Y3464161D01*
G01X13137512Y3492863D01*
G01X13126082Y3509881D01*
G01X13108810Y3515723D01*
G01X13097380Y3515723D01*
G01X13225142Y3515723D02*
G01X13208124Y3509881D01*
G01X13196694Y3492863D01*
G01X13190852Y3464161D01*
G01X13190852Y3447143D01*
G01X13196694Y3418441D01*
G01X13208124Y3401423D01*
G01X13225142Y3395581D01*
G01X13236572Y3395581D01*
G01X13253844Y3401423D01*
G01X13265274Y3418441D01*
G01X13270862Y3447143D01*
G01X13270862Y3464161D01*
G01X13265274Y3492863D01*
G01X13253844Y3509881D01*
G01X13236572Y3515723D01*
G01X13225142Y3515723D01*
G01X13318614Y3475591D02*
G01X13381606Y3395581D01*
G01X13381606Y3475591D02*
G01X13318614Y3395581D01*
G01X13429358Y3492863D02*
G01X13440788Y3498451D01*
G01X13458060Y3515723D01*
G01X13458060Y3395581D01*
G01X13511654Y3424283D02*
G01X13505812Y3418441D01*
G01X13511654Y3412853D01*
G01X13517242Y3418441D01*
G01X13511654Y3424283D01*
G01X13633574Y3515723D02*
G01X13576424Y3515723D01*
G01X13570836Y3464161D01*
G01X13576424Y3470003D01*
G01X13593696Y3475591D01*
G01X13610714Y3475591D01*
G01X13627986Y3470003D01*
G01X13639416Y3458573D01*
G01X13645004Y3441301D01*
G01X13645004Y3429871D01*
G01X13639416Y3412853D01*
G01X13627986Y3401423D01*
G01X13610714Y3395581D01*
G01X13593696Y3395581D01*
G01X13576424Y3401423D01*
G01X13570836Y3407011D01*
G01X13564994Y3418441D01*
G01X13727046Y3515723D02*
G01X13710028Y3509881D01*
G01X13698598Y3492863D01*
G01X13692756Y3464161D01*
G01X13692756Y3447143D01*
G01X13698598Y3418441D01*
G01X13710028Y3401423D01*
G01X13727046Y3395581D01*
G01X13738476Y3395581D01*
G01X13755748Y3401423D01*
G01X13767178Y3418441D01*
G01X13772766Y3447143D01*
G01X13772766Y3464161D01*
G01X13767178Y3492863D01*
G01X13755748Y3509881D01*
G01X13738476Y3515723D01*
G01X13727046Y3515723D01*
G01X13854808Y3515723D02*
G01X13837790Y3509881D01*
G01X13826360Y3492863D01*
G01X13820518Y3464161D01*
G01X13820518Y3447143D01*
G01X13826360Y3418441D01*
G01X13837790Y3401423D01*
G01X13854808Y3395581D01*
G01X13866238Y3395581D01*
G01X13883510Y3401423D01*
G01X13894940Y3418441D01*
G01X13900528Y3447143D01*
G01X13900528Y3464161D01*
G01X13894940Y3492863D01*
G01X13883510Y3509881D01*
G01X13866238Y3515723D01*
G01X13854808Y3515723D01*
G01X13948280Y3475591D02*
G01X13948280Y3395581D01*
G01X13948280Y3452731D02*
G01X13965552Y3470003D01*
G01X13976982Y3475591D01*
G01X13994000Y3475591D01*
G01X14005430Y3470003D01*
G01X14011272Y3452731D01*
G01X14011272Y3395581D01*
G01X14011272Y3452731D02*
G01X14028290Y3470003D01*
G01X14039720Y3475591D01*
G01X14056992Y3475591D01*
G01X14068422Y3470003D01*
G01X14074010Y3452731D01*
G01X14074010Y3395581D01*
G01X14121762Y3475591D02*
G01X14121762Y3395581D01*
G01X14121762Y3452731D02*
G01X14139034Y3470003D01*
G01X14150464Y3475591D01*
G01X14167482Y3475591D01*
G01X14178912Y3470003D01*
G01X14184754Y3452731D01*
G01X14184754Y3395581D01*
G01X14184754Y3452731D02*
G01X14201772Y3470003D01*
G01X14213202Y3475591D01*
G01X14230474Y3475591D01*
G01X14241904Y3470003D01*
G01X14247492Y3452731D01*
G01X14247492Y3395581D01*
G01X14295244Y3538583D02*
G01X14306674Y3527153D01*
G01X14318104Y3509881D01*
G01X14329534Y3487021D01*
G01X14335376Y3458573D01*
G01X14335376Y3435713D01*
G01X14329534Y3407011D01*
G01X14318104Y3384151D01*
G01X14306674Y3367133D01*
G01X14295244Y3355703D01*
G01X15340345Y3515723D02*
G01X15340345Y3395581D01*
G01X15340345Y3515723D02*
G01X15391907Y3515723D01*
G01X15408925Y3509881D01*
G01X15414767Y3504293D01*
G01X15420355Y3492863D01*
G01X15420355Y3475591D01*
G01X15414767Y3464161D01*
G01X15408925Y3458573D01*
G01X15391907Y3452731D01*
G01X15340345Y3452731D01*
G01X15508239Y3515723D02*
G01X15508239Y3395581D01*
G01X15468107Y3515723D02*
G01X15548117Y3515723D01*
G01X15595869Y3515723D02*
G01X15595869Y3395581D01*
G01X15675879Y3515723D02*
G01X15675879Y3395581D01*
G01X15595869Y3458573D02*
G01X15675879Y3458573D01*
G01X16881763Y3498451D02*
G01X16870333Y3509881D01*
G01X16853315Y3515723D01*
G01X16830455Y3515723D01*
G01X16813183Y3509881D01*
G01X16801753Y3498451D01*
G01X16801753Y3487021D01*
G01X16807595Y3475591D01*
G01X16813183Y3470003D01*
G01X16824613Y3464161D01*
G01X16858903Y3452731D01*
G01X16870333Y3447143D01*
G01X16876175Y3441301D01*
G01X16881763Y3429871D01*
G01X16881763Y3412853D01*
G01X16870333Y3401423D01*
G01X16853315Y3395581D01*
G01X16830455Y3395581D01*
G01X16813183Y3401423D01*
G01X16801753Y3412853D01*
G01X16929515Y3515723D02*
G01X16929515Y3395581D01*
G01X17005969Y3475591D02*
G01X16994539Y3470003D01*
G01X16983109Y3458573D01*
G01X16977267Y3441301D01*
G01X16977267Y3429871D01*
G01X16983109Y3412853D01*
G01X16994539Y3401423D01*
G01X17005969Y3395581D01*
G01X17022987Y3395581D01*
G01X17034417Y3401423D01*
G01X17045847Y3412853D01*
G01X17051689Y3429871D01*
G01X17051689Y3441301D01*
G01X17045847Y3458573D01*
G01X17034417Y3470003D01*
G01X17022987Y3475591D01*
G01X17005969Y3475591D01*
G01X17116713Y3515723D02*
G01X17116713Y3418441D01*
G01X17122301Y3401423D01*
G01X17133731Y3395581D01*
G01X17145161Y3395581D01*
G01X17099441Y3475591D02*
G01X17139573Y3475591D01*
G01X18232934Y3515723D02*
G01X18232934Y3395581D01*
G01X18232934Y3515723D02*
G01X18284496Y3515723D01*
G01X18301514Y3509881D01*
G01X18307356Y3504293D01*
G01X18312944Y3492863D01*
G01X18312944Y3475591D01*
G01X18307356Y3464161D01*
G01X18301514Y3458573D01*
G01X18284496Y3452731D01*
G01X18232934Y3452731D01*
G01X18429276Y3475591D02*
G01X18429276Y3395581D01*
G01X18429276Y3458573D02*
G01X18417846Y3470003D01*
G01X18406416Y3475591D01*
G01X18389398Y3475591D01*
G01X18377968Y3470003D01*
G01X18366538Y3458573D01*
G01X18360696Y3441301D01*
G01X18360696Y3429871D01*
G01X18366538Y3412853D01*
G01X18377968Y3401423D01*
G01X18389398Y3395581D01*
G01X18406416Y3395581D01*
G01X18417846Y3401423D01*
G01X18429276Y3412853D01*
G01X18545608Y3515723D02*
G01X18545608Y3395581D01*
G01X18545608Y3458573D02*
G01X18534178Y3470003D01*
G01X18522748Y3475591D01*
G01X18505730Y3475591D01*
G01X18494300Y3470003D01*
G01X18482870Y3458573D01*
G01X18477028Y3441301D01*
G01X18477028Y3429871D01*
G01X18482870Y3412853D01*
G01X18494300Y3401423D01*
G01X18505730Y3395581D01*
G01X18522748Y3395581D01*
G01X18534178Y3401423D01*
G01X18545608Y3412853D01*
G01X19936403Y3515723D02*
G01X19924973Y3509881D01*
G01X19913543Y3498451D01*
G01X19907955Y3487021D01*
G01X19902113Y3470003D01*
G01X19902113Y3441301D01*
G01X19907955Y3424283D01*
G01X19913543Y3412853D01*
G01X19924973Y3401423D01*
G01X19936403Y3395581D01*
G01X19959263Y3395581D01*
G01X19970693Y3401423D01*
G01X19982123Y3412853D01*
G01X19987965Y3424283D01*
G01X19993553Y3441301D01*
G01X19993553Y3470003D01*
G01X19987965Y3487021D01*
G01X19982123Y3498451D01*
G01X19970693Y3509881D01*
G01X19959263Y3515723D01*
G01X19936403Y3515723D01*
G01X20041305Y3475591D02*
G01X20075595Y3395581D01*
G01X20109885Y3475591D02*
G01X20075595Y3395581D01*
G01X20226217Y3475591D02*
G01X20226217Y3395581D01*
G01X20226217Y3458573D02*
G01X20214787Y3470003D01*
G01X20203357Y3475591D01*
G01X20186339Y3475591D01*
G01X20174909Y3470003D01*
G01X20163479Y3458573D01*
G01X20157637Y3441301D01*
G01X20157637Y3429871D01*
G01X20163479Y3412853D01*
G01X20174909Y3401423D01*
G01X20186339Y3395581D01*
G01X20203357Y3395581D01*
G01X20214787Y3401423D01*
G01X20226217Y3412853D01*
G01X20273969Y3515723D02*
G01X20273969Y3395581D01*
G01X21861614Y3515723D02*
G01X21861614Y3395581D01*
G01X21821482Y3515723D02*
G01X21901492Y3515723D01*
G01X21977946Y3475591D02*
G01X21966516Y3470003D01*
G01X21955086Y3458573D01*
G01X21949244Y3441301D01*
G01X21949244Y3429871D01*
G01X21955086Y3412853D01*
G01X21966516Y3401423D01*
G01X21977946Y3395581D01*
G01X21994964Y3395581D01*
G01X22006394Y3401423D01*
G01X22017824Y3412853D01*
G01X22023666Y3429871D01*
G01X22023666Y3441301D01*
G01X22017824Y3458573D01*
G01X22006394Y3470003D01*
G01X21994964Y3475591D01*
G01X21977946Y3475591D01*
G01X22071418Y3475591D02*
G01X22071418Y3355703D01*
G01X22071418Y3458573D02*
G01X22082848Y3470003D01*
G01X22094278Y3475591D01*
G01X22111550Y3475591D01*
G01X22122980Y3470003D01*
G01X22134410Y3458573D01*
G01X22139998Y3441301D01*
G01X22139998Y3429871D01*
G01X22134410Y3412853D01*
G01X22122980Y3401423D01*
G01X22111550Y3395581D01*
G01X22094278Y3395581D01*
G01X22082848Y3401423D01*
G01X22071418Y3412853D01*
G01X22315766Y3515723D02*
G01X22315766Y3395581D01*
G01X22315766Y3395581D02*
G01X22384346Y3395581D01*
G01X22500678Y3475591D02*
G01X22500678Y3395581D01*
G01X22500678Y3458573D02*
G01X22489248Y3470003D01*
G01X22477818Y3475591D01*
G01X22460800Y3475591D01*
G01X22449370Y3470003D01*
G01X22437940Y3458573D01*
G01X22432098Y3441301D01*
G01X22432098Y3429871D01*
G01X22437940Y3412853D01*
G01X22449370Y3401423D01*
G01X22460800Y3395581D01*
G01X22477818Y3395581D01*
G01X22489248Y3401423D01*
G01X22500678Y3412853D01*
G01X22554272Y3475591D02*
G01X22588562Y3395581D01*
G01X22622852Y3475591D02*
G01X22588562Y3395581D01*
G01X22577132Y3372721D01*
G01X22565702Y3361291D01*
G01X22554272Y3355703D01*
G01X22548430Y3355703D01*
G01X22670604Y3441301D02*
G01X22739184Y3441301D01*
G01X22739184Y3452731D01*
G01X22733596Y3464161D01*
G01X22727754Y3470003D01*
G01X22716324Y3475591D01*
G01X22699306Y3475591D01*
G01X22687876Y3470003D01*
G01X22676446Y3458573D01*
G01X22670604Y3441301D01*
G01X22670604Y3429871D01*
G01X22676446Y3412853D01*
G01X22687876Y3401423D01*
G01X22699306Y3395581D01*
G01X22716324Y3395581D01*
G01X22727754Y3401423D01*
G01X22739184Y3412853D01*
G01X22786936Y3475591D02*
G01X22786936Y3395581D01*
G01X22786936Y3441301D02*
G01X22792778Y3458573D01*
G01X22804208Y3470003D01*
G01X22815638Y3475591D01*
G01X22832656Y3475591D01*
G01X22880408Y3447143D02*
G01X22983278Y3447143D01*
G01X23031030Y3515723D02*
G01X23031030Y3395581D01*
G01X23031030Y3515723D02*
G01X23082592Y3515723D01*
G01X23099610Y3509881D01*
G01X23105452Y3504293D01*
G01X23111040Y3492863D01*
G01X23111040Y3481433D01*
G01X23105452Y3470003D01*
G01X23099610Y3464161D01*
G01X23082592Y3458573D01*
G01X23031030Y3458573D02*
G01X23082592Y3458573D01*
G01X23099610Y3452731D01*
G01X23105452Y3447143D01*
G01X23111040Y3435713D01*
G01X23111040Y3418441D01*
G01X23105452Y3407011D01*
G01X23099610Y3401423D01*
G01X23082592Y3395581D01*
G01X23031030Y3395581D01*
G01X23187494Y3475591D02*
G01X23176064Y3470003D01*
G01X23164634Y3458573D01*
G01X23158792Y3441301D01*
G01X23158792Y3429871D01*
G01X23164634Y3412853D01*
G01X23176064Y3401423D01*
G01X23187494Y3395581D01*
G01X23204512Y3395581D01*
G01X23215942Y3401423D01*
G01X23227372Y3412853D01*
G01X23233214Y3429871D01*
G01X23233214Y3441301D01*
G01X23227372Y3458573D01*
G01X23215942Y3470003D01*
G01X23204512Y3475591D01*
G01X23187494Y3475591D01*
G01X23298238Y3515723D02*
G01X23298238Y3418441D01*
G01X23303826Y3401423D01*
G01X23315256Y3395581D01*
G01X23326686Y3395581D01*
G01X23280966Y3475591D02*
G01X23321098Y3475591D01*
G01X23391710Y3515723D02*
G01X23391710Y3418441D01*
G01X23397298Y3401423D01*
G01X23408728Y3395581D01*
G01X23420158Y3395581D01*
G01X23374438Y3475591D02*
G01X23414570Y3475591D01*
G01X23496612Y3475591D02*
G01X23485182Y3470003D01*
G01X23473752Y3458573D01*
G01X23467910Y3441301D01*
G01X23467910Y3429871D01*
G01X23473752Y3412853D01*
G01X23485182Y3401423D01*
G01X23496612Y3395581D01*
G01X23513630Y3395581D01*
G01X23525060Y3401423D01*
G01X23536490Y3412853D01*
G01X23542332Y3429871D01*
G01X23542332Y3441301D01*
G01X23536490Y3458573D01*
G01X23525060Y3470003D01*
G01X23513630Y3475591D01*
G01X23496612Y3475591D01*
G01X23590084Y3475591D02*
G01X23590084Y3395581D01*
G01X23590084Y3452731D02*
G01X23607356Y3470003D01*
G01X23618786Y3475591D01*
G01X23635804Y3475591D01*
G01X23647234Y3470003D01*
G01X23653076Y3452731D01*
G01X23653076Y3395581D01*
G01X23653076Y3452731D02*
G01X23670094Y3470003D01*
G01X23681524Y3475591D01*
G01X23698796Y3475591D01*
G01X23710226Y3470003D01*
G01X23715814Y3452731D01*
G01X23715814Y3395581D01*
G01X23891582Y3515723D02*
G01X23891582Y3395581D01*
G01X23891582Y3395581D02*
G01X23960162Y3395581D01*
G01X24076494Y3475591D02*
G01X24076494Y3395581D01*
G01X24076494Y3458573D02*
G01X24065064Y3470003D01*
G01X24053634Y3475591D01*
G01X24036616Y3475591D01*
G01X24025186Y3470003D01*
G01X24013756Y3458573D01*
G01X24007914Y3441301D01*
G01X24007914Y3429871D01*
G01X24013756Y3412853D01*
G01X24025186Y3401423D01*
G01X24036616Y3395581D01*
G01X24053634Y3395581D01*
G01X24065064Y3401423D01*
G01X24076494Y3412853D01*
G01X24130088Y3475591D02*
G01X24164378Y3395581D01*
G01X24198668Y3475591D02*
G01X24164378Y3395581D01*
G01X24152948Y3372721D01*
G01X24141518Y3361291D01*
G01X24130088Y3355703D01*
G01X24124246Y3355703D01*
G01X24246420Y3441301D02*
G01X24315000Y3441301D01*
G01X24315000Y3452731D01*
G01X24309412Y3464161D01*
G01X24303570Y3470003D01*
G01X24292140Y3475591D01*
G01X24275122Y3475591D01*
G01X24263692Y3470003D01*
G01X24252262Y3458573D01*
G01X24246420Y3441301D01*
G01X24246420Y3429871D01*
G01X24252262Y3412853D01*
G01X24263692Y3401423D01*
G01X24275122Y3395581D01*
G01X24292140Y3395581D01*
G01X24303570Y3401423D01*
G01X24315000Y3412853D01*
G01X24362752Y3475591D02*
G01X24362752Y3395581D01*
G01X24362752Y3441301D02*
G01X24368594Y3458573D01*
G01X24380024Y3470003D01*
G01X24391454Y3475591D01*
G01X24408472Y3475591D01*
G01X10095463Y2935151D02*
G01X10038313Y2855141D01*
G01X10124165Y2855141D01*
G01X10095463Y2935151D02*
G01X10095463Y2815009D01*
G01X11458318Y2906449D02*
G01X11458318Y2912291D01*
G01X11463906Y2923721D01*
G01X11469748Y2929309D01*
G01X11481178Y2935151D01*
G01X11504038Y2935151D01*
G01X11515468Y2929309D01*
G01X11521056Y2923721D01*
G01X11526898Y2912291D01*
G01X11526898Y2900861D01*
G01X11521056Y2889431D01*
G01X11509626Y2872159D01*
G01X11452476Y2815009D01*
G01X11532486Y2815009D01*
G01X11591668Y2935151D02*
G01X11654660Y2935151D01*
G01X11620370Y2889431D01*
G01X11637388Y2889431D01*
G01X11648818Y2883589D01*
G01X11654660Y2878001D01*
G01X11660248Y2860729D01*
G01X11660248Y2849299D01*
G01X11654660Y2832281D01*
G01X11643230Y2820851D01*
G01X11625958Y2815009D01*
G01X11608940Y2815009D01*
G01X11591668Y2820851D01*
G01X11586080Y2826439D01*
G01X11580238Y2837869D01*
G01X11713842Y2843711D02*
G01X11708000Y2837869D01*
G01X11713842Y2832281D01*
G01X11719430Y2837869D01*
G01X11713842Y2843711D01*
G01X11835762Y2917879D02*
G01X11830174Y2929309D01*
G01X11812902Y2935151D01*
G01X11801472Y2935151D01*
G01X11784454Y2929309D01*
G01X11773024Y2912291D01*
G01X11767182Y2883589D01*
G01X11767182Y2855141D01*
G01X11773024Y2832281D01*
G01X11784454Y2820851D01*
G01X11801472Y2815009D01*
G01X11807314Y2815009D01*
G01X11824332Y2820851D01*
G01X11835762Y2832281D01*
G01X11841604Y2849299D01*
G01X11841604Y2855141D01*
G01X11835762Y2872159D01*
G01X11824332Y2883589D01*
G01X11807314Y2889431D01*
G01X11801472Y2889431D01*
G01X11784454Y2883589D01*
G01X11773024Y2872159D01*
G01X11767182Y2855141D01*
G01X11889356Y2895019D02*
G01X11952348Y2815009D01*
G01X11952348Y2895019D02*
G01X11889356Y2815009D01*
G01X12057250Y2935151D02*
G01X12000100Y2855141D01*
G01X12085952Y2855141D01*
G01X12057250Y2935151D02*
G01X12057250Y2815009D01*
G01X12213714Y2935151D02*
G01X12156564Y2815009D01*
G01X12133704Y2935151D02*
G01X12213714Y2935151D01*
G01X12267308Y2843711D02*
G01X12261466Y2837869D01*
G01X12267308Y2832281D01*
G01X12272896Y2837869D01*
G01X12267308Y2843711D01*
G01X12326490Y2906449D02*
G01X12326490Y2912291D01*
G01X12332078Y2923721D01*
G01X12337920Y2929309D01*
G01X12349350Y2935151D01*
G01X12372210Y2935151D01*
G01X12383640Y2929309D01*
G01X12389228Y2923721D01*
G01X12395070Y2912291D01*
G01X12395070Y2900861D01*
G01X12389228Y2889431D01*
G01X12377798Y2872159D01*
G01X12320648Y2815009D01*
G01X12400658Y2815009D01*
G01X12448410Y2895019D02*
G01X12448410Y2815009D01*
G01X12448410Y2872159D02*
G01X12465682Y2889431D01*
G01X12477112Y2895019D01*
G01X12494130Y2895019D01*
G01X12505560Y2889431D01*
G01X12511402Y2872159D01*
G01X12511402Y2815009D01*
G01X12511402Y2872159D02*
G01X12528420Y2889431D01*
G01X12539850Y2895019D01*
G01X12557122Y2895019D01*
G01X12568552Y2889431D01*
G01X12574140Y2872159D01*
G01X12574140Y2815009D01*
G01X12621892Y2935151D02*
G01X12627734Y2929309D01*
G01X12633322Y2935151D01*
G01X12627734Y2940739D01*
G01X12621892Y2935151D01*
G01X12627734Y2895019D02*
G01X12627734Y2815009D01*
G01X12681074Y2935151D02*
G01X12681074Y2815009D01*
G01X12768958Y2958011D02*
G01X12757528Y2946581D01*
G01X12746098Y2929309D01*
G01X12734668Y2906449D01*
G01X12728826Y2878001D01*
G01X12728826Y2855141D01*
G01X12734668Y2826439D01*
G01X12746098Y2803579D01*
G01X12757528Y2786561D01*
G01X12768958Y2775131D01*
G01X12851000Y2935151D02*
G01X12833982Y2929309D01*
G01X12822552Y2912291D01*
G01X12816710Y2883589D01*
G01X12816710Y2866571D01*
G01X12822552Y2837869D01*
G01X12833982Y2820851D01*
G01X12851000Y2815009D01*
G01X12862430Y2815009D01*
G01X12879702Y2820851D01*
G01X12891132Y2837869D01*
G01X12896720Y2866571D01*
G01X12896720Y2883589D01*
G01X12891132Y2912291D01*
G01X12879702Y2929309D01*
G01X12862430Y2935151D01*
G01X12851000Y2935151D01*
G01X12950314Y2843711D02*
G01X12944472Y2837869D01*
G01X12950314Y2832281D01*
G01X12955902Y2837869D01*
G01X12950314Y2843711D01*
G01X13072234Y2917879D02*
G01X13066646Y2929309D01*
G01X13049374Y2935151D01*
G01X13037944Y2935151D01*
G01X13020926Y2929309D01*
G01X13009496Y2912291D01*
G01X13003654Y2883589D01*
G01X13003654Y2855141D01*
G01X13009496Y2832281D01*
G01X13020926Y2820851D01*
G01X13037944Y2815009D01*
G01X13043786Y2815009D01*
G01X13060804Y2820851D01*
G01X13072234Y2832281D01*
G01X13078076Y2849299D01*
G01X13078076Y2855141D01*
G01X13072234Y2872159D01*
G01X13060804Y2883589D01*
G01X13043786Y2889431D01*
G01X13037944Y2889431D01*
G01X13020926Y2883589D01*
G01X13009496Y2872159D01*
G01X13003654Y2855141D01*
G01X13160118Y2935151D02*
G01X13143100Y2929309D01*
G01X13131670Y2912291D01*
G01X13125828Y2883589D01*
G01X13125828Y2866571D01*
G01X13131670Y2837869D01*
G01X13143100Y2820851D01*
G01X13160118Y2815009D01*
G01X13171548Y2815009D01*
G01X13188820Y2820851D01*
G01X13200250Y2837869D01*
G01X13205838Y2866571D01*
G01X13205838Y2883589D01*
G01X13200250Y2912291D01*
G01X13188820Y2929309D01*
G01X13171548Y2935151D01*
G01X13160118Y2935151D01*
G01X13287880Y2935151D02*
G01X13270862Y2929309D01*
G01X13259432Y2912291D01*
G01X13253590Y2883589D01*
G01X13253590Y2866571D01*
G01X13259432Y2837869D01*
G01X13270862Y2820851D01*
G01X13287880Y2815009D01*
G01X13299310Y2815009D01*
G01X13316582Y2820851D01*
G01X13328012Y2837869D01*
G01X13333600Y2866571D01*
G01X13333600Y2883589D01*
G01X13328012Y2912291D01*
G01X13316582Y2929309D01*
G01X13299310Y2935151D01*
G01X13287880Y2935151D01*
G01X13381352Y2895019D02*
G01X13444344Y2815009D01*
G01X13444344Y2895019D02*
G01X13381352Y2815009D01*
G01X13492096Y2912291D02*
G01X13503526Y2917879D01*
G01X13520798Y2935151D01*
G01X13520798Y2815009D01*
G01X13574392Y2843711D02*
G01X13568550Y2837869D01*
G01X13574392Y2832281D01*
G01X13579980Y2837869D01*
G01X13574392Y2843711D01*
G01X13633574Y2906449D02*
G01X13633574Y2912291D01*
G01X13639162Y2923721D01*
G01X13645004Y2929309D01*
G01X13656434Y2935151D01*
G01X13679294Y2935151D01*
G01X13690724Y2929309D01*
G01X13696312Y2923721D01*
G01X13702154Y2912291D01*
G01X13702154Y2900861D01*
G01X13696312Y2889431D01*
G01X13684882Y2872159D01*
G01X13627732Y2815009D01*
G01X13707742Y2815009D01*
G01X13789784Y2935151D02*
G01X13772766Y2929309D01*
G01X13761336Y2912291D01*
G01X13755494Y2883589D01*
G01X13755494Y2866571D01*
G01X13761336Y2837869D01*
G01X13772766Y2820851D01*
G01X13789784Y2815009D01*
G01X13801214Y2815009D01*
G01X13818486Y2820851D01*
G01X13829916Y2837869D01*
G01X13835504Y2866571D01*
G01X13835504Y2883589D01*
G01X13829916Y2912291D01*
G01X13818486Y2929309D01*
G01X13801214Y2935151D01*
G01X13789784Y2935151D01*
G01X13917546Y2935151D02*
G01X13900528Y2929309D01*
G01X13889098Y2912291D01*
G01X13883256Y2883589D01*
G01X13883256Y2866571D01*
G01X13889098Y2837869D01*
G01X13900528Y2820851D01*
G01X13917546Y2815009D01*
G01X13928976Y2815009D01*
G01X13946248Y2820851D01*
G01X13957678Y2837869D01*
G01X13963266Y2866571D01*
G01X13963266Y2883589D01*
G01X13957678Y2912291D01*
G01X13946248Y2929309D01*
G01X13928976Y2935151D01*
G01X13917546Y2935151D01*
G01X14011018Y2895019D02*
G01X14011018Y2815009D01*
G01X14011018Y2872159D02*
G01X14028290Y2889431D01*
G01X14039720Y2895019D01*
G01X14056738Y2895019D01*
G01X14068168Y2889431D01*
G01X14074010Y2872159D01*
G01X14074010Y2815009D01*
G01X14074010Y2872159D02*
G01X14091028Y2889431D01*
G01X14102458Y2895019D01*
G01X14119730Y2895019D01*
G01X14131160Y2889431D01*
G01X14136748Y2872159D01*
G01X14136748Y2815009D01*
G01X14184500Y2895019D02*
G01X14184500Y2815009D01*
G01X14184500Y2872159D02*
G01X14201772Y2889431D01*
G01X14213202Y2895019D01*
G01X14230220Y2895019D01*
G01X14241650Y2889431D01*
G01X14247492Y2872159D01*
G01X14247492Y2815009D01*
G01X14247492Y2872159D02*
G01X14264510Y2889431D01*
G01X14275940Y2895019D01*
G01X14293212Y2895019D01*
G01X14304642Y2889431D01*
G01X14310230Y2872159D01*
G01X14310230Y2815009D01*
G01X14357982Y2958011D02*
G01X14369412Y2946581D01*
G01X14380842Y2929309D01*
G01X14392272Y2906449D01*
G01X14398114Y2878001D01*
G01X14398114Y2855141D01*
G01X14392272Y2826439D01*
G01X14380842Y2803579D01*
G01X14369412Y2786561D01*
G01X14357982Y2775131D01*
G01X15340345Y2935151D02*
G01X15340345Y2815009D01*
G01X15340345Y2935151D02*
G01X15391907Y2935151D01*
G01X15408925Y2929309D01*
G01X15414767Y2923721D01*
G01X15420355Y2912291D01*
G01X15420355Y2895019D01*
G01X15414767Y2883589D01*
G01X15408925Y2878001D01*
G01X15391907Y2872159D01*
G01X15340345Y2872159D01*
G01X15508239Y2935151D02*
G01X15508239Y2815009D01*
G01X15468107Y2935151D02*
G01X15548117Y2935151D01*
G01X15595869Y2935151D02*
G01X15595869Y2815009D01*
G01X15675879Y2935151D02*
G01X15675879Y2815009D01*
G01X15595869Y2878001D02*
G01X15675879Y2878001D01*
G01X16881763Y2917879D02*
G01X16870333Y2929309D01*
G01X16853315Y2935151D01*
G01X16830455Y2935151D01*
G01X16813183Y2929309D01*
G01X16801753Y2917879D01*
G01X16801753Y2906449D01*
G01X16807595Y2895019D01*
G01X16813183Y2889431D01*
G01X16824613Y2883589D01*
G01X16858903Y2872159D01*
G01X16870333Y2866571D01*
G01X16876175Y2860729D01*
G01X16881763Y2849299D01*
G01X16881763Y2832281D01*
G01X16870333Y2820851D01*
G01X16853315Y2815009D01*
G01X16830455Y2815009D01*
G01X16813183Y2820851D01*
G01X16801753Y2832281D01*
G01X16929515Y2935151D02*
G01X16929515Y2815009D01*
G01X17005969Y2895019D02*
G01X16994539Y2889431D01*
G01X16983109Y2878001D01*
G01X16977267Y2860729D01*
G01X16977267Y2849299D01*
G01X16983109Y2832281D01*
G01X16994539Y2820851D01*
G01X17005969Y2815009D01*
G01X17022987Y2815009D01*
G01X17034417Y2820851D01*
G01X17045847Y2832281D01*
G01X17051689Y2849299D01*
G01X17051689Y2860729D01*
G01X17045847Y2878001D01*
G01X17034417Y2889431D01*
G01X17022987Y2895019D01*
G01X17005969Y2895019D01*
G01X17116713Y2935151D02*
G01X17116713Y2837869D01*
G01X17122301Y2820851D01*
G01X17133731Y2815009D01*
G01X17145161Y2815009D01*
G01X17099441Y2895019D02*
G01X17139573Y2895019D01*
G01X18232934Y2935151D02*
G01X18232934Y2815009D01*
G01X18232934Y2935151D02*
G01X18284496Y2935151D01*
G01X18301514Y2929309D01*
G01X18307356Y2923721D01*
G01X18312944Y2912291D01*
G01X18312944Y2895019D01*
G01X18307356Y2883589D01*
G01X18301514Y2878001D01*
G01X18284496Y2872159D01*
G01X18232934Y2872159D01*
G01X18429276Y2895019D02*
G01X18429276Y2815009D01*
G01X18429276Y2878001D02*
G01X18417846Y2889431D01*
G01X18406416Y2895019D01*
G01X18389398Y2895019D01*
G01X18377968Y2889431D01*
G01X18366538Y2878001D01*
G01X18360696Y2860729D01*
G01X18360696Y2849299D01*
G01X18366538Y2832281D01*
G01X18377968Y2820851D01*
G01X18389398Y2815009D01*
G01X18406416Y2815009D01*
G01X18417846Y2820851D01*
G01X18429276Y2832281D01*
G01X18545608Y2935151D02*
G01X18545608Y2815009D01*
G01X18545608Y2878001D02*
G01X18534178Y2889431D01*
G01X18522748Y2895019D01*
G01X18505730Y2895019D01*
G01X18494300Y2889431D01*
G01X18482870Y2878001D01*
G01X18477028Y2860729D01*
G01X18477028Y2849299D01*
G01X18482870Y2832281D01*
G01X18494300Y2820851D01*
G01X18505730Y2815009D01*
G01X18522748Y2815009D01*
G01X18534178Y2820851D01*
G01X18545608Y2832281D01*
G01X19936403Y2935151D02*
G01X19924973Y2929309D01*
G01X19913543Y2917879D01*
G01X19907955Y2906449D01*
G01X19902113Y2889431D01*
G01X19902113Y2860729D01*
G01X19907955Y2843711D01*
G01X19913543Y2832281D01*
G01X19924973Y2820851D01*
G01X19936403Y2815009D01*
G01X19959263Y2815009D01*
G01X19970693Y2820851D01*
G01X19982123Y2832281D01*
G01X19987965Y2843711D01*
G01X19993553Y2860729D01*
G01X19993553Y2889431D01*
G01X19987965Y2906449D01*
G01X19982123Y2917879D01*
G01X19970693Y2929309D01*
G01X19959263Y2935151D01*
G01X19936403Y2935151D01*
G01X20041305Y2895019D02*
G01X20075595Y2815009D01*
G01X20109885Y2895019D02*
G01X20075595Y2815009D01*
G01X20226217Y2895019D02*
G01X20226217Y2815009D01*
G01X20226217Y2878001D02*
G01X20214787Y2889431D01*
G01X20203357Y2895019D01*
G01X20186339Y2895019D01*
G01X20174909Y2889431D01*
G01X20163479Y2878001D01*
G01X20157637Y2860729D01*
G01X20157637Y2849299D01*
G01X20163479Y2832281D01*
G01X20174909Y2820851D01*
G01X20186339Y2815009D01*
G01X20203357Y2815009D01*
G01X20214787Y2820851D01*
G01X20226217Y2832281D01*
G01X20273969Y2935151D02*
G01X20273969Y2815009D01*
G01X21861614Y2935151D02*
G01X21861614Y2815009D01*
G01X21821482Y2935151D02*
G01X21901492Y2935151D01*
G01X21977946Y2895019D02*
G01X21966516Y2889431D01*
G01X21955086Y2878001D01*
G01X21949244Y2860729D01*
G01X21949244Y2849299D01*
G01X21955086Y2832281D01*
G01X21966516Y2820851D01*
G01X21977946Y2815009D01*
G01X21994964Y2815009D01*
G01X22006394Y2820851D01*
G01X22017824Y2832281D01*
G01X22023666Y2849299D01*
G01X22023666Y2860729D01*
G01X22017824Y2878001D01*
G01X22006394Y2889431D01*
G01X21994964Y2895019D01*
G01X21977946Y2895019D01*
G01X22071418Y2895019D02*
G01X22071418Y2775131D01*
G01X22071418Y2878001D02*
G01X22082848Y2889431D01*
G01X22094278Y2895019D01*
G01X22111550Y2895019D01*
G01X22122980Y2889431D01*
G01X22134410Y2878001D01*
G01X22139998Y2860729D01*
G01X22139998Y2849299D01*
G01X22134410Y2832281D01*
G01X22122980Y2820851D01*
G01X22111550Y2815009D01*
G01X22094278Y2815009D01*
G01X22082848Y2820851D01*
G01X22071418Y2832281D01*
G01X22315766Y2935151D02*
G01X22315766Y2815009D01*
G01X22315766Y2815009D02*
G01X22384346Y2815009D01*
G01X22500678Y2895019D02*
G01X22500678Y2815009D01*
G01X22500678Y2878001D02*
G01X22489248Y2889431D01*
G01X22477818Y2895019D01*
G01X22460800Y2895019D01*
G01X22449370Y2889431D01*
G01X22437940Y2878001D01*
G01X22432098Y2860729D01*
G01X22432098Y2849299D01*
G01X22437940Y2832281D01*
G01X22449370Y2820851D01*
G01X22460800Y2815009D01*
G01X22477818Y2815009D01*
G01X22489248Y2820851D01*
G01X22500678Y2832281D01*
G01X22554272Y2895019D02*
G01X22588562Y2815009D01*
G01X22622852Y2895019D02*
G01X22588562Y2815009D01*
G01X22577132Y2792149D01*
G01X22565702Y2780719D01*
G01X22554272Y2775131D01*
G01X22548430Y2775131D01*
G01X22670604Y2860729D02*
G01X22739184Y2860729D01*
G01X22739184Y2872159D01*
G01X22733596Y2883589D01*
G01X22727754Y2889431D01*
G01X22716324Y2895019D01*
G01X22699306Y2895019D01*
G01X22687876Y2889431D01*
G01X22676446Y2878001D01*
G01X22670604Y2860729D01*
G01X22670604Y2849299D01*
G01X22676446Y2832281D01*
G01X22687876Y2820851D01*
G01X22699306Y2815009D01*
G01X22716324Y2815009D01*
G01X22727754Y2820851D01*
G01X22739184Y2832281D01*
G01X22786936Y2895019D02*
G01X22786936Y2815009D01*
G01X22786936Y2860729D02*
G01X22792778Y2878001D01*
G01X22804208Y2889431D01*
G01X22815638Y2895019D01*
G01X22832656Y2895019D01*
G01X22880408Y2866571D02*
G01X22983278Y2866571D01*
G01X23031030Y2935151D02*
G01X23031030Y2815009D01*
G01X23031030Y2935151D02*
G01X23082592Y2935151D01*
G01X23099610Y2929309D01*
G01X23105452Y2923721D01*
G01X23111040Y2912291D01*
G01X23111040Y2900861D01*
G01X23105452Y2889431D01*
G01X23099610Y2883589D01*
G01X23082592Y2878001D01*
G01X23031030Y2878001D02*
G01X23082592Y2878001D01*
G01X23099610Y2872159D01*
G01X23105452Y2866571D01*
G01X23111040Y2855141D01*
G01X23111040Y2837869D01*
G01X23105452Y2826439D01*
G01X23099610Y2820851D01*
G01X23082592Y2815009D01*
G01X23031030Y2815009D01*
G01X23187494Y2895019D02*
G01X23176064Y2889431D01*
G01X23164634Y2878001D01*
G01X23158792Y2860729D01*
G01X23158792Y2849299D01*
G01X23164634Y2832281D01*
G01X23176064Y2820851D01*
G01X23187494Y2815009D01*
G01X23204512Y2815009D01*
G01X23215942Y2820851D01*
G01X23227372Y2832281D01*
G01X23233214Y2849299D01*
G01X23233214Y2860729D01*
G01X23227372Y2878001D01*
G01X23215942Y2889431D01*
G01X23204512Y2895019D01*
G01X23187494Y2895019D01*
G01X23298238Y2935151D02*
G01X23298238Y2837869D01*
G01X23303826Y2820851D01*
G01X23315256Y2815009D01*
G01X23326686Y2815009D01*
G01X23280966Y2895019D02*
G01X23321098Y2895019D01*
G01X23391710Y2935151D02*
G01X23391710Y2837869D01*
G01X23397298Y2820851D01*
G01X23408728Y2815009D01*
G01X23420158Y2815009D01*
G01X23374438Y2895019D02*
G01X23414570Y2895019D01*
G01X23496612Y2895019D02*
G01X23485182Y2889431D01*
G01X23473752Y2878001D01*
G01X23467910Y2860729D01*
G01X23467910Y2849299D01*
G01X23473752Y2832281D01*
G01X23485182Y2820851D01*
G01X23496612Y2815009D01*
G01X23513630Y2815009D01*
G01X23525060Y2820851D01*
G01X23536490Y2832281D01*
G01X23542332Y2849299D01*
G01X23542332Y2860729D01*
G01X23536490Y2878001D01*
G01X23525060Y2889431D01*
G01X23513630Y2895019D01*
G01X23496612Y2895019D01*
G01X23590084Y2895019D02*
G01X23590084Y2815009D01*
G01X23590084Y2872159D02*
G01X23607356Y2889431D01*
G01X23618786Y2895019D01*
G01X23635804Y2895019D01*
G01X23647234Y2889431D01*
G01X23653076Y2872159D01*
G01X23653076Y2815009D01*
G01X23653076Y2872159D02*
G01X23670094Y2889431D01*
G01X23681524Y2895019D01*
G01X23698796Y2895019D01*
G01X23710226Y2889431D01*
G01X23715814Y2872159D01*
G01X23715814Y2815009D01*
G01X23891582Y2935151D02*
G01X23891582Y2815009D01*
G01X23891582Y2815009D02*
G01X23960162Y2815009D01*
G01X24076494Y2895019D02*
G01X24076494Y2815009D01*
G01X24076494Y2878001D02*
G01X24065064Y2889431D01*
G01X24053634Y2895019D01*
G01X24036616Y2895019D01*
G01X24025186Y2889431D01*
G01X24013756Y2878001D01*
G01X24007914Y2860729D01*
G01X24007914Y2849299D01*
G01X24013756Y2832281D01*
G01X24025186Y2820851D01*
G01X24036616Y2815009D01*
G01X24053634Y2815009D01*
G01X24065064Y2820851D01*
G01X24076494Y2832281D01*
G01X24130088Y2895019D02*
G01X24164378Y2815009D01*
G01X24198668Y2895019D02*
G01X24164378Y2815009D01*
G01X24152948Y2792149D01*
G01X24141518Y2780719D01*
G01X24130088Y2775131D01*
G01X24124246Y2775131D01*
G01X24246420Y2860729D02*
G01X24315000Y2860729D01*
G01X24315000Y2872159D01*
G01X24309412Y2883589D01*
G01X24303570Y2889431D01*
G01X24292140Y2895019D01*
G01X24275122Y2895019D01*
G01X24263692Y2889431D01*
G01X24252262Y2878001D01*
G01X24246420Y2860729D01*
G01X24246420Y2849299D01*
G01X24252262Y2832281D01*
G01X24263692Y2820851D01*
G01X24275122Y2815009D01*
G01X24292140Y2815009D01*
G01X24303570Y2820851D01*
G01X24315000Y2832281D01*
G01X24362752Y2895019D02*
G01X24362752Y2815009D01*
G01X24362752Y2860729D02*
G01X24368594Y2878001D01*
G01X24380024Y2889431D01*
G01X24391454Y2895019D01*
G01X24408472Y2895019D01*
G01X10095463Y2354580D02*
G01X10038313Y2274570D01*
G01X10124165Y2274570D01*
G01X10095463Y2354580D02*
G01X10095463Y2234438D01*
G01X11458318Y2325878D02*
G01X11458318Y2331720D01*
G01X11463906Y2343150D01*
G01X11469748Y2348738D01*
G01X11481178Y2354580D01*
G01X11504038Y2354580D01*
G01X11515468Y2348738D01*
G01X11521056Y2343150D01*
G01X11526898Y2331720D01*
G01X11526898Y2320290D01*
G01X11521056Y2308860D01*
G01X11509626Y2291588D01*
G01X11452476Y2234438D01*
G01X11532486Y2234438D01*
G01X11660248Y2354580D02*
G01X11603098Y2234438D01*
G01X11580238Y2354580D02*
G01X11660248Y2354580D01*
G01X11713842Y2263140D02*
G01X11708000Y2257298D01*
G01X11713842Y2251710D01*
G01X11719430Y2257298D01*
G01X11713842Y2263140D01*
G01X11835762Y2337308D02*
G01X11830174Y2348738D01*
G01X11812902Y2354580D01*
G01X11801472Y2354580D01*
G01X11784454Y2348738D01*
G01X11773024Y2331720D01*
G01X11767182Y2303018D01*
G01X11767182Y2274570D01*
G01X11773024Y2251710D01*
G01X11784454Y2240280D01*
G01X11801472Y2234438D01*
G01X11807314Y2234438D01*
G01X11824332Y2240280D01*
G01X11835762Y2251710D01*
G01X11841604Y2268728D01*
G01X11841604Y2274570D01*
G01X11835762Y2291588D01*
G01X11824332Y2303018D01*
G01X11807314Y2308860D01*
G01X11801472Y2308860D01*
G01X11784454Y2303018D01*
G01X11773024Y2291588D01*
G01X11767182Y2274570D01*
G01X11889356Y2314448D02*
G01X11889356Y2234438D01*
G01X11889356Y2291588D02*
G01X11906628Y2308860D01*
G01X11918058Y2314448D01*
G01X11935076Y2314448D01*
G01X11946506Y2308860D01*
G01X11952348Y2291588D01*
G01X11952348Y2234438D01*
G01X11952348Y2291588D02*
G01X11969366Y2308860D01*
G01X11980796Y2314448D01*
G01X11998068Y2314448D01*
G01X12009498Y2308860D01*
G01X12015086Y2291588D01*
G01X12015086Y2234438D01*
G01X12062838Y2354580D02*
G01X12068680Y2348738D01*
G01X12074268Y2354580D01*
G01X12068680Y2360168D01*
G01X12062838Y2354580D01*
G01X12068680Y2314448D02*
G01X12068680Y2234438D01*
G01X12122020Y2354580D02*
G01X12122020Y2234438D01*
G01X12209904Y2377440D02*
G01X12198474Y2366010D01*
G01X12187044Y2348738D01*
G01X12175614Y2325878D01*
G01X12169772Y2297430D01*
G01X12169772Y2274570D01*
G01X12175614Y2245868D01*
G01X12187044Y2223008D01*
G01X12198474Y2205990D01*
G01X12209904Y2194560D01*
G01X12291946Y2354580D02*
G01X12274928Y2348738D01*
G01X12263498Y2331720D01*
G01X12257656Y2303018D01*
G01X12257656Y2286000D01*
G01X12263498Y2257298D01*
G01X12274928Y2240280D01*
G01X12291946Y2234438D01*
G01X12303376Y2234438D01*
G01X12320648Y2240280D01*
G01X12332078Y2257298D01*
G01X12337666Y2286000D01*
G01X12337666Y2303018D01*
G01X12332078Y2331720D01*
G01X12320648Y2348738D01*
G01X12303376Y2354580D01*
G01X12291946Y2354580D01*
G01X12391260Y2263140D02*
G01X12385418Y2257298D01*
G01X12391260Y2251710D01*
G01X12396848Y2257298D01*
G01X12391260Y2263140D01*
G01X12524610Y2354580D02*
G01X12467460Y2234438D01*
G01X12444600Y2354580D02*
G01X12524610Y2354580D01*
G01X12606652Y2354580D02*
G01X12589634Y2348738D01*
G01X12578204Y2331720D01*
G01X12572362Y2303018D01*
G01X12572362Y2286000D01*
G01X12578204Y2257298D01*
G01X12589634Y2240280D01*
G01X12606652Y2234438D01*
G01X12618082Y2234438D01*
G01X12635354Y2240280D01*
G01X12646784Y2257298D01*
G01X12652372Y2286000D01*
G01X12652372Y2303018D01*
G01X12646784Y2331720D01*
G01X12635354Y2348738D01*
G01X12618082Y2354580D01*
G01X12606652Y2354580D01*
G01X12734414Y2354580D02*
G01X12717396Y2348738D01*
G01X12705966Y2331720D01*
G01X12700124Y2303018D01*
G01X12700124Y2286000D01*
G01X12705966Y2257298D01*
G01X12717396Y2240280D01*
G01X12734414Y2234438D01*
G01X12745844Y2234438D01*
G01X12763116Y2240280D01*
G01X12774546Y2257298D01*
G01X12780134Y2286000D01*
G01X12780134Y2303018D01*
G01X12774546Y2331720D01*
G01X12763116Y2348738D01*
G01X12745844Y2354580D01*
G01X12734414Y2354580D01*
G01X12827886Y2314448D02*
G01X12827886Y2234438D01*
G01X12827886Y2291588D02*
G01X12845158Y2308860D01*
G01X12856588Y2314448D01*
G01X12873606Y2314448D01*
G01X12885036Y2308860D01*
G01X12890878Y2291588D01*
G01X12890878Y2234438D01*
G01X12890878Y2291588D02*
G01X12907896Y2308860D01*
G01X12919326Y2314448D01*
G01X12936598Y2314448D01*
G01X12948028Y2308860D01*
G01X12953616Y2291588D01*
G01X12953616Y2234438D01*
G01X13001368Y2314448D02*
G01X13001368Y2234438D01*
G01X13001368Y2291588D02*
G01X13018640Y2308860D01*
G01X13030070Y2314448D01*
G01X13047088Y2314448D01*
G01X13058518Y2308860D01*
G01X13064360Y2291588D01*
G01X13064360Y2234438D01*
G01X13064360Y2291588D02*
G01X13081378Y2308860D01*
G01X13092808Y2314448D01*
G01X13110080Y2314448D01*
G01X13121510Y2308860D01*
G01X13127098Y2291588D01*
G01X13127098Y2234438D01*
G01X13174850Y2377440D02*
G01X13186280Y2366010D01*
G01X13197710Y2348738D01*
G01X13209140Y2325878D01*
G01X13214982Y2297430D01*
G01X13214982Y2274570D01*
G01X13209140Y2245868D01*
G01X13197710Y2223008D01*
G01X13186280Y2205990D01*
G01X13174850Y2194560D01*
G01X15340345Y2354580D02*
G01X15340345Y2234438D01*
G01X15340345Y2354580D02*
G01X15420355Y2234438D01*
G01X15420355Y2354580D02*
G01X15420355Y2234438D01*
G01X15468107Y2354580D02*
G01X15468107Y2234438D01*
G01X15468107Y2354580D02*
G01X15519669Y2354580D01*
G01X15536687Y2348738D01*
G01X15542529Y2343150D01*
G01X15548117Y2331720D01*
G01X15548117Y2314448D01*
G01X15542529Y2303018D01*
G01X15536687Y2297430D01*
G01X15519669Y2291588D01*
G01X15468107Y2291588D01*
G01X15636001Y2354580D02*
G01X15636001Y2234438D01*
G01X15595869Y2354580D02*
G01X15675879Y2354580D01*
G01X15723631Y2354580D02*
G01X15723631Y2234438D01*
G01X15803641Y2354580D02*
G01X15803641Y2234438D01*
G01X15723631Y2297430D02*
G01X15803641Y2297430D01*
G01X16801753Y2354580D02*
G01X16801753Y2234438D01*
G01X16801753Y2354580D02*
G01X16853315Y2354580D01*
G01X16870333Y2348738D01*
G01X16876175Y2343150D01*
G01X16881763Y2331720D01*
G01X16881763Y2320290D01*
G01X16876175Y2308860D01*
G01X16870333Y2303018D01*
G01X16853315Y2297430D01*
G01X16801753Y2297430D01*
G01X16841885Y2297430D02*
G01X16881763Y2234438D01*
G01X16958217Y2314448D02*
G01X16946787Y2308860D01*
G01X16935357Y2297430D01*
G01X16929515Y2280158D01*
G01X16929515Y2268728D01*
G01X16935357Y2251710D01*
G01X16946787Y2240280D01*
G01X16958217Y2234438D01*
G01X16975235Y2234438D01*
G01X16986665Y2240280D01*
G01X16998095Y2251710D01*
G01X17003937Y2268728D01*
G01X17003937Y2280158D01*
G01X16998095Y2297430D01*
G01X16986665Y2308860D01*
G01X16975235Y2314448D01*
G01X16958217Y2314448D01*
G01X17051689Y2314448D02*
G01X17051689Y2257298D01*
G01X17057531Y2240280D01*
G01X17068961Y2234438D01*
G01X17085979Y2234438D01*
G01X17097409Y2240280D01*
G01X17114681Y2257298D01*
G01X17114681Y2314448D02*
G01X17114681Y2234438D01*
G01X17162433Y2314448D02*
G01X17162433Y2234438D01*
G01X17162433Y2291588D02*
G01X17179705Y2308860D01*
G01X17191135Y2314448D01*
G01X17208153Y2314448D01*
G01X17219583Y2308860D01*
G01X17225425Y2291588D01*
G01X17225425Y2234438D01*
G01X17341757Y2354580D02*
G01X17341757Y2234438D01*
G01X17341757Y2297430D02*
G01X17330327Y2308860D01*
G01X17318897Y2314448D01*
G01X17301879Y2314448D01*
G01X17290449Y2308860D01*
G01X17279019Y2297430D01*
G01X17273177Y2280158D01*
G01X17273177Y2268728D01*
G01X17279019Y2251710D01*
G01X17290449Y2240280D01*
G01X17301879Y2234438D01*
G01X17318897Y2234438D01*
G01X17330327Y2240280D01*
G01X17341757Y2251710D01*
G01X18232934Y2354580D02*
G01X18278654Y2234438D01*
G01X18324374Y2354580D02*
G01X18278654Y2234438D01*
G01X18372126Y2354580D02*
G01X18377968Y2348738D01*
G01X18383556Y2354580D01*
G01X18377968Y2360168D01*
G01X18372126Y2354580D01*
G01X18377968Y2314448D02*
G01X18377968Y2234438D01*
G01X18499888Y2314448D02*
G01X18499888Y2234438D01*
G01X18499888Y2297430D02*
G01X18488458Y2308860D01*
G01X18477028Y2314448D01*
G01X18460010Y2314448D01*
G01X18448580Y2308860D01*
G01X18437150Y2297430D01*
G01X18431308Y2280158D01*
G01X18431308Y2268728D01*
G01X18437150Y2251710D01*
G01X18448580Y2240280D01*
G01X18460010Y2234438D01*
G01X18477028Y2234438D01*
G01X18488458Y2240280D01*
G01X18499888Y2251710D01*
G01X21861614Y2354580D02*
G01X21861614Y2234438D01*
G01X21821482Y2354580D02*
G01X21901492Y2354580D01*
G01X21977946Y2314448D02*
G01X21966516Y2308860D01*
G01X21955086Y2297430D01*
G01X21949244Y2280158D01*
G01X21949244Y2268728D01*
G01X21955086Y2251710D01*
G01X21966516Y2240280D01*
G01X21977946Y2234438D01*
G01X21994964Y2234438D01*
G01X22006394Y2240280D01*
G01X22017824Y2251710D01*
G01X22023666Y2268728D01*
G01X22023666Y2280158D01*
G01X22017824Y2297430D01*
G01X22006394Y2308860D01*
G01X21994964Y2314448D01*
G01X21977946Y2314448D01*
G01X22071418Y2314448D02*
G01X22071418Y2194560D01*
G01X22071418Y2297430D02*
G01X22082848Y2308860D01*
G01X22094278Y2314448D01*
G01X22111550Y2314448D01*
G01X22122980Y2308860D01*
G01X22134410Y2297430D01*
G01X22139998Y2280158D01*
G01X22139998Y2268728D01*
G01X22134410Y2251710D01*
G01X22122980Y2240280D01*
G01X22111550Y2234438D01*
G01X22094278Y2234438D01*
G01X22082848Y2240280D01*
G01X22071418Y2251710D01*
G01X22315766Y2354580D02*
G01X22315766Y2234438D01*
G01X22315766Y2234438D02*
G01X22384346Y2234438D01*
G01X22500678Y2314448D02*
G01X22500678Y2234438D01*
G01X22500678Y2297430D02*
G01X22489248Y2308860D01*
G01X22477818Y2314448D01*
G01X22460800Y2314448D01*
G01X22449370Y2308860D01*
G01X22437940Y2297430D01*
G01X22432098Y2280158D01*
G01X22432098Y2268728D01*
G01X22437940Y2251710D01*
G01X22449370Y2240280D01*
G01X22460800Y2234438D01*
G01X22477818Y2234438D01*
G01X22489248Y2240280D01*
G01X22500678Y2251710D01*
G01X22554272Y2314448D02*
G01X22588562Y2234438D01*
G01X22622852Y2314448D02*
G01X22588562Y2234438D01*
G01X22577132Y2211578D01*
G01X22565702Y2200148D01*
G01X22554272Y2194560D01*
G01X22548430Y2194560D01*
G01X22670604Y2280158D02*
G01X22739184Y2280158D01*
G01X22739184Y2291588D01*
G01X22733596Y2303018D01*
G01X22727754Y2308860D01*
G01X22716324Y2314448D01*
G01X22699306Y2314448D01*
G01X22687876Y2308860D01*
G01X22676446Y2297430D01*
G01X22670604Y2280158D01*
G01X22670604Y2268728D01*
G01X22676446Y2251710D01*
G01X22687876Y2240280D01*
G01X22699306Y2234438D01*
G01X22716324Y2234438D01*
G01X22727754Y2240280D01*
G01X22739184Y2251710D01*
G01X22786936Y2314448D02*
G01X22786936Y2234438D01*
G01X22786936Y2280158D02*
G01X22792778Y2297430D01*
G01X22804208Y2308860D01*
G01X22815638Y2314448D01*
G01X22832656Y2314448D01*
G01X22880408Y2286000D02*
G01X22983278Y2286000D01*
G01X23031030Y2354580D02*
G01X23031030Y2234438D01*
G01X23031030Y2354580D02*
G01X23082592Y2354580D01*
G01X23099610Y2348738D01*
G01X23105452Y2343150D01*
G01X23111040Y2331720D01*
G01X23111040Y2320290D01*
G01X23105452Y2308860D01*
G01X23099610Y2303018D01*
G01X23082592Y2297430D01*
G01X23031030Y2297430D02*
G01X23082592Y2297430D01*
G01X23099610Y2291588D01*
G01X23105452Y2286000D01*
G01X23111040Y2274570D01*
G01X23111040Y2257298D01*
G01X23105452Y2245868D01*
G01X23099610Y2240280D01*
G01X23082592Y2234438D01*
G01X23031030Y2234438D01*
G01X23187494Y2314448D02*
G01X23176064Y2308860D01*
G01X23164634Y2297430D01*
G01X23158792Y2280158D01*
G01X23158792Y2268728D01*
G01X23164634Y2251710D01*
G01X23176064Y2240280D01*
G01X23187494Y2234438D01*
G01X23204512Y2234438D01*
G01X23215942Y2240280D01*
G01X23227372Y2251710D01*
G01X23233214Y2268728D01*
G01X23233214Y2280158D01*
G01X23227372Y2297430D01*
G01X23215942Y2308860D01*
G01X23204512Y2314448D01*
G01X23187494Y2314448D01*
G01X23298238Y2354580D02*
G01X23298238Y2257298D01*
G01X23303826Y2240280D01*
G01X23315256Y2234438D01*
G01X23326686Y2234438D01*
G01X23280966Y2314448D02*
G01X23321098Y2314448D01*
G01X23391710Y2354580D02*
G01X23391710Y2257298D01*
G01X23397298Y2240280D01*
G01X23408728Y2234438D01*
G01X23420158Y2234438D01*
G01X23374438Y2314448D02*
G01X23414570Y2314448D01*
G01X23496612Y2314448D02*
G01X23485182Y2308860D01*
G01X23473752Y2297430D01*
G01X23467910Y2280158D01*
G01X23467910Y2268728D01*
G01X23473752Y2251710D01*
G01X23485182Y2240280D01*
G01X23496612Y2234438D01*
G01X23513630Y2234438D01*
G01X23525060Y2240280D01*
G01X23536490Y2251710D01*
G01X23542332Y2268728D01*
G01X23542332Y2280158D01*
G01X23536490Y2297430D01*
G01X23525060Y2308860D01*
G01X23513630Y2314448D01*
G01X23496612Y2314448D01*
G01X23590084Y2314448D02*
G01X23590084Y2234438D01*
G01X23590084Y2291588D02*
G01X23607356Y2308860D01*
G01X23618786Y2314448D01*
G01X23635804Y2314448D01*
G01X23647234Y2308860D01*
G01X23653076Y2291588D01*
G01X23653076Y2234438D01*
G01X23653076Y2291588D02*
G01X23670094Y2308860D01*
G01X23681524Y2314448D01*
G01X23698796Y2314448D01*
G01X23710226Y2308860D01*
G01X23715814Y2291588D01*
G01X23715814Y2234438D01*
G01X23891582Y2354580D02*
G01X23891582Y2234438D01*
G01X23891582Y2234438D02*
G01X23960162Y2234438D01*
G01X24076494Y2314448D02*
G01X24076494Y2234438D01*
G01X24076494Y2297430D02*
G01X24065064Y2308860D01*
G01X24053634Y2314448D01*
G01X24036616Y2314448D01*
G01X24025186Y2308860D01*
G01X24013756Y2297430D01*
G01X24007914Y2280158D01*
G01X24007914Y2268728D01*
G01X24013756Y2251710D01*
G01X24025186Y2240280D01*
G01X24036616Y2234438D01*
G01X24053634Y2234438D01*
G01X24065064Y2240280D01*
G01X24076494Y2251710D01*
G01X24130088Y2314448D02*
G01X24164378Y2234438D01*
G01X24198668Y2314448D02*
G01X24164378Y2234438D01*
G01X24152948Y2211578D01*
G01X24141518Y2200148D01*
G01X24130088Y2194560D01*
G01X24124246Y2194560D01*
G01X24246420Y2280158D02*
G01X24315000Y2280158D01*
G01X24315000Y2291588D01*
G01X24309412Y2303018D01*
G01X24303570Y2308860D01*
G01X24292140Y2314448D01*
G01X24275122Y2314448D01*
G01X24263692Y2308860D01*
G01X24252262Y2297430D01*
G01X24246420Y2280158D01*
G01X24246420Y2268728D01*
G01X24252262Y2251710D01*
G01X24263692Y2240280D01*
G01X24275122Y2234438D01*
G01X24292140Y2234438D01*
G01X24303570Y2240280D01*
G01X24315000Y2251710D01*
G01X24362752Y2314448D02*
G01X24362752Y2234438D01*
G01X24362752Y2280158D02*
G01X24368594Y2297430D01*
G01X24380024Y2308860D01*
G01X24391454Y2314448D01*
G01X24408472Y2314448D01*
G01X10106893Y1756737D02*
G01X10101305Y1768167D01*
G01X10084033Y1774009D01*
G01X10072603Y1774009D01*
G01X10055585Y1768167D01*
G01X10044155Y1751149D01*
G01X10038313Y1722447D01*
G01X10038313Y1693999D01*
G01X10044155Y1671139D01*
G01X10055585Y1659709D01*
G01X10072603Y1653867D01*
G01X10078445Y1653867D01*
G01X10095463Y1659709D01*
G01X10106893Y1671139D01*
G01X10112735Y1688157D01*
G01X10112735Y1693999D01*
G01X10106893Y1711017D01*
G01X10095463Y1722447D01*
G01X10078445Y1728289D01*
G01X10072603Y1728289D01*
G01X10055585Y1722447D01*
G01X10044155Y1711017D01*
G01X10038313Y1693999D01*
G01X11458318Y1745307D02*
G01X11458318Y1751149D01*
G01X11463906Y1762579D01*
G01X11469748Y1768167D01*
G01X11481178Y1774009D01*
G01X11504038Y1774009D01*
G01X11515468Y1768167D01*
G01X11521056Y1762579D01*
G01X11526898Y1751149D01*
G01X11526898Y1739719D01*
G01X11521056Y1728289D01*
G01X11509626Y1711017D01*
G01X11452476Y1653867D01*
G01X11532486Y1653867D01*
G01X11660248Y1774009D02*
G01X11603098Y1653867D01*
G01X11580238Y1774009D02*
G01X11660248Y1774009D01*
G01X11713842Y1682569D02*
G01X11708000Y1676727D01*
G01X11713842Y1671139D01*
G01X11719430Y1676727D01*
G01X11713842Y1682569D01*
G01X11835762Y1756737D02*
G01X11830174Y1768167D01*
G01X11812902Y1774009D01*
G01X11801472Y1774009D01*
G01X11784454Y1768167D01*
G01X11773024Y1751149D01*
G01X11767182Y1722447D01*
G01X11767182Y1693999D01*
G01X11773024Y1671139D01*
G01X11784454Y1659709D01*
G01X11801472Y1653867D01*
G01X11807314Y1653867D01*
G01X11824332Y1659709D01*
G01X11835762Y1671139D01*
G01X11841604Y1688157D01*
G01X11841604Y1693999D01*
G01X11835762Y1711017D01*
G01X11824332Y1722447D01*
G01X11807314Y1728289D01*
G01X11801472Y1728289D01*
G01X11784454Y1722447D01*
G01X11773024Y1711017D01*
G01X11767182Y1693999D01*
G01X11889356Y1733877D02*
G01X11952348Y1653867D01*
G01X11952348Y1733877D02*
G01X11889356Y1653867D01*
G01X12080110Y1774009D02*
G01X12022960Y1653867D01*
G01X12000100Y1774009D02*
G01X12080110Y1774009D01*
G01X12156564Y1774009D02*
G01X12139292Y1768167D01*
G01X12133704Y1756737D01*
G01X12133704Y1745307D01*
G01X12139292Y1733877D01*
G01X12150722Y1728289D01*
G01X12173582Y1722447D01*
G01X12190854Y1716859D01*
G01X12202284Y1705429D01*
G01X12207872Y1693999D01*
G01X12207872Y1676727D01*
G01X12202284Y1665297D01*
G01X12196442Y1659709D01*
G01X12179424Y1653867D01*
G01X12156564Y1653867D01*
G01X12139292Y1659709D01*
G01X12133704Y1665297D01*
G01X12127862Y1676727D01*
G01X12127862Y1693999D01*
G01X12133704Y1705429D01*
G01X12145134Y1716859D01*
G01X12162152Y1722447D01*
G01X12185012Y1728289D01*
G01X12196442Y1733877D01*
G01X12202284Y1745307D01*
G01X12202284Y1756737D01*
G01X12196442Y1768167D01*
G01X12179424Y1774009D01*
G01X12156564Y1774009D01*
G01X12261466Y1682569D02*
G01X12255624Y1676727D01*
G01X12261466Y1671139D01*
G01X12267054Y1676727D01*
G01X12261466Y1682569D01*
G01X12394816Y1774009D02*
G01X12337666Y1653867D01*
G01X12314806Y1774009D02*
G01X12394816Y1774009D01*
G01X12442568Y1733877D02*
G01X12442568Y1653867D01*
G01X12442568Y1711017D02*
G01X12459840Y1728289D01*
G01X12471270Y1733877D01*
G01X12488288Y1733877D01*
G01X12499718Y1728289D01*
G01X12505560Y1711017D01*
G01X12505560Y1653867D01*
G01X12505560Y1711017D02*
G01X12522578Y1728289D01*
G01X12534008Y1733877D01*
G01X12551280Y1733877D01*
G01X12562710Y1728289D01*
G01X12568298Y1711017D01*
G01X12568298Y1653867D01*
G01X12616050Y1774009D02*
G01X12621892Y1768167D01*
G01X12627480Y1774009D01*
G01X12621892Y1779597D01*
G01X12616050Y1774009D01*
G01X12621892Y1733877D02*
G01X12621892Y1653867D01*
G01X12675232Y1774009D02*
G01X12675232Y1653867D01*
G01X12763116Y1796869D02*
G01X12751686Y1785439D01*
G01X12740256Y1768167D01*
G01X12728826Y1745307D01*
G01X12722984Y1716859D01*
G01X12722984Y1693999D01*
G01X12728826Y1665297D01*
G01X12740256Y1642437D01*
G01X12751686Y1625419D01*
G01X12763116Y1613989D01*
G01X12845158Y1774009D02*
G01X12828140Y1768167D01*
G01X12816710Y1751149D01*
G01X12810868Y1722447D01*
G01X12810868Y1705429D01*
G01X12816710Y1676727D01*
G01X12828140Y1659709D01*
G01X12845158Y1653867D01*
G01X12856588Y1653867D01*
G01X12873860Y1659709D01*
G01X12885290Y1676727D01*
G01X12890878Y1705429D01*
G01X12890878Y1722447D01*
G01X12885290Y1751149D01*
G01X12873860Y1768167D01*
G01X12856588Y1774009D01*
G01X12845158Y1774009D01*
G01X12944472Y1682569D02*
G01X12938630Y1676727D01*
G01X12944472Y1671139D01*
G01X12950060Y1676727D01*
G01X12944472Y1682569D01*
G01X13077822Y1774009D02*
G01X13020672Y1653867D01*
G01X12997812Y1774009D02*
G01X13077822Y1774009D01*
G01X13159864Y1774009D02*
G01X13142846Y1768167D01*
G01X13131416Y1751149D01*
G01X13125574Y1722447D01*
G01X13125574Y1705429D01*
G01X13131416Y1676727D01*
G01X13142846Y1659709D01*
G01X13159864Y1653867D01*
G01X13171294Y1653867D01*
G01X13188566Y1659709D01*
G01X13199996Y1676727D01*
G01X13205584Y1705429D01*
G01X13205584Y1722447D01*
G01X13199996Y1751149D01*
G01X13188566Y1768167D01*
G01X13171294Y1774009D01*
G01X13159864Y1774009D01*
G01X13287626Y1774009D02*
G01X13270608Y1768167D01*
G01X13259178Y1751149D01*
G01X13253336Y1722447D01*
G01X13253336Y1705429D01*
G01X13259178Y1676727D01*
G01X13270608Y1659709D01*
G01X13287626Y1653867D01*
G01X13299056Y1653867D01*
G01X13316328Y1659709D01*
G01X13327758Y1676727D01*
G01X13333346Y1705429D01*
G01X13333346Y1722447D01*
G01X13327758Y1751149D01*
G01X13316328Y1768167D01*
G01X13299056Y1774009D01*
G01X13287626Y1774009D01*
G01X13381098Y1733877D02*
G01X13444090Y1653867D01*
G01X13444090Y1733877D02*
G01X13381098Y1653867D01*
G01X13497684Y1745307D02*
G01X13497684Y1751149D01*
G01X13503272Y1762579D01*
G01X13509114Y1768167D01*
G01X13520544Y1774009D01*
G01X13543404Y1774009D01*
G01X13554834Y1768167D01*
G01X13560422Y1762579D01*
G01X13566264Y1751149D01*
G01X13566264Y1739719D01*
G01X13560422Y1728289D01*
G01X13548992Y1711017D01*
G01X13491842Y1653867D01*
G01X13571852Y1653867D01*
G01X13625446Y1682569D02*
G01X13619604Y1676727D01*
G01X13625446Y1671139D01*
G01X13631034Y1676727D01*
G01X13625446Y1682569D01*
G01X13713076Y1774009D02*
G01X13696058Y1768167D01*
G01X13684628Y1751149D01*
G01X13678786Y1722447D01*
G01X13678786Y1705429D01*
G01X13684628Y1676727D01*
G01X13696058Y1659709D01*
G01X13713076Y1653867D01*
G01X13724506Y1653867D01*
G01X13741778Y1659709D01*
G01X13753208Y1676727D01*
G01X13758796Y1705429D01*
G01X13758796Y1722447D01*
G01X13753208Y1751149D01*
G01X13741778Y1768167D01*
G01X13724506Y1774009D01*
G01X13713076Y1774009D01*
G01X13840838Y1774009D02*
G01X13823820Y1768167D01*
G01X13812390Y1751149D01*
G01X13806548Y1722447D01*
G01X13806548Y1705429D01*
G01X13812390Y1676727D01*
G01X13823820Y1659709D01*
G01X13840838Y1653867D01*
G01X13852268Y1653867D01*
G01X13869540Y1659709D01*
G01X13880970Y1676727D01*
G01X13886558Y1705429D01*
G01X13886558Y1722447D01*
G01X13880970Y1751149D01*
G01X13869540Y1768167D01*
G01X13852268Y1774009D01*
G01X13840838Y1774009D01*
G01X13968600Y1774009D02*
G01X13951582Y1768167D01*
G01X13940152Y1751149D01*
G01X13934310Y1722447D01*
G01X13934310Y1705429D01*
G01X13940152Y1676727D01*
G01X13951582Y1659709D01*
G01X13968600Y1653867D01*
G01X13980030Y1653867D01*
G01X13997302Y1659709D01*
G01X14008732Y1676727D01*
G01X14014320Y1705429D01*
G01X14014320Y1722447D01*
G01X14008732Y1751149D01*
G01X13997302Y1768167D01*
G01X13980030Y1774009D01*
G01X13968600Y1774009D01*
G01X14062072Y1733877D02*
G01X14062072Y1653867D01*
G01X14062072Y1711017D02*
G01X14079344Y1728289D01*
G01X14090774Y1733877D01*
G01X14107792Y1733877D01*
G01X14119222Y1728289D01*
G01X14125064Y1711017D01*
G01X14125064Y1653867D01*
G01X14125064Y1711017D02*
G01X14142082Y1728289D01*
G01X14153512Y1733877D01*
G01X14170784Y1733877D01*
G01X14182214Y1728289D01*
G01X14187802Y1711017D01*
G01X14187802Y1653867D01*
G01X14235554Y1733877D02*
G01X14235554Y1653867D01*
G01X14235554Y1711017D02*
G01X14252826Y1728289D01*
G01X14264256Y1733877D01*
G01X14281274Y1733877D01*
G01X14292704Y1728289D01*
G01X14298546Y1711017D01*
G01X14298546Y1653867D01*
G01X14298546Y1711017D02*
G01X14315564Y1728289D01*
G01X14326994Y1733877D01*
G01X14344266Y1733877D01*
G01X14355696Y1728289D01*
G01X14361284Y1711017D01*
G01X14361284Y1653867D01*
G01X14409036Y1796869D02*
G01X14420466Y1785439D01*
G01X14431896Y1768167D01*
G01X14443326Y1745307D01*
G01X14449168Y1716859D01*
G01X14449168Y1693999D01*
G01X14443326Y1665297D01*
G01X14431896Y1642437D01*
G01X14420466Y1625419D01*
G01X14409036Y1613989D01*
G01X15340345Y1774009D02*
G01X15340345Y1653867D01*
G01X15340345Y1774009D02*
G01X15391907Y1774009D01*
G01X15408925Y1768167D01*
G01X15414767Y1762579D01*
G01X15420355Y1751149D01*
G01X15420355Y1733877D01*
G01X15414767Y1722447D01*
G01X15408925Y1716859D01*
G01X15391907Y1711017D01*
G01X15340345Y1711017D01*
G01X15508239Y1774009D02*
G01X15508239Y1653867D01*
G01X15468107Y1774009D02*
G01X15548117Y1774009D01*
G01X15595869Y1774009D02*
G01X15595869Y1653867D01*
G01X15675879Y1774009D02*
G01X15675879Y1653867D01*
G01X15595869Y1716859D02*
G01X15675879Y1716859D01*
G01X16881763Y1756737D02*
G01X16870333Y1768167D01*
G01X16853315Y1774009D01*
G01X16830455Y1774009D01*
G01X16813183Y1768167D01*
G01X16801753Y1756737D01*
G01X16801753Y1745307D01*
G01X16807595Y1733877D01*
G01X16813183Y1728289D01*
G01X16824613Y1722447D01*
G01X16858903Y1711017D01*
G01X16870333Y1705429D01*
G01X16876175Y1699587D01*
G01X16881763Y1688157D01*
G01X16881763Y1671139D01*
G01X16870333Y1659709D01*
G01X16853315Y1653867D01*
G01X16830455Y1653867D01*
G01X16813183Y1659709D01*
G01X16801753Y1671139D01*
G01X16929515Y1774009D02*
G01X16929515Y1653867D01*
G01X17005969Y1733877D02*
G01X16994539Y1728289D01*
G01X16983109Y1716859D01*
G01X16977267Y1699587D01*
G01X16977267Y1688157D01*
G01X16983109Y1671139D01*
G01X16994539Y1659709D01*
G01X17005969Y1653867D01*
G01X17022987Y1653867D01*
G01X17034417Y1659709D01*
G01X17045847Y1671139D01*
G01X17051689Y1688157D01*
G01X17051689Y1699587D01*
G01X17045847Y1716859D01*
G01X17034417Y1728289D01*
G01X17022987Y1733877D01*
G01X17005969Y1733877D01*
G01X17116713Y1774009D02*
G01X17116713Y1676727D01*
G01X17122301Y1659709D01*
G01X17133731Y1653867D01*
G01X17145161Y1653867D01*
G01X17099441Y1733877D02*
G01X17139573Y1733877D01*
G01X18232934Y1774009D02*
G01X18232934Y1653867D01*
G01X18232934Y1774009D02*
G01X18284496Y1774009D01*
G01X18301514Y1768167D01*
G01X18307356Y1762579D01*
G01X18312944Y1751149D01*
G01X18312944Y1733877D01*
G01X18307356Y1722447D01*
G01X18301514Y1716859D01*
G01X18284496Y1711017D01*
G01X18232934Y1711017D01*
G01X18429276Y1733877D02*
G01X18429276Y1653867D01*
G01X18429276Y1716859D02*
G01X18417846Y1728289D01*
G01X18406416Y1733877D01*
G01X18389398Y1733877D01*
G01X18377968Y1728289D01*
G01X18366538Y1716859D01*
G01X18360696Y1699587D01*
G01X18360696Y1688157D01*
G01X18366538Y1671139D01*
G01X18377968Y1659709D01*
G01X18389398Y1653867D01*
G01X18406416Y1653867D01*
G01X18417846Y1659709D01*
G01X18429276Y1671139D01*
G01X18545608Y1774009D02*
G01X18545608Y1653867D01*
G01X18545608Y1716859D02*
G01X18534178Y1728289D01*
G01X18522748Y1733877D01*
G01X18505730Y1733877D01*
G01X18494300Y1728289D01*
G01X18482870Y1716859D01*
G01X18477028Y1699587D01*
G01X18477028Y1688157D01*
G01X18482870Y1671139D01*
G01X18494300Y1659709D01*
G01X18505730Y1653867D01*
G01X18522748Y1653867D01*
G01X18534178Y1659709D01*
G01X18545608Y1671139D01*
G01X19936403Y1774009D02*
G01X19924973Y1768167D01*
G01X19913543Y1756737D01*
G01X19907955Y1745307D01*
G01X19902113Y1728289D01*
G01X19902113Y1699587D01*
G01X19907955Y1682569D01*
G01X19913543Y1671139D01*
G01X19924973Y1659709D01*
G01X19936403Y1653867D01*
G01X19959263Y1653867D01*
G01X19970693Y1659709D01*
G01X19982123Y1671139D01*
G01X19987965Y1682569D01*
G01X19993553Y1699587D01*
G01X19993553Y1728289D01*
G01X19987965Y1745307D01*
G01X19982123Y1756737D01*
G01X19970693Y1768167D01*
G01X19959263Y1774009D01*
G01X19936403Y1774009D01*
G01X20041305Y1733877D02*
G01X20075595Y1653867D01*
G01X20109885Y1733877D02*
G01X20075595Y1653867D01*
G01X20226217Y1733877D02*
G01X20226217Y1653867D01*
G01X20226217Y1716859D02*
G01X20214787Y1728289D01*
G01X20203357Y1733877D01*
G01X20186339Y1733877D01*
G01X20174909Y1728289D01*
G01X20163479Y1716859D01*
G01X20157637Y1699587D01*
G01X20157637Y1688157D01*
G01X20163479Y1671139D01*
G01X20174909Y1659709D01*
G01X20186339Y1653867D01*
G01X20203357Y1653867D01*
G01X20214787Y1659709D01*
G01X20226217Y1671139D01*
G01X20273969Y1774009D02*
G01X20273969Y1653867D01*
G01X21861614Y1774009D02*
G01X21861614Y1653867D01*
G01X21821482Y1774009D02*
G01X21901492Y1774009D01*
G01X21977946Y1733877D02*
G01X21966516Y1728289D01*
G01X21955086Y1716859D01*
G01X21949244Y1699587D01*
G01X21949244Y1688157D01*
G01X21955086Y1671139D01*
G01X21966516Y1659709D01*
G01X21977946Y1653867D01*
G01X21994964Y1653867D01*
G01X22006394Y1659709D01*
G01X22017824Y1671139D01*
G01X22023666Y1688157D01*
G01X22023666Y1699587D01*
G01X22017824Y1716859D01*
G01X22006394Y1728289D01*
G01X21994964Y1733877D01*
G01X21977946Y1733877D01*
G01X22071418Y1733877D02*
G01X22071418Y1613989D01*
G01X22071418Y1716859D02*
G01X22082848Y1728289D01*
G01X22094278Y1733877D01*
G01X22111550Y1733877D01*
G01X22122980Y1728289D01*
G01X22134410Y1716859D01*
G01X22139998Y1699587D01*
G01X22139998Y1688157D01*
G01X22134410Y1671139D01*
G01X22122980Y1659709D01*
G01X22111550Y1653867D01*
G01X22094278Y1653867D01*
G01X22082848Y1659709D01*
G01X22071418Y1671139D01*
G01X22315766Y1774009D02*
G01X22315766Y1653867D01*
G01X22315766Y1653867D02*
G01X22384346Y1653867D01*
G01X22500678Y1733877D02*
G01X22500678Y1653867D01*
G01X22500678Y1716859D02*
G01X22489248Y1728289D01*
G01X22477818Y1733877D01*
G01X22460800Y1733877D01*
G01X22449370Y1728289D01*
G01X22437940Y1716859D01*
G01X22432098Y1699587D01*
G01X22432098Y1688157D01*
G01X22437940Y1671139D01*
G01X22449370Y1659709D01*
G01X22460800Y1653867D01*
G01X22477818Y1653867D01*
G01X22489248Y1659709D01*
G01X22500678Y1671139D01*
G01X22554272Y1733877D02*
G01X22588562Y1653867D01*
G01X22622852Y1733877D02*
G01X22588562Y1653867D01*
G01X22577132Y1631007D01*
G01X22565702Y1619577D01*
G01X22554272Y1613989D01*
G01X22548430Y1613989D01*
G01X22670604Y1699587D02*
G01X22739184Y1699587D01*
G01X22739184Y1711017D01*
G01X22733596Y1722447D01*
G01X22727754Y1728289D01*
G01X22716324Y1733877D01*
G01X22699306Y1733877D01*
G01X22687876Y1728289D01*
G01X22676446Y1716859D01*
G01X22670604Y1699587D01*
G01X22670604Y1688157D01*
G01X22676446Y1671139D01*
G01X22687876Y1659709D01*
G01X22699306Y1653867D01*
G01X22716324Y1653867D01*
G01X22727754Y1659709D01*
G01X22739184Y1671139D01*
G01X22786936Y1733877D02*
G01X22786936Y1653867D01*
G01X22786936Y1699587D02*
G01X22792778Y1716859D01*
G01X22804208Y1728289D01*
G01X22815638Y1733877D01*
G01X22832656Y1733877D01*
G01X22880408Y1705429D02*
G01X22983278Y1705429D01*
G01X23031030Y1774009D02*
G01X23031030Y1653867D01*
G01X23031030Y1774009D02*
G01X23082592Y1774009D01*
G01X23099610Y1768167D01*
G01X23105452Y1762579D01*
G01X23111040Y1751149D01*
G01X23111040Y1739719D01*
G01X23105452Y1728289D01*
G01X23099610Y1722447D01*
G01X23082592Y1716859D01*
G01X23031030Y1716859D02*
G01X23082592Y1716859D01*
G01X23099610Y1711017D01*
G01X23105452Y1705429D01*
G01X23111040Y1693999D01*
G01X23111040Y1676727D01*
G01X23105452Y1665297D01*
G01X23099610Y1659709D01*
G01X23082592Y1653867D01*
G01X23031030Y1653867D01*
G01X23187494Y1733877D02*
G01X23176064Y1728289D01*
G01X23164634Y1716859D01*
G01X23158792Y1699587D01*
G01X23158792Y1688157D01*
G01X23164634Y1671139D01*
G01X23176064Y1659709D01*
G01X23187494Y1653867D01*
G01X23204512Y1653867D01*
G01X23215942Y1659709D01*
G01X23227372Y1671139D01*
G01X23233214Y1688157D01*
G01X23233214Y1699587D01*
G01X23227372Y1716859D01*
G01X23215942Y1728289D01*
G01X23204512Y1733877D01*
G01X23187494Y1733877D01*
G01X23298238Y1774009D02*
G01X23298238Y1676727D01*
G01X23303826Y1659709D01*
G01X23315256Y1653867D01*
G01X23326686Y1653867D01*
G01X23280966Y1733877D02*
G01X23321098Y1733877D01*
G01X23391710Y1774009D02*
G01X23391710Y1676727D01*
G01X23397298Y1659709D01*
G01X23408728Y1653867D01*
G01X23420158Y1653867D01*
G01X23374438Y1733877D02*
G01X23414570Y1733877D01*
G01X23496612Y1733877D02*
G01X23485182Y1728289D01*
G01X23473752Y1716859D01*
G01X23467910Y1699587D01*
G01X23467910Y1688157D01*
G01X23473752Y1671139D01*
G01X23485182Y1659709D01*
G01X23496612Y1653867D01*
G01X23513630Y1653867D01*
G01X23525060Y1659709D01*
G01X23536490Y1671139D01*
G01X23542332Y1688157D01*
G01X23542332Y1699587D01*
G01X23536490Y1716859D01*
G01X23525060Y1728289D01*
G01X23513630Y1733877D01*
G01X23496612Y1733877D01*
G01X23590084Y1733877D02*
G01X23590084Y1653867D01*
G01X23590084Y1711017D02*
G01X23607356Y1728289D01*
G01X23618786Y1733877D01*
G01X23635804Y1733877D01*
G01X23647234Y1728289D01*
G01X23653076Y1711017D01*
G01X23653076Y1653867D01*
G01X23653076Y1711017D02*
G01X23670094Y1728289D01*
G01X23681524Y1733877D01*
G01X23698796Y1733877D01*
G01X23710226Y1728289D01*
G01X23715814Y1711017D01*
G01X23715814Y1653867D01*
G01X23891582Y1774009D02*
G01X23891582Y1653867D01*
G01X23891582Y1653867D02*
G01X23960162Y1653867D01*
G01X24076494Y1733877D02*
G01X24076494Y1653867D01*
G01X24076494Y1716859D02*
G01X24065064Y1728289D01*
G01X24053634Y1733877D01*
G01X24036616Y1733877D01*
G01X24025186Y1728289D01*
G01X24013756Y1716859D01*
G01X24007914Y1699587D01*
G01X24007914Y1688157D01*
G01X24013756Y1671139D01*
G01X24025186Y1659709D01*
G01X24036616Y1653867D01*
G01X24053634Y1653867D01*
G01X24065064Y1659709D01*
G01X24076494Y1671139D01*
G01X24130088Y1733877D02*
G01X24164378Y1653867D01*
G01X24198668Y1733877D02*
G01X24164378Y1653867D01*
G01X24152948Y1631007D01*
G01X24141518Y1619577D01*
G01X24130088Y1613989D01*
G01X24124246Y1613989D01*
G01X24246420Y1699587D02*
G01X24315000Y1699587D01*
G01X24315000Y1711017D01*
G01X24309412Y1722447D01*
G01X24303570Y1728289D01*
G01X24292140Y1733877D01*
G01X24275122Y1733877D01*
G01X24263692Y1728289D01*
G01X24252262Y1716859D01*
G01X24246420Y1699587D01*
G01X24246420Y1688157D01*
G01X24252262Y1671139D01*
G01X24263692Y1659709D01*
G01X24275122Y1653867D01*
G01X24292140Y1653867D01*
G01X24303570Y1659709D01*
G01X24315000Y1671139D01*
G01X24362752Y1733877D02*
G01X24362752Y1653867D01*
G01X24362752Y1699587D02*
G01X24368594Y1716859D01*
G01X24380024Y1728289D01*
G01X24391454Y1733877D01*
G01X24408472Y1733877D01*
G01X10044155Y1164735D02*
G01X10044155Y1170577D01*
G01X10049743Y1182007D01*
G01X10055585Y1187595D01*
G01X10067015Y1193437D01*
G01X10089875Y1193437D01*
G01X10101305Y1187595D01*
G01X10106893Y1182007D01*
G01X10112735Y1170577D01*
G01X10112735Y1159147D01*
G01X10106893Y1147717D01*
G01X10095463Y1130445D01*
G01X10038313Y1073295D01*
G01X10118323Y1073295D01*
G01X10234655Y1176165D02*
G01X10229067Y1187595D01*
G01X10211795Y1193437D01*
G01X10200365Y1193437D01*
G01X10183347Y1187595D01*
G01X10171917Y1170577D01*
G01X10166075Y1141875D01*
G01X10166075Y1113427D01*
G01X10171917Y1090567D01*
G01X10183347Y1079137D01*
G01X10200365Y1073295D01*
G01X10206207Y1073295D01*
G01X10223225Y1079137D01*
G01X10234655Y1090567D01*
G01X10240497Y1107585D01*
G01X10240497Y1113427D01*
G01X10234655Y1130445D01*
G01X10223225Y1141875D01*
G01X10206207Y1147717D01*
G01X10200365Y1147717D01*
G01X10183347Y1141875D01*
G01X10171917Y1130445D01*
G01X10166075Y1113427D01*
G01X11452476Y1170577D02*
G01X11463906Y1176165D01*
G01X11481178Y1193437D01*
G01X11481178Y1073295D01*
G01X11534772Y1164735D02*
G01X11534772Y1170577D01*
G01X11540360Y1182007D01*
G01X11546202Y1187595D01*
G01X11557632Y1193437D01*
G01X11580492Y1193437D01*
G01X11591922Y1187595D01*
G01X11597510Y1182007D01*
G01X11603352Y1170577D01*
G01X11603352Y1159147D01*
G01X11597510Y1147717D01*
G01X11586080Y1130445D01*
G01X11528930Y1073295D01*
G01X11608940Y1073295D01*
G01X11662534Y1101997D02*
G01X11656692Y1096155D01*
G01X11662534Y1090567D01*
G01X11668122Y1096155D01*
G01X11662534Y1101997D01*
G01X11750164Y1193437D02*
G01X11733146Y1187595D01*
G01X11721716Y1170577D01*
G01X11715874Y1141875D01*
G01X11715874Y1124857D01*
G01X11721716Y1096155D01*
G01X11733146Y1079137D01*
G01X11750164Y1073295D01*
G01X11761594Y1073295D01*
G01X11778866Y1079137D01*
G01X11790296Y1096155D01*
G01X11795884Y1124857D01*
G01X11795884Y1141875D01*
G01X11790296Y1170577D01*
G01X11778866Y1187595D01*
G01X11761594Y1193437D01*
G01X11750164Y1193437D01*
G01X11843636Y1153305D02*
G01X11843636Y1073295D01*
G01X11843636Y1130445D02*
G01X11860908Y1147717D01*
G01X11872338Y1153305D01*
G01X11889356Y1153305D01*
G01X11900786Y1147717D01*
G01X11906628Y1130445D01*
G01X11906628Y1073295D01*
G01X11906628Y1130445D02*
G01X11923646Y1147717D01*
G01X11935076Y1153305D01*
G01X11952348Y1153305D01*
G01X11963778Y1147717D01*
G01X11969366Y1130445D01*
G01X11969366Y1073295D01*
G01X12017118Y1193437D02*
G01X12022960Y1187595D01*
G01X12028548Y1193437D01*
G01X12022960Y1199025D01*
G01X12017118Y1193437D01*
G01X12022960Y1153305D02*
G01X12022960Y1073295D01*
G01X12076300Y1193437D02*
G01X12076300Y1073295D01*
G01X12164184Y1216297D02*
G01X12152754Y1204867D01*
G01X12141324Y1187595D01*
G01X12129894Y1164735D01*
G01X12124052Y1136287D01*
G01X12124052Y1113427D01*
G01X12129894Y1084725D01*
G01X12141324Y1061865D01*
G01X12152754Y1044847D01*
G01X12164184Y1033417D01*
G01X12246226Y1193437D02*
G01X12229208Y1187595D01*
G01X12217778Y1170577D01*
G01X12211936Y1141875D01*
G01X12211936Y1124857D01*
G01X12217778Y1096155D01*
G01X12229208Y1079137D01*
G01X12246226Y1073295D01*
G01X12257656Y1073295D01*
G01X12274928Y1079137D01*
G01X12286358Y1096155D01*
G01X12291946Y1124857D01*
G01X12291946Y1141875D01*
G01X12286358Y1170577D01*
G01X12274928Y1187595D01*
G01X12257656Y1193437D01*
G01X12246226Y1193437D01*
G01X12345540Y1101997D02*
G01X12339698Y1096155D01*
G01X12345540Y1090567D01*
G01X12351128Y1096155D01*
G01X12345540Y1101997D01*
G01X12410310Y1193437D02*
G01X12473302Y1193437D01*
G01X12439012Y1147717D01*
G01X12456030Y1147717D01*
G01X12467460Y1141875D01*
G01X12473302Y1136287D01*
G01X12478890Y1119015D01*
G01X12478890Y1107585D01*
G01X12473302Y1090567D01*
G01X12461872Y1079137D01*
G01X12444600Y1073295D01*
G01X12427582Y1073295D01*
G01X12410310Y1079137D01*
G01X12404722Y1084725D01*
G01X12398880Y1096155D01*
G01X12560932Y1193437D02*
G01X12543914Y1187595D01*
G01X12532484Y1170577D01*
G01X12526642Y1141875D01*
G01X12526642Y1124857D01*
G01X12532484Y1096155D01*
G01X12543914Y1079137D01*
G01X12560932Y1073295D01*
G01X12572362Y1073295D01*
G01X12589634Y1079137D01*
G01X12601064Y1096155D01*
G01X12606652Y1124857D01*
G01X12606652Y1141875D01*
G01X12601064Y1170577D01*
G01X12589634Y1187595D01*
G01X12572362Y1193437D01*
G01X12560932Y1193437D01*
G01X12722984Y1193437D02*
G01X12665834Y1193437D01*
G01X12660246Y1141875D01*
G01X12665834Y1147717D01*
G01X12683106Y1153305D01*
G01X12700124Y1153305D01*
G01X12717396Y1147717D01*
G01X12728826Y1136287D01*
G01X12734414Y1119015D01*
G01X12734414Y1107585D01*
G01X12728826Y1090567D01*
G01X12717396Y1079137D01*
G01X12700124Y1073295D01*
G01X12683106Y1073295D01*
G01X12665834Y1079137D01*
G01X12660246Y1084725D01*
G01X12654404Y1096155D01*
G01X12782166Y1153305D02*
G01X12782166Y1073295D01*
G01X12782166Y1130445D02*
G01X12799438Y1147717D01*
G01X12810868Y1153305D01*
G01X12827886Y1153305D01*
G01X12839316Y1147717D01*
G01X12845158Y1130445D01*
G01X12845158Y1073295D01*
G01X12845158Y1130445D02*
G01X12862176Y1147717D01*
G01X12873606Y1153305D01*
G01X12890878Y1153305D01*
G01X12902308Y1147717D01*
G01X12907896Y1130445D01*
G01X12907896Y1073295D01*
G01X12955648Y1153305D02*
G01X12955648Y1073295D01*
G01X12955648Y1130445D02*
G01X12972920Y1147717D01*
G01X12984350Y1153305D01*
G01X13001368Y1153305D01*
G01X13012798Y1147717D01*
G01X13018640Y1130445D01*
G01X13018640Y1073295D01*
G01X13018640Y1130445D02*
G01X13035658Y1147717D01*
G01X13047088Y1153305D01*
G01X13064360Y1153305D01*
G01X13075790Y1147717D01*
G01X13081378Y1130445D01*
G01X13081378Y1073295D01*
G01X13129130Y1216297D02*
G01X13140560Y1204867D01*
G01X13151990Y1187595D01*
G01X13163420Y1164735D01*
G01X13169262Y1136287D01*
G01X13169262Y1113427D01*
G01X13163420Y1084725D01*
G01X13151990Y1061865D01*
G01X13140560Y1044847D01*
G01X13129130Y1033417D01*
G01X15340345Y1193437D02*
G01X15340345Y1073295D01*
G01X15340345Y1193437D02*
G01X15391907Y1193437D01*
G01X15408925Y1187595D01*
G01X15414767Y1182007D01*
G01X15420355Y1170577D01*
G01X15420355Y1153305D01*
G01X15414767Y1141875D01*
G01X15408925Y1136287D01*
G01X15391907Y1130445D01*
G01X15340345Y1130445D01*
G01X15508239Y1193437D02*
G01X15508239Y1073295D01*
G01X15468107Y1193437D02*
G01X15548117Y1193437D01*
G01X15595869Y1193437D02*
G01X15595869Y1073295D01*
G01X15675879Y1193437D02*
G01X15675879Y1073295D01*
G01X15595869Y1136287D02*
G01X15675879Y1136287D01*
G01X16801753Y1193437D02*
G01X16801753Y1073295D01*
G01X16801753Y1193437D02*
G01X16853315Y1193437D01*
G01X16870333Y1187595D01*
G01X16876175Y1182007D01*
G01X16881763Y1170577D01*
G01X16881763Y1159147D01*
G01X16876175Y1147717D01*
G01X16870333Y1141875D01*
G01X16853315Y1136287D01*
G01X16801753Y1136287D01*
G01X16841885Y1136287D02*
G01X16881763Y1073295D01*
G01X16958217Y1153305D02*
G01X16946787Y1147717D01*
G01X16935357Y1136287D01*
G01X16929515Y1119015D01*
G01X16929515Y1107585D01*
G01X16935357Y1090567D01*
G01X16946787Y1079137D01*
G01X16958217Y1073295D01*
G01X16975235Y1073295D01*
G01X16986665Y1079137D01*
G01X16998095Y1090567D01*
G01X17003937Y1107585D01*
G01X17003937Y1119015D01*
G01X16998095Y1136287D01*
G01X16986665Y1147717D01*
G01X16975235Y1153305D01*
G01X16958217Y1153305D01*
G01X17051689Y1153305D02*
G01X17051689Y1096155D01*
G01X17057531Y1079137D01*
G01X17068961Y1073295D01*
G01X17085979Y1073295D01*
G01X17097409Y1079137D01*
G01X17114681Y1096155D01*
G01X17114681Y1153305D02*
G01X17114681Y1073295D01*
G01X17162433Y1153305D02*
G01X17162433Y1073295D01*
G01X17162433Y1130445D02*
G01X17179705Y1147717D01*
G01X17191135Y1153305D01*
G01X17208153Y1153305D01*
G01X17219583Y1147717D01*
G01X17225425Y1130445D01*
G01X17225425Y1073295D01*
G01X17341757Y1193437D02*
G01X17341757Y1073295D01*
G01X17341757Y1136287D02*
G01X17330327Y1147717D01*
G01X17318897Y1153305D01*
G01X17301879Y1153305D01*
G01X17290449Y1147717D01*
G01X17279019Y1136287D01*
G01X17273177Y1119015D01*
G01X17273177Y1107585D01*
G01X17279019Y1090567D01*
G01X17290449Y1079137D01*
G01X17301879Y1073295D01*
G01X17318897Y1073295D01*
G01X17330327Y1079137D01*
G01X17341757Y1090567D01*
G01X18232934Y1193437D02*
G01X18278654Y1073295D01*
G01X18324374Y1193437D02*
G01X18278654Y1073295D01*
G01X18372126Y1193437D02*
G01X18377968Y1187595D01*
G01X18383556Y1193437D01*
G01X18377968Y1199025D01*
G01X18372126Y1193437D01*
G01X18377968Y1153305D02*
G01X18377968Y1073295D01*
G01X18499888Y1153305D02*
G01X18499888Y1073295D01*
G01X18499888Y1136287D02*
G01X18488458Y1147717D01*
G01X18477028Y1153305D01*
G01X18460010Y1153305D01*
G01X18448580Y1147717D01*
G01X18437150Y1136287D01*
G01X18431308Y1119015D01*
G01X18431308Y1107585D01*
G01X18437150Y1090567D01*
G01X18448580Y1079137D01*
G01X18460010Y1073295D01*
G01X18477028Y1073295D01*
G01X18488458Y1079137D01*
G01X18499888Y1090567D01*
G01X21861614Y1193437D02*
G01X21861614Y1073295D01*
G01X21821482Y1193437D02*
G01X21901492Y1193437D01*
G01X21977946Y1153305D02*
G01X21966516Y1147717D01*
G01X21955086Y1136287D01*
G01X21949244Y1119015D01*
G01X21949244Y1107585D01*
G01X21955086Y1090567D01*
G01X21966516Y1079137D01*
G01X21977946Y1073295D01*
G01X21994964Y1073295D01*
G01X22006394Y1079137D01*
G01X22017824Y1090567D01*
G01X22023666Y1107585D01*
G01X22023666Y1119015D01*
G01X22017824Y1136287D01*
G01X22006394Y1147717D01*
G01X21994964Y1153305D01*
G01X21977946Y1153305D01*
G01X22071418Y1153305D02*
G01X22071418Y1033417D01*
G01X22071418Y1136287D02*
G01X22082848Y1147717D01*
G01X22094278Y1153305D01*
G01X22111550Y1153305D01*
G01X22122980Y1147717D01*
G01X22134410Y1136287D01*
G01X22139998Y1119015D01*
G01X22139998Y1107585D01*
G01X22134410Y1090567D01*
G01X22122980Y1079137D01*
G01X22111550Y1073295D01*
G01X22094278Y1073295D01*
G01X22082848Y1079137D01*
G01X22071418Y1090567D01*
G01X22315766Y1193437D02*
G01X22315766Y1073295D01*
G01X22315766Y1073295D02*
G01X22384346Y1073295D01*
G01X22500678Y1153305D02*
G01X22500678Y1073295D01*
G01X22500678Y1136287D02*
G01X22489248Y1147717D01*
G01X22477818Y1153305D01*
G01X22460800Y1153305D01*
G01X22449370Y1147717D01*
G01X22437940Y1136287D01*
G01X22432098Y1119015D01*
G01X22432098Y1107585D01*
G01X22437940Y1090567D01*
G01X22449370Y1079137D01*
G01X22460800Y1073295D01*
G01X22477818Y1073295D01*
G01X22489248Y1079137D01*
G01X22500678Y1090567D01*
G01X22554272Y1153305D02*
G01X22588562Y1073295D01*
G01X22622852Y1153305D02*
G01X22588562Y1073295D01*
G01X22577132Y1050435D01*
G01X22565702Y1039005D01*
G01X22554272Y1033417D01*
G01X22548430Y1033417D01*
G01X22670604Y1119015D02*
G01X22739184Y1119015D01*
G01X22739184Y1130445D01*
G01X22733596Y1141875D01*
G01X22727754Y1147717D01*
G01X22716324Y1153305D01*
G01X22699306Y1153305D01*
G01X22687876Y1147717D01*
G01X22676446Y1136287D01*
G01X22670604Y1119015D01*
G01X22670604Y1107585D01*
G01X22676446Y1090567D01*
G01X22687876Y1079137D01*
G01X22699306Y1073295D01*
G01X22716324Y1073295D01*
G01X22727754Y1079137D01*
G01X22739184Y1090567D01*
G01X22786936Y1153305D02*
G01X22786936Y1073295D01*
G01X22786936Y1119015D02*
G01X22792778Y1136287D01*
G01X22804208Y1147717D01*
G01X22815638Y1153305D01*
G01X22832656Y1153305D01*
G01X22880408Y1124857D02*
G01X22983278Y1124857D01*
G01X23031030Y1193437D02*
G01X23031030Y1073295D01*
G01X23031030Y1193437D02*
G01X23082592Y1193437D01*
G01X23099610Y1187595D01*
G01X23105452Y1182007D01*
G01X23111040Y1170577D01*
G01X23111040Y1159147D01*
G01X23105452Y1147717D01*
G01X23099610Y1141875D01*
G01X23082592Y1136287D01*
G01X23031030Y1136287D02*
G01X23082592Y1136287D01*
G01X23099610Y1130445D01*
G01X23105452Y1124857D01*
G01X23111040Y1113427D01*
G01X23111040Y1096155D01*
G01X23105452Y1084725D01*
G01X23099610Y1079137D01*
G01X23082592Y1073295D01*
G01X23031030Y1073295D01*
G01X23187494Y1153305D02*
G01X23176064Y1147717D01*
G01X23164634Y1136287D01*
G01X23158792Y1119015D01*
G01X23158792Y1107585D01*
G01X23164634Y1090567D01*
G01X23176064Y1079137D01*
G01X23187494Y1073295D01*
G01X23204512Y1073295D01*
G01X23215942Y1079137D01*
G01X23227372Y1090567D01*
G01X23233214Y1107585D01*
G01X23233214Y1119015D01*
G01X23227372Y1136287D01*
G01X23215942Y1147717D01*
G01X23204512Y1153305D01*
G01X23187494Y1153305D01*
G01X23298238Y1193437D02*
G01X23298238Y1096155D01*
G01X23303826Y1079137D01*
G01X23315256Y1073295D01*
G01X23326686Y1073295D01*
G01X23280966Y1153305D02*
G01X23321098Y1153305D01*
G01X23391710Y1193437D02*
G01X23391710Y1096155D01*
G01X23397298Y1079137D01*
G01X23408728Y1073295D01*
G01X23420158Y1073295D01*
G01X23374438Y1153305D02*
G01X23414570Y1153305D01*
G01X23496612Y1153305D02*
G01X23485182Y1147717D01*
G01X23473752Y1136287D01*
G01X23467910Y1119015D01*
G01X23467910Y1107585D01*
G01X23473752Y1090567D01*
G01X23485182Y1079137D01*
G01X23496612Y1073295D01*
G01X23513630Y1073295D01*
G01X23525060Y1079137D01*
G01X23536490Y1090567D01*
G01X23542332Y1107585D01*
G01X23542332Y1119015D01*
G01X23536490Y1136287D01*
G01X23525060Y1147717D01*
G01X23513630Y1153305D01*
G01X23496612Y1153305D01*
G01X23590084Y1153305D02*
G01X23590084Y1073295D01*
G01X23590084Y1130445D02*
G01X23607356Y1147717D01*
G01X23618786Y1153305D01*
G01X23635804Y1153305D01*
G01X23647234Y1147717D01*
G01X23653076Y1130445D01*
G01X23653076Y1073295D01*
G01X23653076Y1130445D02*
G01X23670094Y1147717D01*
G01X23681524Y1153305D01*
G01X23698796Y1153305D01*
G01X23710226Y1147717D01*
G01X23715814Y1130445D01*
G01X23715814Y1073295D01*
G01X23891582Y1193437D02*
G01X23891582Y1073295D01*
G01X23891582Y1073295D02*
G01X23960162Y1073295D01*
G01X24076494Y1153305D02*
G01X24076494Y1073295D01*
G01X24076494Y1136287D02*
G01X24065064Y1147717D01*
G01X24053634Y1153305D01*
G01X24036616Y1153305D01*
G01X24025186Y1147717D01*
G01X24013756Y1136287D01*
G01X24007914Y1119015D01*
G01X24007914Y1107585D01*
G01X24013756Y1090567D01*
G01X24025186Y1079137D01*
G01X24036616Y1073295D01*
G01X24053634Y1073295D01*
G01X24065064Y1079137D01*
G01X24076494Y1090567D01*
G01X24130088Y1153305D02*
G01X24164378Y1073295D01*
G01X24198668Y1153305D02*
G01X24164378Y1073295D01*
G01X24152948Y1050435D01*
G01X24141518Y1039005D01*
G01X24130088Y1033417D01*
G01X24124246Y1033417D01*
G01X24246420Y1119015D02*
G01X24315000Y1119015D01*
G01X24315000Y1130445D01*
G01X24309412Y1141875D01*
G01X24303570Y1147717D01*
G01X24292140Y1153305D01*
G01X24275122Y1153305D01*
G01X24263692Y1147717D01*
G01X24252262Y1136287D01*
G01X24246420Y1119015D01*
G01X24246420Y1107585D01*
G01X24252262Y1090567D01*
G01X24263692Y1079137D01*
G01X24275122Y1073295D01*
G01X24292140Y1073295D01*
G01X24303570Y1079137D01*
G01X24315000Y1090567D01*
G01X24362752Y1153305D02*
G01X24362752Y1073295D01*
G01X24362752Y1119015D02*
G01X24368594Y1136287D01*
G01X24380024Y1147717D01*
G01X24391454Y1153305D01*
G01X24408472Y1153305D01*

G04 Image Start*
G36*
G01X8873701Y1593396D02*
G01X8768088Y1604877D01*
G01X8725213Y1507671D01*
G01X8682338Y1604877D01*
G01X8576725Y1593396D01*
G01X8639488Y1679121D01*
G01X8599766Y1733376D01*
G01X8631258Y1733376D01*
G01X8670959Y1679121D01*
G01X8631258Y1624867D01*
G01X8698086Y1632131D01*
G01X8698086Y1632131D01*
G01X8725213Y1570638D01*
G01X8752340Y1632131D01*
G01X8819168Y1624867D01*
G01X8779467Y1679121D01*
G01X8819142Y1733350D01*
G01X8752315Y1726086D01*
G01X8725213Y1787605D01*
G01X8698086Y1726111D01*
G01X8631258Y1733376D01*
G01X8599766Y1733376D01*
G01X8576725Y1764846D01*
G01X8682363Y1753366D01*
G01X8725213Y1850571D01*
G01X8768088Y1753366D01*
G01X8873701Y1764846D01*
G01X8810938Y1679121D01*
G01X8873701Y1593396D01*
G37*
G36*
G01X8744708Y2707701D02*
G01X8736968Y2707113D01*
G01X8729125Y2706914D01*
G01X8721282Y2707113D01*
G01X8713541Y2707701D01*
G01X8705914Y2708670D01*
G01X8698409Y2710010D01*
G01X8683803Y2713765D01*
G01X8669801Y2718890D01*
G01X8656478Y2725307D01*
G01X8643913Y2732940D01*
G01X8632181Y2741713D01*
G01X8621359Y2751548D01*
G01X8611523Y2762371D01*
G01X8602750Y2774103D01*
G01X8595117Y2786668D01*
G01X8588700Y2799990D01*
G01X8583576Y2813992D01*
G01X8579821Y2828598D01*
G01X8578480Y2836104D01*
G01X8577511Y2843731D01*
G01X8576923Y2851471D01*
G01X8576725Y2859314D01*
G01X8602125Y2859314D01*
G01X8602782Y2846348D01*
G01X8604709Y2833752D01*
G01X8607844Y2821590D01*
G01X8612121Y2809928D01*
G01X8617475Y2798828D01*
G01X8623844Y2788357D01*
G01X8631162Y2778577D01*
G01X8639364Y2769554D01*
G01X8648388Y2761351D01*
G01X8658167Y2754034D01*
G01X8668639Y2747665D01*
G01X8679738Y2742310D01*
G01X8691400Y2738034D01*
G01X8703562Y2734899D01*
G01X8703562Y2734899D01*
G01X8716158Y2732971D01*
G01X8729125Y2732314D01*
G01X8742091Y2732971D01*
G01X8754687Y2734899D01*
G01X8766849Y2738034D01*
G01X8778511Y2742310D01*
G01X8789611Y2747665D01*
G01X8800082Y2754034D01*
G01X8809862Y2761351D01*
G01X8818885Y2769554D01*
G01X8827088Y2778577D01*
G01X8834405Y2788357D01*
G01X8840774Y2798828D01*
G01X8846129Y2809928D01*
G01X8850405Y2821590D01*
G01X8853540Y2833752D01*
G01X8855468Y2846348D01*
G01X8856125Y2859314D01*
G01X8855468Y2872281D01*
G01X8853540Y2884877D01*
G01X8850405Y2897038D01*
G01X8846129Y2908701D01*
G01X8840774Y2919800D01*
G01X8834405Y2930272D01*
G01X8827088Y2940051D01*
G01X8818885Y2949075D01*
G01X8809862Y2957277D01*
G01X8800082Y2964595D01*
G01X8789611Y2970963D01*
G01X8778511Y2976318D01*
G01X8766849Y2980595D01*
G01X8754687Y2983729D01*
G01X8742091Y2985657D01*
G01X8729125Y2986314D01*
G01X8716158Y2985657D01*
G01X8703562Y2983729D01*
G01X8691400Y2980595D01*
G01X8679738Y2976318D01*
G01X8668639Y2970963D01*
G01X8658167Y2964595D01*
G01X8648388Y2957277D01*
G01X8639364Y2949075D01*
G01X8631162Y2940051D01*
G01X8623844Y2930272D01*
G01X8617475Y2919800D01*
G01X8612121Y2908701D01*
G01X8607844Y2897038D01*
G01X8604709Y2884877D01*
G01X8602782Y2872281D01*
G01X8602125Y2859314D01*
G01X8576725Y2859314D01*
G01X8576923Y2867157D01*
G01X8577511Y2874898D01*
G01X8578480Y2882525D01*
G01X8579821Y2890030D01*
G01X8583576Y2904636D01*
G01X8588700Y2918638D01*
G01X8595117Y2931960D01*
G01X8602750Y2944526D01*
G01X8611523Y2956258D01*
G01X8621359Y2967080D01*
G01X8632181Y2976916D01*
G01X8643913Y2985689D01*
G01X8656478Y2993322D01*
G01X8669801Y2999739D01*
G01X8683803Y3004863D01*
G01X8698409Y3008618D01*
G01X8705914Y3009958D01*
G01X8713541Y3010928D01*
G01X8721282Y3011516D01*
G01X8729125Y3011714D01*
G01X8736968Y3011516D01*
G01X8744708Y3010928D01*
G01X8752335Y3009958D01*
G01X8759841Y3008618D01*
G01X8774446Y3004863D01*
G01X8788449Y2999739D01*
G01X8801771Y2993322D01*
G01X8814336Y2985689D01*
G01X8826068Y2976916D01*
G01X8836890Y2967080D01*
G01X8846726Y2956258D01*
G01X8855499Y2944526D01*
G01X8863132Y2931960D01*
G01X8869549Y2918638D01*
G01X8874674Y2904636D01*
G01X8878429Y2890030D01*
G01X8879769Y2882525D01*
G01X8880738Y2874898D01*
G01X8881326Y2867157D01*
G01X8881525Y2859314D01*
G01X8881326Y2851471D01*
G01X8880738Y2843731D01*
G01X8879769Y2836104D01*
G01X8878429Y2828598D01*
G01X8874674Y2813992D01*
G01X8869549Y2799990D01*
G01X8863132Y2786668D01*
G01X8855499Y2774103D01*
G01X8846726Y2762371D01*
G01X8836890Y2751548D01*
G01X8826068Y2741713D01*
G01X8814336Y2732940D01*
G01X8801771Y2725307D01*
G01X8788449Y2718890D01*
G01X8774446Y2713765D01*
G01X8759841Y2710010D01*
G01X8752335Y2708670D01*
G01X8744708Y2707701D01*
G37*
G36*
G01X8881525Y1270000D02*
G01X8811497Y1117600D01*
G01X8881525Y965200D01*
G01X8729125Y1035228D01*
G01X8576725Y965200D01*
G01X8600487Y1016914D01*
G01X8628439Y1016914D01*
G01X8718507Y1058316D01*
G01X8729125Y1063193D01*
G01X8739742Y1058316D01*
G01X8829810Y1016914D01*
G01X8788408Y1106983D01*
G01X8783531Y1117600D01*
G01X8788408Y1128217D01*
G01X8829810Y1218286D01*
G01X8739742Y1176884D01*
G01X8729125Y1172007D01*
G01X8718507Y1176884D01*
G01X8628439Y1218286D01*
G01X8669841Y1128217D01*
G01X8674718Y1117600D01*
G01X8674718Y1117600D01*
G01X8669841Y1106983D01*
G01X8628439Y1016914D01*
G01X8600487Y1016914D01*
G01X8646752Y1117600D01*
G01X8576725Y1270000D01*
G01X8729125Y1199972D01*
G01X8881525Y1270000D01*
G37*
G36*
G01X8576725Y2431143D02*
G01X8881525Y2431143D01*
G01X8729125Y2167186D01*
G01X8591390Y2405743D01*
G01X8620717Y2405743D01*
G01X8729125Y2217986D01*
G01X8837532Y2405743D01*
G01X8837532Y2405743D01*
G01X8620717Y2405743D01*
G01X8591390Y2405743D01*
G01X8576725Y2431143D01*
G37*
G36*
G01X8576725Y3592286D02*
G01X8856125Y3592286D01*
G01X8856125Y3312886D01*
G01X8576725Y3312886D01*
G01X8576725Y3566886D01*
G01X8602125Y3566886D01*
G01X8602125Y3338286D01*
G01X8830725Y3338286D01*
G01X8830725Y3566886D01*
G01X8830725Y3566886D01*
G01X8602125Y3566886D01*
G01X8576725Y3566886D01*
G01X8576725Y3592286D01*
G37*

G04 PolygonModel Start*
G54D16*
G01X8286439Y834571D02*
G01X24999203Y834571D01*
G01X8286439Y1415143D02*
G01X24999203Y1415143D01*
G01X8286439Y1995714D02*
G01X24999203Y1995714D01*
G01X8286439Y2576286D02*
G01X24999203Y2576286D01*
G01X8286439Y3156857D02*
G01X24999203Y3156857D01*
G01X8286439Y3737429D02*
G01X24999203Y3737429D01*
G01X8286439Y4318000D02*
G01X24999203Y4318000D01*
G01X8286439Y4318000D02*
G01X8286439Y859971D01*
G01X9737867Y4318000D02*
G01X9737867Y859971D01*
G01X11152031Y4318000D02*
G01X11152031Y859971D01*
G01X15039900Y4318000D02*
G01X15039900Y859971D01*
G01X16501307Y4318000D02*
G01X16501307Y859971D01*
G01X17932488Y4318000D02*
G01X17932488Y859971D01*
G01X19601667Y4318000D02*
G01X19601667Y859971D01*
G01X21521036Y4318000D02*
G01X21521036Y859971D01*
G01X24999203Y4318000D02*
G01X24999203Y859971D01*

M02*

