G04 Layer: TopPasteMaskLayer*
G04 EasyEDA Pro v3.2.148, 2026-09-02 20:01:09*
G04 Gerber Generator version 0.3*
G04 Scale: 100 percent, Rotated: No, Reflected: No*
G04 Dimensions in millimeters*
G04 Leading zeros omitted, absolute positions, 4 integers and 5 decimals*
G04 Generated by one-click*
G04 Object Configs: Pad,Via,Track,Text,Image,Dimension,BoardOutline,BoardCutout,CopperFilled,SolidRegion,FPCStiffener,Line,PlaneZone,ComponentProperty,ComponentSilkscreen,TearDrop*
G04 Layer Configs: 1,2,3,4,5,6,7,8,9,10,11,13,14,56*
G04 Copper Areas: 0*
%FSLAX45Y45*%
%MOMM*%
%ADD10R,0.9X0.8*%
%ADD11R,0.25001X1.2*%
%ADD12C,0.6904*%
G75*


G04 PolygonModel Start*
G36*
G01X79464Y3586801D02*
G01X84465Y3591800D01*
G01X164465Y3591800D01*
G01X169464Y3586801D01*
G01X169464Y3506801D01*
G01X164465Y3501800D01*
G01X140261Y3501800D01*
G01X140261Y3538800D01*
G01X107262Y3538800D01*
G01X107262Y3501800D01*
G01X84465Y3501800D01*
G01X79464Y3506801D01*
G01X79464Y3586801D01*
G37*
G36*
G01X169461Y3347797D02*
G01X164460Y3342798D01*
G01X84460Y3342798D01*
G01X79461Y3347797D01*
G01X79461Y3427797D01*
G01X84460Y3432798D01*
G01X108664Y3432798D01*
G01X108664Y3395798D01*
G01X141663Y3395798D01*
G01X141663Y3432798D01*
G01X164460Y3432798D01*
G01X169461Y3427797D01*
G01X169461Y3347797D01*
G37*
G36*
G01X-222799Y3599302D02*
G01X-217797Y3604301D01*
G01X-137798Y3604301D01*
G01X-132799Y3599302D01*
G01X-132799Y3519302D01*
G01X-137798Y3514301D01*
G01X-162001Y3514301D01*
G01X-162001Y3551301D01*
G01X-195001Y3551301D01*
G01X-195001Y3514301D01*
G01X-217797Y3514301D01*
G01X-222799Y3519302D01*
G01X-222799Y3599302D01*
G37*
G36*
G01X-132801Y3360298D02*
G01X-137803Y3355299D01*
G01X-217802Y3355299D01*
G01X-222801Y3360298D01*
G01X-222801Y3440298D01*
G01X-217802Y3445299D01*
G01X-193599Y3445299D01*
G01X-193599Y3408299D01*
G01X-160599Y3408299D01*
G01X-160599Y3445299D01*
G01X-137803Y3445299D01*
G01X-132801Y3440298D01*
G01X-132801Y3360298D01*
G37*
G36*
G01X-5810799Y983102D02*
G01X-5805797Y988101D01*
G01X-5725798Y988101D01*
G01X-5720799Y983102D01*
G01X-5720799Y903102D01*
G01X-5725798Y898101D01*
G01X-5750001Y898101D01*
G01X-5750001Y935101D01*
G01X-5783001Y935101D01*
G01X-5783001Y898101D01*
G01X-5805797Y898101D01*
G01X-5810799Y903102D01*
G01X-5810799Y983102D01*
G37*
G36*
G01X-5720801Y744098D02*
G01X-5725803Y739099D01*
G01X-5805802Y739099D01*
G01X-5810801Y744098D01*
G01X-5810801Y824098D01*
G01X-5805802Y829099D01*
G01X-5781599Y829099D01*
G01X-5781599Y792099D01*
G01X-5748599Y792099D01*
G01X-5748599Y829099D01*
G01X-5725803Y829099D01*
G01X-5720801Y824098D01*
G01X-5720801Y744098D01*
G37*
G36*
G01X-5428701Y729671D02*
G01X-5433703Y724672D01*
G01X-5513702Y724672D01*
G01X-5518701Y729671D01*
G01X-5518701Y809671D01*
G01X-5513702Y814672D01*
G01X-5489499Y814672D01*
G01X-5489499Y777672D01*
G01X-5456499Y777672D01*
G01X-5456499Y814672D01*
G01X-5433703Y814672D01*
G01X-5428701Y809671D01*
G01X-5428701Y729671D01*
G37*
G36*
G01X-5518699Y968675D02*
G01X-5513697Y973673D01*
G01X-5433698Y973673D01*
G01X-5428699Y968675D01*
G01X-5428699Y888675D01*
G01X-5433698Y883674D01*
G01X-5457901Y883674D01*
G01X-5457901Y920674D01*
G01X-5490901Y920674D01*
G01X-5490901Y883674D01*
G01X-5513697Y883674D01*
G01X-5518699Y888675D01*
G01X-5518699Y968675D01*
G37*
G36*
G01X-140007Y3754496D02*
G01X-110005Y3754496D01*
G01X-110005Y3644496D01*
G01X-140007Y3644496D01*
G01X-140007Y3754496D01*
G37*
G36*
G01X-160017Y3644496D02*
G01X-190020Y3644496D01*
G01X-190020Y3754496D01*
G01X-160017Y3754496D01*
G01X-160017Y3644496D01*
G37*
G36*
G01X350002Y3644496D02*
G01X290002Y3644496D01*
G01X290002Y3754496D01*
G01X350002Y3754496D01*
G01X350002Y3644496D01*
G37*
G36*
G01X-89995Y3754496D02*
G01X-59992Y3754496D01*
G01X-59992Y3644496D01*
G01X-89995Y3644496D01*
G01X-89995Y3754496D01*
G37*
G36*
G01X-210017Y3644496D02*
G01X-270017Y3644496D01*
G01X-270017Y3754496D01*
G01X-210017Y3754496D01*
G01X-210017Y3644496D01*
G37*
G36*
G01X-350002Y3754496D02*
G01X-290002Y3754496D01*
G01X-290002Y3644496D01*
G01X-350002Y3644496D01*
G01X-350002Y3754496D01*
G37*
G36*
G01X-40008Y3754496D02*
G01X-10005Y3754496D01*
G01X-10005Y3644496D01*
G01X-40008Y3644496D01*
G01X-40008Y3754496D01*
G37*
G36*
G01X10005Y3754496D02*
G01X40008Y3754496D01*
G01X40008Y3644496D01*
G01X10005Y3644496D01*
G01X10005Y3754496D01*
G37*
G36*
G01X269992Y3644496D02*
G01X209992Y3644496D01*
G01X209992Y3754496D01*
G01X269992Y3754496D01*
G01X269992Y3644496D01*
G37*
G36*
G01X59992Y3754496D02*
G01X89995Y3754496D01*
G01X89995Y3644496D01*
G01X59992Y3644496D01*
G01X59992Y3754496D01*
G37*
G36*
G01X109979Y3754496D02*
G01X139982Y3754496D01*
G01X139982Y3644496D01*
G01X109979Y3644496D01*
G01X109979Y3754496D01*
G37*
G36*
G01X159992Y3754496D02*
G01X189995Y3754496D01*
G01X189995Y3644496D01*
G01X159992Y3644496D01*
G01X159992Y3754496D01*
G37*
G36*
G01X-436982Y3654656D02*
G01X-439958Y3654953D01*
G01X-442918Y3655400D01*
G01X-445849Y3655992D01*
G01X-448749Y3656731D01*
G01X-451607Y3657613D01*
G01X-454419Y3658636D01*
G01X-457175Y3659797D01*
G01X-459872Y3661095D01*
G01X-462498Y3662528D01*
G01X-465051Y3664087D01*
G01X-467523Y3665771D01*
G01X-469908Y3667580D01*
G01X-472199Y3669502D01*
G01X-474393Y3671537D01*
G01X-476481Y3673678D01*
G01X-478462Y3675921D01*
G01X-480327Y3678260D01*
G01X-482072Y3680689D01*
G01X-483695Y3683203D01*
G01X-485191Y3685794D01*
G01X-486557Y3688456D01*
G01X-487787Y3691181D01*
G01X-488879Y3693968D01*
G01X-489834Y3696802D01*
G01X-490644Y3699683D01*
G01X-491310Y3702599D01*
G01X-491828Y3705545D01*
G01X-492201Y3708514D01*
G01X-492425Y3711499D01*
G01X-492498Y3714488D01*
G01X-492498Y3794488D01*
G01X-492425Y3797478D01*
G01X-492201Y3800462D01*
G01X-491828Y3803432D01*
G01X-491310Y3806378D01*
G01X-490644Y3809294D01*
G01X-489834Y3812174D01*
G01X-488879Y3815009D01*
G01X-487787Y3817795D01*
G01X-486557Y3820521D01*
G01X-485191Y3823183D01*
G01X-483695Y3825773D01*
G01X-482072Y3828288D01*
G01X-480327Y3830716D01*
G01X-478462Y3833056D01*
G01X-476481Y3835298D01*
G01X-474393Y3837440D01*
G01X-472199Y3839474D01*
G01X-469908Y3841397D01*
G01X-467523Y3843205D01*
G01X-465051Y3844889D01*
G01X-462498Y3846449D01*
G01X-459872Y3847882D01*
G01X-457175Y3849180D01*
G01X-454419Y3850340D01*
G01X-451607Y3851364D01*
G01X-448749Y3852245D01*
G01X-445849Y3852984D01*
G01X-442918Y3853576D01*
G01X-439958Y3854023D01*
G01X-436982Y3854320D01*
G01X-433995Y3854470D01*
G01X-431002Y3854470D01*
G01X-428015Y3854320D01*
G01X-425039Y3854023D01*
G01X-422079Y3853576D01*
G01X-419148Y3852984D01*
G01X-416248Y3852245D01*
G01X-413390Y3851364D01*
G01X-410578Y3850340D01*
G01X-407822Y3849180D01*
G01X-405125Y3847882D01*
G01X-402499Y3846449D01*
G01X-399946Y3844889D01*
G01X-397474Y3843205D01*
G01X-395089Y3841397D01*
G01X-392798Y3839474D01*
G01X-390604Y3837440D01*
G01X-388516Y3835298D01*
G01X-386535Y3833056D01*
G01X-384670Y3830716D01*
G01X-382925Y3828288D01*
G01X-381302Y3825773D01*
G01X-379806Y3823183D01*
G01X-378440Y3820521D01*
G01X-377210Y3817795D01*
G01X-376118Y3815009D01*
G01X-375163Y3812174D01*
G01X-374353Y3809294D01*
G01X-373687Y3806378D01*
G01X-373169Y3803432D01*
G01X-372796Y3800462D01*
G01X-372572Y3797478D01*
G01X-372499Y3794488D01*
G01X-372499Y3714488D01*
G01X-372572Y3711499D01*
G01X-372796Y3708514D01*
G01X-373169Y3705545D01*
G01X-373687Y3702599D01*
G01X-374353Y3699683D01*
G01X-375163Y3696802D01*
G01X-376118Y3693968D01*
G01X-377210Y3691181D01*
G01X-378440Y3688456D01*
G01X-379806Y3685794D01*
G01X-381302Y3683203D01*
G01X-382925Y3680689D01*
G01X-384670Y3678260D01*
G01X-386535Y3675921D01*
G01X-388516Y3673678D01*
G01X-390604Y3671537D01*
G01X-392798Y3669502D01*
G01X-395089Y3667580D01*
G01X-397474Y3665771D01*
G01X-399946Y3664087D01*
G01X-402499Y3662528D01*
G01X-405125Y3661095D01*
G01X-407822Y3659797D01*
G01X-410578Y3658636D01*
G01X-413390Y3657613D01*
G01X-416248Y3656731D01*
G01X-419148Y3655992D01*
G01X-422079Y3655400D01*
G01X-425039Y3654953D01*
G01X-428015Y3654656D01*
G01X-431002Y3654506D01*
G01X-433995Y3654506D01*
G01X-436982Y3654656D01*
G37*
G36*
G01X433995Y3654506D02*
G01X431002Y3654506D01*
G01X428015Y3654656D01*
G01X425039Y3654953D01*
G01X422079Y3655400D01*
G01X419148Y3655992D01*
G01X416248Y3656731D01*
G01X413390Y3657613D01*
G01X410578Y3658636D01*
G01X407822Y3659797D01*
G01X405125Y3661095D01*
G01X402499Y3662528D01*
G01X399946Y3664087D01*
G01X397474Y3665771D01*
G01X395089Y3667580D01*
G01X392798Y3669502D01*
G01X390604Y3671537D01*
G01X388516Y3673678D01*
G01X386535Y3675921D01*
G01X384670Y3678260D01*
G01X382925Y3680689D01*
G01X381302Y3683203D01*
G01X379806Y3685794D01*
G01X378440Y3688456D01*
G01X377210Y3691181D01*
G01X376118Y3693968D01*
G01X375163Y3696802D01*
G01X374353Y3699683D01*
G01X373687Y3702599D01*
G01X373169Y3705545D01*
G01X372796Y3708514D01*
G01X372572Y3711499D01*
G01X372499Y3714488D01*
G01X372499Y3794488D01*
G01X372572Y3797478D01*
G01X372796Y3800462D01*
G01X373169Y3803432D01*
G01X373687Y3806378D01*
G01X374353Y3809294D01*
G01X375163Y3812174D01*
G01X376118Y3815009D01*
G01X377210Y3817795D01*
G01X378440Y3820521D01*
G01X379806Y3823183D01*
G01X381302Y3825773D01*
G01X382925Y3828288D01*
G01X384670Y3830716D01*
G01X386535Y3833056D01*
G01X388516Y3835298D01*
G01X390604Y3837440D01*
G01X392798Y3839474D01*
G01X395089Y3841397D01*
G01X397474Y3843205D01*
G01X399946Y3844889D01*
G01X402499Y3846449D01*
G01X405125Y3847882D01*
G01X407822Y3849180D01*
G01X410578Y3850340D01*
G01X413390Y3851364D01*
G01X416248Y3852245D01*
G01X419148Y3852984D01*
G01X422079Y3853576D01*
G01X425039Y3854023D01*
G01X428015Y3854320D01*
G01X431002Y3854470D01*
G01X433995Y3854470D01*
G01X436982Y3854320D01*
G01X439958Y3854023D01*
G01X442918Y3853576D01*
G01X445849Y3852984D01*
G01X448749Y3852245D01*
G01X451607Y3851364D01*
G01X454419Y3850340D01*
G01X457175Y3849180D01*
G01X459872Y3847882D01*
G01X462498Y3846449D01*
G01X465051Y3844889D01*
G01X467523Y3843205D01*
G01X469908Y3841397D01*
G01X472199Y3839474D01*
G01X474393Y3837440D01*
G01X476481Y3835298D01*
G01X478462Y3833056D01*
G01X480327Y3830716D01*
G01X482072Y3828288D01*
G01X483695Y3825773D01*
G01X485191Y3823183D01*
G01X486557Y3820521D01*
G01X487787Y3817795D01*
G01X488879Y3815009D01*
G01X489834Y3812174D01*
G01X490644Y3809294D01*
G01X491310Y3806378D01*
G01X491828Y3803432D01*
G01X492201Y3800462D01*
G01X492425Y3797478D01*
G01X492498Y3794488D01*
G01X492498Y3714488D01*
G01X492425Y3711499D01*
G01X492201Y3708514D01*
G01X491828Y3705545D01*
G01X491310Y3702599D01*
G01X490644Y3699683D01*
G01X489834Y3696802D01*
G01X488879Y3693968D01*
G01X487787Y3691181D01*
G01X486557Y3688456D01*
G01X485191Y3685794D01*
G01X483695Y3683203D01*
G01X482072Y3680689D01*
G01X480327Y3678260D01*
G01X478462Y3675921D01*
G01X476481Y3673678D01*
G01X474393Y3671537D01*
G01X472199Y3669502D01*
G01X469908Y3667580D01*
G01X467523Y3665771D01*
G01X465051Y3664087D01*
G01X462498Y3662528D01*
G01X459872Y3661095D01*
G01X457175Y3659797D01*
G01X454419Y3658636D01*
G01X451607Y3657613D01*
G01X448749Y3656731D01*
G01X445849Y3655992D01*
G01X442918Y3655400D01*
G01X439958Y3654953D01*
G01X436982Y3654656D01*
G01X433995Y3654506D01*
G37*
G36*
G01X428015Y4099672D02*
G01X425039Y4099969D01*
G01X422079Y4100416D01*
G01X419148Y4101008D01*
G01X416248Y4101747D01*
G01X413390Y4102628D01*
G01X410578Y4103652D01*
G01X407822Y4104813D01*
G01X405125Y4106111D01*
G01X402499Y4107543D01*
G01X399946Y4109103D01*
G01X397474Y4110787D01*
G01X395089Y4112595D01*
G01X392798Y4114518D01*
G01X390604Y4116553D01*
G01X388516Y4118694D01*
G01X386535Y4120937D01*
G01X384670Y4123276D01*
G01X382925Y4125704D01*
G01X381302Y4128219D01*
G01X379806Y4130810D01*
G01X378440Y4133472D01*
G01X377210Y4136197D01*
G01X376118Y4138983D01*
G01X375163Y4141818D01*
G01X374353Y4144698D01*
G01X373687Y4147614D01*
G01X373169Y4150561D01*
G01X372796Y4153530D01*
G01X372572Y4156514D01*
G01X372499Y4159504D01*
G01X372499Y4189504D01*
G01X372572Y4192494D01*
G01X372796Y4195478D01*
G01X373169Y4198447D01*
G01X373687Y4201394D01*
G01X374353Y4204310D01*
G01X375163Y4207190D01*
G01X376118Y4210025D01*
G01X377210Y4212811D01*
G01X378440Y4215536D01*
G01X379806Y4218198D01*
G01X381302Y4220789D01*
G01X382925Y4223304D01*
G01X384670Y4225732D01*
G01X386535Y4228071D01*
G01X388516Y4230314D01*
G01X390604Y4232455D01*
G01X392798Y4234490D01*
G01X395089Y4236413D01*
G01X397474Y4238221D01*
G01X399946Y4239905D01*
G01X402499Y4241465D01*
G01X405125Y4242897D01*
G01X407822Y4244195D01*
G01X410578Y4245356D01*
G01X413390Y4246380D01*
G01X416248Y4247261D01*
G01X419148Y4248000D01*
G01X422079Y4248592D01*
G01X425039Y4249039D01*
G01X428015Y4249336D01*
G01X431002Y4249486D01*
G01X433995Y4249486D01*
G01X436982Y4249336D01*
G01X439958Y4249039D01*
G01X442918Y4248592D01*
G01X445849Y4248000D01*
G01X448749Y4247261D01*
G01X451607Y4246380D01*
G01X454419Y4245356D01*
G01X457175Y4244195D01*
G01X459872Y4242897D01*
G01X462498Y4241465D01*
G01X465051Y4239905D01*
G01X467523Y4238221D01*
G01X469908Y4236413D01*
G01X472199Y4234490D01*
G01X474393Y4232455D01*
G01X476481Y4230314D01*
G01X478462Y4228071D01*
G01X480327Y4225732D01*
G01X482072Y4223304D01*
G01X483695Y4220789D01*
G01X485191Y4218198D01*
G01X486557Y4215536D01*
G01X487787Y4212811D01*
G01X488879Y4210025D01*
G01X489834Y4207190D01*
G01X490644Y4204310D01*
G01X491310Y4201394D01*
G01X491828Y4198447D01*
G01X492201Y4195478D01*
G01X492425Y4192494D01*
G01X492498Y4189504D01*
G01X492498Y4159504D01*
G01X492425Y4156514D01*
G01X492201Y4153530D01*
G01X491828Y4150561D01*
G01X491310Y4147614D01*
G01X490644Y4144698D01*
G01X489834Y4141818D01*
G01X488879Y4138983D01*
G01X487787Y4136197D01*
G01X486557Y4133472D01*
G01X485191Y4130810D01*
G01X483695Y4128219D01*
G01X482072Y4125704D01*
G01X480327Y4123276D01*
G01X478462Y4120937D01*
G01X476481Y4118694D01*
G01X474393Y4116553D01*
G01X472199Y4114518D01*
G01X469908Y4112595D01*
G01X467523Y4110787D01*
G01X465051Y4109103D01*
G01X462498Y4107543D01*
G01X459872Y4106111D01*
G01X457175Y4104813D01*
G01X454419Y4103652D01*
G01X451607Y4102628D01*
G01X448749Y4101747D01*
G01X445849Y4101008D01*
G01X442918Y4100416D01*
G01X439958Y4099969D01*
G01X436982Y4099672D01*
G01X433995Y4099522D01*
G01X431002Y4099522D01*
G01X428015Y4099672D01*
G37*
G36*
G01X-431002Y4099522D02*
G01X-433995Y4099522D01*
G01X-436982Y4099672D01*
G01X-439958Y4099969D01*
G01X-442918Y4100416D01*
G01X-445849Y4101008D01*
G01X-448749Y4101747D01*
G01X-451607Y4102628D01*
G01X-454419Y4103652D01*
G01X-457175Y4104813D01*
G01X-459872Y4106111D01*
G01X-462498Y4107543D01*
G01X-465051Y4109103D01*
G01X-467523Y4110787D01*
G01X-469908Y4112595D01*
G01X-472199Y4114518D01*
G01X-474393Y4116553D01*
G01X-476481Y4118694D01*
G01X-478462Y4120937D01*
G01X-480327Y4123276D01*
G01X-482072Y4125704D01*
G01X-483695Y4128219D01*
G01X-485191Y4130810D01*
G01X-486557Y4133472D01*
G01X-487787Y4136197D01*
G01X-488879Y4138983D01*
G01X-489834Y4141818D01*
G01X-490644Y4144698D01*
G01X-491310Y4147614D01*
G01X-491828Y4150561D01*
G01X-492201Y4153530D01*
G01X-492425Y4156514D01*
G01X-492498Y4159504D01*
G01X-492498Y4189504D01*
G01X-492425Y4192494D01*
G01X-492201Y4195478D01*
G01X-491828Y4198447D01*
G01X-491310Y4201394D01*
G01X-490644Y4204310D01*
G01X-489834Y4207190D01*
G01X-488879Y4210025D01*
G01X-487787Y4212811D01*
G01X-486557Y4215536D01*
G01X-485191Y4218198D01*
G01X-483695Y4220789D01*
G01X-482072Y4223304D01*
G01X-480327Y4225732D01*
G01X-478462Y4228071D01*
G01X-476481Y4230314D01*
G01X-474393Y4232455D01*
G01X-472199Y4234490D01*
G01X-469908Y4236413D01*
G01X-467523Y4238221D01*
G01X-465051Y4239905D01*
G01X-462498Y4241465D01*
G01X-459872Y4242897D01*
G01X-457175Y4244195D01*
G01X-454419Y4245356D01*
G01X-451607Y4246380D01*
G01X-448749Y4247261D01*
G01X-445849Y4248000D01*
G01X-442918Y4248592D01*
G01X-439958Y4249039D01*
G01X-436982Y4249336D01*
G01X-433995Y4249486D01*
G01X-431002Y4249486D01*
G01X-428015Y4249336D01*
G01X-425039Y4249039D01*
G01X-422079Y4248592D01*
G01X-419148Y4248000D01*
G01X-416248Y4247261D01*
G01X-413390Y4246380D01*
G01X-410578Y4245356D01*
G01X-407822Y4244195D01*
G01X-405125Y4242897D01*
G01X-402499Y4241465D01*
G01X-399946Y4239905D01*
G01X-397474Y4238221D01*
G01X-395089Y4236413D01*
G01X-392798Y4234490D01*
G01X-390604Y4232455D01*
G01X-388516Y4230314D01*
G01X-386535Y4228071D01*
G01X-384670Y4225732D01*
G01X-382925Y4223304D01*
G01X-381302Y4220789D01*
G01X-379806Y4218198D01*
G01X-378440Y4215536D01*
G01X-377210Y4212811D01*
G01X-376118Y4210025D01*
G01X-375163Y4207190D01*
G01X-374353Y4204310D01*
G01X-373687Y4201394D01*
G01X-373169Y4198447D01*
G01X-372796Y4195478D01*
G01X-372572Y4192494D01*
G01X-372499Y4189504D01*
G01X-372499Y4159504D01*
G01X-372572Y4156514D01*
G01X-372796Y4153530D01*
G01X-373169Y4150561D01*
G01X-373687Y4147614D01*
G01X-374353Y4144698D01*
G01X-375163Y4141818D01*
G01X-376118Y4138983D01*
G01X-377210Y4136197D01*
G01X-378440Y4133472D01*
G01X-379806Y4130810D01*
G01X-381302Y4128219D01*
G01X-382925Y4125704D01*
G01X-384670Y4123276D01*
G01X-386535Y4120937D01*
G01X-388516Y4118694D01*
G01X-390604Y4116553D01*
G01X-392798Y4114518D01*
G01X-395089Y4112595D01*
G01X-397474Y4110787D01*
G01X-399946Y4109103D01*
G01X-402499Y4107543D01*
G01X-405125Y4106111D01*
G01X-407822Y4104813D01*
G01X-410578Y4103652D01*
G01X-413390Y4102628D01*
G01X-416248Y4101747D01*
G01X-419148Y4101008D01*
G01X-422079Y4100416D01*
G01X-425039Y4099969D01*
G01X-428015Y4099672D01*
G01X-431002Y4099522D01*
G37*
G36*
G01X-5498793Y576204D02*
G01X-5528795Y576204D01*
G01X-5528795Y686204D01*
G01X-5498793Y686204D01*
G01X-5498793Y576204D01*
G37*
G36*
G01X-5478783Y686204D02*
G01X-5448780Y686204D01*
G01X-5448780Y576204D01*
G01X-5478783Y576204D01*
G01X-5478783Y686204D01*
G37*
G36*
G01X-5988802Y686204D02*
G01X-5928802Y686204D01*
G01X-5928802Y576204D01*
G01X-5988802Y576204D01*
G01X-5988802Y686204D01*
G37*
G36*
G01X-5548805Y576204D02*
G01X-5578808Y576204D01*
G01X-5578808Y686204D01*
G01X-5548805Y686204D01*
G01X-5548805Y576204D01*
G37*
G36*
G01X-5428783Y686204D02*
G01X-5368783Y686204D01*
G01X-5368783Y576204D01*
G01X-5428783Y576204D01*
G01X-5428783Y686204D01*
G37*
G36*
G01X-5288798Y576204D02*
G01X-5348798Y576204D01*
G01X-5348798Y686204D01*
G01X-5288798Y686204D01*
G01X-5288798Y576204D01*
G37*
G36*
G01X-5598792Y576204D02*
G01X-5628795Y576204D01*
G01X-5628795Y686204D01*
G01X-5598792Y686204D01*
G01X-5598792Y576204D01*
G37*
G36*
G01X-5648805Y576204D02*
G01X-5678808Y576204D01*
G01X-5678808Y686204D01*
G01X-5648805Y686204D01*
G01X-5648805Y576204D01*
G37*
G36*
G01X-5908792Y686204D02*
G01X-5848792Y686204D01*
G01X-5848792Y576204D01*
G01X-5908792Y576204D01*
G01X-5908792Y686204D01*
G37*
G36*
G01X-5698792Y576204D02*
G01X-5728795Y576204D01*
G01X-5728795Y686204D01*
G01X-5698792Y686204D01*
G01X-5698792Y576204D01*
G37*
G36*
G01X-5748779Y576204D02*
G01X-5778782Y576204D01*
G01X-5778782Y686204D01*
G01X-5748779Y686204D01*
G01X-5748779Y576204D01*
G37*
G36*
G01X-5798792Y576204D02*
G01X-5828795Y576204D01*
G01X-5828795Y686204D01*
G01X-5798792Y686204D01*
G01X-5798792Y576204D01*
G37*
G36*
G01X-5201818Y676044D02*
G01X-5198842Y675747D01*
G01X-5195882Y675300D01*
G01X-5192951Y674708D01*
G01X-5190051Y673969D01*
G01X-5187193Y673087D01*
G01X-5184381Y672064D01*
G01X-5181625Y670903D01*
G01X-5178928Y669605D01*
G01X-5176302Y668172D01*
G01X-5173749Y666613D01*
G01X-5171277Y664929D01*
G01X-5168892Y663120D01*
G01X-5166601Y661198D01*
G01X-5164407Y659163D01*
G01X-5162319Y657022D01*
G01X-5160338Y654779D01*
G01X-5158473Y652440D01*
G01X-5156728Y650011D01*
G01X-5155105Y647497D01*
G01X-5153609Y644906D01*
G01X-5152243Y642244D01*
G01X-5151013Y639519D01*
G01X-5149921Y636732D01*
G01X-5148966Y633898D01*
G01X-5148156Y631017D01*
G01X-5147490Y628101D01*
G01X-5146972Y625155D01*
G01X-5146599Y622186D01*
G01X-5146375Y619201D01*
G01X-5146302Y616212D01*
G01X-5146302Y536212D01*
G01X-5146375Y533222D01*
G01X-5146599Y530238D01*
G01X-5146972Y527268D01*
G01X-5147490Y524322D01*
G01X-5148156Y521406D01*
G01X-5148966Y518526D01*
G01X-5149921Y515691D01*
G01X-5151013Y512905D01*
G01X-5152243Y510179D01*
G01X-5153609Y507517D01*
G01X-5155105Y504927D01*
G01X-5156728Y502412D01*
G01X-5158473Y499984D01*
G01X-5160338Y497644D01*
G01X-5162319Y495402D01*
G01X-5164407Y493260D01*
G01X-5166601Y491226D01*
G01X-5168892Y489303D01*
G01X-5171277Y487495D01*
G01X-5173749Y485811D01*
G01X-5176302Y484251D01*
G01X-5178928Y482818D01*
G01X-5181625Y481521D01*
G01X-5184381Y480360D01*
G01X-5187193Y479336D01*
G01X-5190051Y478455D01*
G01X-5192951Y477716D01*
G01X-5195882Y477124D01*
G01X-5198842Y476677D01*
G01X-5201818Y476380D01*
G01X-5204805Y476230D01*
G01X-5207798Y476230D01*
G01X-5210785Y476380D01*
G01X-5213761Y476677D01*
G01X-5216721Y477124D01*
G01X-5219652Y477716D01*
G01X-5222552Y478455D01*
G01X-5225410Y479336D01*
G01X-5228222Y480360D01*
G01X-5230978Y481521D01*
G01X-5233675Y482818D01*
G01X-5236301Y484251D01*
G01X-5238854Y485811D01*
G01X-5241326Y487495D01*
G01X-5243711Y489303D01*
G01X-5246002Y491226D01*
G01X-5248196Y493260D01*
G01X-5250284Y495402D01*
G01X-5252265Y497644D01*
G01X-5254130Y499984D01*
G01X-5255875Y502412D01*
G01X-5257498Y504927D01*
G01X-5258994Y507517D01*
G01X-5260360Y510179D01*
G01X-5261590Y512905D01*
G01X-5262682Y515691D01*
G01X-5263637Y518526D01*
G01X-5264447Y521406D01*
G01X-5265113Y524322D01*
G01X-5265631Y527268D01*
G01X-5266004Y530238D01*
G01X-5266228Y533222D01*
G01X-5266301Y536212D01*
G01X-5266301Y616212D01*
G01X-5266228Y619201D01*
G01X-5266004Y622186D01*
G01X-5265631Y625155D01*
G01X-5265113Y628101D01*
G01X-5264447Y631017D01*
G01X-5263637Y633898D01*
G01X-5262682Y636732D01*
G01X-5261590Y639519D01*
G01X-5260360Y642244D01*
G01X-5258994Y644906D01*
G01X-5257498Y647497D01*
G01X-5255875Y650011D01*
G01X-5254130Y652440D01*
G01X-5252265Y654779D01*
G01X-5250284Y657022D01*
G01X-5248196Y659163D01*
G01X-5246002Y661198D01*
G01X-5243711Y663120D01*
G01X-5241326Y664929D01*
G01X-5238854Y666613D01*
G01X-5236301Y668172D01*
G01X-5233675Y669605D01*
G01X-5230978Y670903D01*
G01X-5228222Y672064D01*
G01X-5225410Y673087D01*
G01X-5222552Y673969D01*
G01X-5219652Y674708D01*
G01X-5216721Y675300D01*
G01X-5213761Y675747D01*
G01X-5210785Y676044D01*
G01X-5207798Y676194D01*
G01X-5204805Y676194D01*
G01X-5201818Y676044D01*
G37*
G36*
G01X-6072795Y676194D02*
G01X-6069802Y676194D01*
G01X-6066815Y676044D01*
G01X-6063839Y675747D01*
G01X-6060879Y675300D01*
G01X-6057948Y674708D01*
G01X-6055048Y673969D01*
G01X-6052190Y673087D01*
G01X-6049378Y672064D01*
G01X-6046622Y670903D01*
G01X-6043925Y669605D01*
G01X-6041299Y668172D01*
G01X-6038746Y666613D01*
G01X-6036274Y664929D01*
G01X-6033889Y663120D01*
G01X-6031598Y661198D01*
G01X-6029404Y659163D01*
G01X-6027316Y657022D01*
G01X-6025335Y654779D01*
G01X-6023470Y652440D01*
G01X-6021725Y650011D01*
G01X-6020102Y647497D01*
G01X-6018606Y644906D01*
G01X-6017240Y642244D01*
G01X-6016010Y639519D01*
G01X-6014918Y636732D01*
G01X-6013963Y633898D01*
G01X-6013153Y631017D01*
G01X-6012487Y628101D01*
G01X-6011969Y625155D01*
G01X-6011596Y622186D01*
G01X-6011372Y619201D01*
G01X-6011299Y616212D01*
G01X-6011299Y536212D01*
G01X-6011372Y533222D01*
G01X-6011596Y530238D01*
G01X-6011969Y527268D01*
G01X-6012487Y524322D01*
G01X-6013153Y521406D01*
G01X-6013963Y518526D01*
G01X-6014918Y515691D01*
G01X-6016010Y512905D01*
G01X-6017240Y510179D01*
G01X-6018606Y507517D01*
G01X-6020102Y504927D01*
G01X-6021725Y502412D01*
G01X-6023470Y499984D01*
G01X-6025335Y497644D01*
G01X-6027316Y495402D01*
G01X-6029404Y493260D01*
G01X-6031598Y491226D01*
G01X-6033889Y489303D01*
G01X-6036274Y487495D01*
G01X-6038746Y485811D01*
G01X-6041299Y484251D01*
G01X-6043925Y482818D01*
G01X-6046622Y481521D01*
G01X-6049378Y480360D01*
G01X-6052190Y479336D01*
G01X-6055048Y478455D01*
G01X-6057948Y477716D01*
G01X-6060879Y477124D01*
G01X-6063839Y476677D01*
G01X-6066815Y476380D01*
G01X-6069802Y476230D01*
G01X-6072795Y476230D01*
G01X-6075782Y476380D01*
G01X-6078758Y476677D01*
G01X-6081718Y477124D01*
G01X-6084649Y477716D01*
G01X-6087549Y478455D01*
G01X-6090407Y479336D01*
G01X-6093219Y480360D01*
G01X-6095975Y481521D01*
G01X-6098672Y482818D01*
G01X-6101298Y484251D01*
G01X-6103851Y485811D01*
G01X-6106323Y487495D01*
G01X-6108708Y489303D01*
G01X-6110999Y491226D01*
G01X-6113193Y493260D01*
G01X-6115281Y495402D01*
G01X-6117262Y497644D01*
G01X-6119127Y499984D01*
G01X-6120872Y502412D01*
G01X-6122495Y504927D01*
G01X-6123991Y507517D01*
G01X-6125357Y510179D01*
G01X-6126587Y512905D01*
G01X-6127679Y515691D01*
G01X-6128634Y518526D01*
G01X-6129444Y521406D01*
G01X-6130110Y524322D01*
G01X-6130628Y527268D01*
G01X-6131001Y530238D01*
G01X-6131225Y533222D01*
G01X-6131298Y536212D01*
G01X-6131298Y616212D01*
G01X-6131225Y619201D01*
G01X-6131001Y622186D01*
G01X-6130628Y625155D01*
G01X-6130110Y628101D01*
G01X-6129444Y631017D01*
G01X-6128634Y633898D01*
G01X-6127679Y636732D01*
G01X-6126587Y639519D01*
G01X-6125357Y642244D01*
G01X-6123991Y644906D01*
G01X-6122495Y647497D01*
G01X-6120872Y650011D01*
G01X-6119127Y652440D01*
G01X-6117262Y654779D01*
G01X-6115281Y657022D01*
G01X-6113193Y659163D01*
G01X-6110999Y661198D01*
G01X-6108708Y663120D01*
G01X-6106323Y664929D01*
G01X-6103851Y666613D01*
G01X-6101298Y668172D01*
G01X-6098672Y669605D01*
G01X-6095975Y670903D01*
G01X-6093219Y672064D01*
G01X-6090407Y673087D01*
G01X-6087549Y673969D01*
G01X-6084649Y674708D01*
G01X-6081718Y675300D01*
G01X-6078758Y675747D01*
G01X-6075782Y676044D01*
G01X-6072795Y676194D01*
G37*
G36*
G01X-6066815Y231028D02*
G01X-6063839Y230731D01*
G01X-6060879Y230284D01*
G01X-6057948Y229692D01*
G01X-6055048Y228953D01*
G01X-6052190Y228072D01*
G01X-6049378Y227048D01*
G01X-6046622Y225887D01*
G01X-6043925Y224589D01*
G01X-6041299Y223157D01*
G01X-6038746Y221597D01*
G01X-6036274Y219913D01*
G01X-6033889Y218105D01*
G01X-6031598Y216182D01*
G01X-6029404Y214147D01*
G01X-6027316Y212006D01*
G01X-6025335Y209763D01*
G01X-6023470Y207424D01*
G01X-6021725Y204996D01*
G01X-6020102Y202481D01*
G01X-6018606Y199890D01*
G01X-6017240Y197228D01*
G01X-6016010Y194503D01*
G01X-6014918Y191717D01*
G01X-6013963Y188882D01*
G01X-6013153Y186002D01*
G01X-6012487Y183086D01*
G01X-6011969Y180139D01*
G01X-6011596Y177170D01*
G01X-6011372Y174186D01*
G01X-6011299Y171196D01*
G01X-6011299Y141196D01*
G01X-6011372Y138206D01*
G01X-6011596Y135222D01*
G01X-6011969Y132253D01*
G01X-6012487Y129306D01*
G01X-6013153Y126390D01*
G01X-6013963Y123510D01*
G01X-6014918Y120675D01*
G01X-6016010Y117889D01*
G01X-6017240Y115164D01*
G01X-6018606Y112502D01*
G01X-6020102Y109911D01*
G01X-6021725Y107396D01*
G01X-6023470Y104968D01*
G01X-6025335Y102629D01*
G01X-6027316Y100386D01*
G01X-6029404Y98245D01*
G01X-6031598Y96210D01*
G01X-6033889Y94287D01*
G01X-6036274Y92479D01*
G01X-6038746Y90795D01*
G01X-6041299Y89235D01*
G01X-6043925Y87803D01*
G01X-6046622Y86505D01*
G01X-6049378Y85344D01*
G01X-6052190Y84320D01*
G01X-6055048Y83439D01*
G01X-6057948Y82700D01*
G01X-6060879Y82108D01*
G01X-6063839Y81661D01*
G01X-6066815Y81364D01*
G01X-6069802Y81214D01*
G01X-6072795Y81214D01*
G01X-6075782Y81364D01*
G01X-6078758Y81661D01*
G01X-6081718Y82108D01*
G01X-6084649Y82700D01*
G01X-6087549Y83439D01*
G01X-6090407Y84320D01*
G01X-6093219Y85344D01*
G01X-6095975Y86505D01*
G01X-6098672Y87803D01*
G01X-6101298Y89235D01*
G01X-6103851Y90795D01*
G01X-6106323Y92479D01*
G01X-6108708Y94287D01*
G01X-6110999Y96210D01*
G01X-6113193Y98245D01*
G01X-6115281Y100386D01*
G01X-6117262Y102629D01*
G01X-6119127Y104968D01*
G01X-6120872Y107396D01*
G01X-6122495Y109911D01*
G01X-6123991Y112502D01*
G01X-6125357Y115164D01*
G01X-6126587Y117889D01*
G01X-6127679Y120675D01*
G01X-6128634Y123510D01*
G01X-6129444Y126390D01*
G01X-6130110Y129306D01*
G01X-6130628Y132253D01*
G01X-6131001Y135222D01*
G01X-6131225Y138206D01*
G01X-6131298Y141196D01*
G01X-6131298Y171196D01*
G01X-6131225Y174186D01*
G01X-6131001Y177170D01*
G01X-6130628Y180139D01*
G01X-6130110Y183086D01*
G01X-6129444Y186002D01*
G01X-6128634Y188882D01*
G01X-6127679Y191717D01*
G01X-6126587Y194503D01*
G01X-6125357Y197228D01*
G01X-6123991Y199890D01*
G01X-6122495Y202481D01*
G01X-6120872Y204996D01*
G01X-6119127Y207424D01*
G01X-6117262Y209763D01*
G01X-6115281Y212006D01*
G01X-6113193Y214147D01*
G01X-6110999Y216182D01*
G01X-6108708Y218105D01*
G01X-6106323Y219913D01*
G01X-6103851Y221597D01*
G01X-6101298Y223157D01*
G01X-6098672Y224589D01*
G01X-6095975Y225887D01*
G01X-6093219Y227048D01*
G01X-6090407Y228072D01*
G01X-6087549Y228953D01*
G01X-6084649Y229692D01*
G01X-6081718Y230284D01*
G01X-6078758Y230731D01*
G01X-6075782Y231028D01*
G01X-6072795Y231178D01*
G01X-6069802Y231178D01*
G01X-6066815Y231028D01*
G37*
G36*
G01X-5207798Y231178D02*
G01X-5204805Y231178D01*
G01X-5201818Y231028D01*
G01X-5198842Y230731D01*
G01X-5195882Y230284D01*
G01X-5192951Y229692D01*
G01X-5190051Y228953D01*
G01X-5187193Y228072D01*
G01X-5184381Y227048D01*
G01X-5181625Y225887D01*
G01X-5178928Y224589D01*
G01X-5176302Y223157D01*
G01X-5173749Y221597D01*
G01X-5171277Y219913D01*
G01X-5168892Y218105D01*
G01X-5166601Y216182D01*
G01X-5164407Y214147D01*
G01X-5162319Y212006D01*
G01X-5160338Y209763D01*
G01X-5158473Y207424D01*
G01X-5156728Y204996D01*
G01X-5155105Y202481D01*
G01X-5153609Y199890D01*
G01X-5152243Y197228D01*
G01X-5151013Y194503D01*
G01X-5149921Y191717D01*
G01X-5148966Y188882D01*
G01X-5148156Y186002D01*
G01X-5147490Y183086D01*
G01X-5146972Y180139D01*
G01X-5146599Y177170D01*
G01X-5146375Y174186D01*
G01X-5146302Y171196D01*
G01X-5146302Y141196D01*
G01X-5146375Y138206D01*
G01X-5146599Y135222D01*
G01X-5146972Y132253D01*
G01X-5147490Y129306D01*
G01X-5148156Y126390D01*
G01X-5148966Y123510D01*
G01X-5149921Y120675D01*
G01X-5151013Y117889D01*
G01X-5152243Y115164D01*
G01X-5153609Y112502D01*
G01X-5155105Y109911D01*
G01X-5156728Y107396D01*
G01X-5158473Y104968D01*
G01X-5160338Y102629D01*
G01X-5162319Y100386D01*
G01X-5164407Y98245D01*
G01X-5166601Y96210D01*
G01X-5168892Y94287D01*
G01X-5171277Y92479D01*
G01X-5173749Y90795D01*
G01X-5176302Y89235D01*
G01X-5178928Y87803D01*
G01X-5181625Y86505D01*
G01X-5184381Y85344D01*
G01X-5187193Y84320D01*
G01X-5190051Y83439D01*
G01X-5192951Y82700D01*
G01X-5195882Y82108D01*
G01X-5198842Y81661D01*
G01X-5201818Y81364D01*
G01X-5204805Y81214D01*
G01X-5207798Y81214D01*
G01X-5210785Y81364D01*
G01X-5213761Y81661D01*
G01X-5216721Y82108D01*
G01X-5219652Y82700D01*
G01X-5222552Y83439D01*
G01X-5225410Y84320D01*
G01X-5228222Y85344D01*
G01X-5230978Y86505D01*
G01X-5233675Y87803D01*
G01X-5236301Y89235D01*
G01X-5238854Y90795D01*
G01X-5241326Y92479D01*
G01X-5243711Y94287D01*
G01X-5246002Y96210D01*
G01X-5248196Y98245D01*
G01X-5250284Y100386D01*
G01X-5252265Y102629D01*
G01X-5254130Y104968D01*
G01X-5255875Y107396D01*
G01X-5257498Y109911D01*
G01X-5258994Y112502D01*
G01X-5260360Y115164D01*
G01X-5261590Y117889D01*
G01X-5262682Y120675D01*
G01X-5263637Y123510D01*
G01X-5264447Y126390D01*
G01X-5265113Y129306D01*
G01X-5265631Y132253D01*
G01X-5266004Y135222D01*
G01X-5266228Y138206D01*
G01X-5266301Y141196D01*
G01X-5266301Y171196D01*
G01X-5266228Y174186D01*
G01X-5266004Y177170D01*
G01X-5265631Y180139D01*
G01X-5265113Y183086D01*
G01X-5264447Y186002D01*
G01X-5263637Y188882D01*
G01X-5262682Y191717D01*
G01X-5261590Y194503D01*
G01X-5260360Y197228D01*
G01X-5258994Y199890D01*
G01X-5257498Y202481D01*
G01X-5255875Y204996D01*
G01X-5254130Y207424D01*
G01X-5252265Y209763D01*
G01X-5250284Y212006D01*
G01X-5248196Y214147D01*
G01X-5246002Y216182D01*
G01X-5243711Y218105D01*
G01X-5241326Y219913D01*
G01X-5238854Y221597D01*
G01X-5236301Y223157D01*
G01X-5233675Y224589D01*
G01X-5230978Y225887D01*
G01X-5228222Y227048D01*
G01X-5225410Y228072D01*
G01X-5222552Y228953D01*
G01X-5219652Y229692D01*
G01X-5216721Y230284D01*
G01X-5213761Y230731D01*
G01X-5210785Y231028D01*
G01X-5207798Y231178D01*
G37*
G36*
G01X5653400Y1193096D02*
G01X5765399Y1193096D01*
G01X5765399Y905096D01*
G01X5653400Y905096D01*
G01X5653400Y1193096D01*
G37*
G36*
G01X5403400Y1193096D02*
G01X5515399Y1193096D01*
G01X5515399Y905096D01*
G01X5403400Y905096D01*
G01X5403400Y1193096D01*
G37*
G36*
G01X5203401Y1193096D02*
G01X5315400Y1193096D01*
G01X5315400Y905096D01*
G01X5203401Y905096D01*
G01X5203401Y1193096D01*
G37*
G36*
G01X4953401Y1193096D02*
G01X5065400Y1193096D01*
G01X5065400Y905096D01*
G01X4953401Y905096D01*
G01X4953401Y1193096D01*
G37*
G36*
G01X-2106300Y1193096D02*
G01X-1994301Y1193096D01*
G01X-1994301Y905096D01*
G01X-2106300Y905096D01*
G01X-2106300Y1193096D01*
G37*
G36*
G01X-2356300Y1193096D02*
G01X-2244301Y1193096D01*
G01X-2244301Y905096D01*
G01X-2356300Y905096D01*
G01X-2356300Y1193096D01*
G37*
G36*
G01X-2556299Y1193096D02*
G01X-2444300Y1193096D01*
G01X-2444300Y905096D01*
G01X-2556299Y905096D01*
G01X-2556299Y1193096D01*
G37*
G36*
G01X-2806299Y1193096D02*
G01X-2694300Y1193096D01*
G01X-2694300Y905096D01*
G01X-2806299Y905096D01*
G01X-2806299Y1193096D01*
G37*
G36*
G01X2338700Y1193096D02*
G01X2450699Y1193096D01*
G01X2450699Y905096D01*
G01X2338700Y905096D01*
G01X2338700Y1193096D01*
G37*
G36*
G01X2088700Y1193096D02*
G01X2200699Y1193096D01*
G01X2200699Y905096D01*
G01X2088700Y905096D01*
G01X2088700Y1193096D01*
G37*
G36*
G01X1888701Y1193096D02*
G01X2000700Y1193096D01*
G01X2000700Y905096D01*
G01X1888701Y905096D01*
G01X1888701Y1193096D01*
G37*
G36*
G01X1638701Y1193096D02*
G01X1750700Y1193096D01*
G01X1750700Y905096D01*
G01X1638701Y905096D01*
G01X1638701Y1193096D01*
G37*

G04 Pad Start*
G54D10*
G01X1701800Y1428902D03*
G01X1701800Y1288898D03*
G01X-2749702Y1397305D03*
G01X-2749702Y1257300D03*
G01X-5295900Y882802D03*
G01X-5295900Y742798D03*
G01X292100Y3397402D03*
G01X292100Y3537407D03*
G01X5003800Y1416202D03*
G01X5003800Y1276198D03*
G01X-101409Y3006922D03*
G01X-101409Y2866917D03*
G01X-281416Y3012145D03*
G01X-281416Y2872140D03*
G01X-330200Y1809598D03*
G01X-330200Y1949602D03*
G01X-152400Y1809598D03*
G01X-152400Y1949602D03*
G01X25400Y1809598D03*
G01X25400Y1949602D03*
G01X203200Y1809598D03*
G01X203200Y1949602D03*
G54D11*
G01X215558Y2685614D03*
G01X162548Y2685614D03*
G01X109564Y2685614D03*
G01X56554Y2685614D03*
G01X3569Y2685614D03*
G01X-49440Y2685614D03*
G01X-102450Y2685614D03*
G01X-155435Y2685614D03*
G01X-155435Y2325595D03*
G01X-102450Y2325595D03*
G01X-49440Y2325595D03*
G01X3569Y2325595D03*
G01X56554Y2325595D03*
G01X109564Y2325595D03*
G01X162548Y2325595D03*
G01X215558Y2325595D03*
G04 Pad End*

M02*

